<?xml version="1.0" encoding="UTF-8" standalone="no"?>
<!-- Created with Inkscape (http://www.inkscape.org/) -->

<svg
   width="133.70903mm"
   height="10.466884mm"
   viewBox="0 0 133.70903 10.466884"
   version="1.1"
   id="svg5"
   inkscape:version="1.2.2 (b0a84865, 2022-12-01)"
   sodipodi:docname="ajayyptilsimatlar.svg"
   xmlns:inkscape="http://www.inkscape.org/namespaces/inkscape"
   xmlns:sodipodi="http://sodipodi.sourceforge.net/DTD/sodipodi-0.dtd"
   xmlns="http://www.w3.org/2000/svg"
   xmlns:svg="http://www.w3.org/2000/svg">
  <sodipodi:namedview
     id="namedview7"
     pagecolor="#ffffff"
     bordercolor="#666666"
     borderopacity="1.0"
     inkscape:showpageshadow="2"
     inkscape:pageopacity="0.0"
     inkscape:pagecheckerboard="0"
     inkscape:deskcolor="#d1d1d1"
     inkscape:document-units="mm"
     showgrid="false"
     inkscape:zoom="0.84096521"
     inkscape:cx="115.34365"
     inkscape:cy="87.994128"
     inkscape:window-width="1309"
     inkscape:window-height="456"
     inkscape:window-x="1794"
     inkscape:window-y="217"
     inkscape:window-maximized="0"
     inkscape:current-layer="layer1" />
  <defs
     id="defs2" />
  <g
     inkscape:label="Layer 1"
     inkscape:groupmode="layer"
     id="layer1"
     transform="translate(-53.385099,-144.13787)">
    <g
       aria-label="IE &quot;AJAÃYP TILSIMATLAR&quot;"
       id="text236"
       style="font-size:10.5833px;line-height:1.25;stroke-width:0.264583">
      <path
         d="m 53.385099,154.47775 v -1.28058 h 0.952497 v -4.82598 h -0.952497 v -1.28058 h 3.513656 v 1.28058 h -0.952497 v 4.82598 h 0.952497 v 1.28058 z"
         style="font-weight:bold;font-family:'IBM Plex Sans';-inkscape-font-specification:'IBM Plex Sans, Bold'"
         id="path397" />
      <path
         d="m 58.242825,154.47775 v -7.38714 h 5.027068 v 1.42874 h -3.418406 v 1.51342 h 2.931574 v 1.41816 h -2.931574 v 1.59808 h 3.418406 v 1.42874 z"
         style="font-weight:bold;font-family:'IBM Plex Sans';-inkscape-font-specification:'IBM Plex Sans, Bold'"
         id="path399" />
      <path
         d="m 67.069261,150.09627 v -3.45016 h 1.396996 v 3.45016 z m 2.381243,0 v -3.45016 h 1.396995 v 3.45016 z"
         style="font-weight:bold;font-family:'IBM Plex Sans';-inkscape-font-specification:'IBM Plex Sans, Bold'"
         id="path401" />
      <path
         d="m 76.403701,154.47775 -0.529165,-1.75683 h -2.465909 l -0.529165,1.75683 h -1.629828 l 2.434159,-7.38714 h 1.98966 l 2.402409,7.38714 z m -1.746245,-5.92665 h -0.05292 l -0.814914,2.80458 h 1.693328 z"
         style="font-weight:bold;font-family:'IBM Plex Sans';-inkscape-font-specification:'IBM Plex Sans, Bold'"
         id="path403" />
      <path
         d="m 83.282819,147.09061 v 5.24932 q 0,0.50799 -0.169333,0.93133 -0.158749,0.41275 -0.476248,0.70908 -0.317499,0.28575 -0.772581,0.45508 -0.444498,0.15875 -1.015997,0.15875 -0.550331,0 -0.973663,-0.14817 -0.412749,-0.14816 -0.719665,-0.42333 -0.296332,-0.27516 -0.486831,-0.65616 -0.1905,-0.381 -0.264583,-0.84667 l 1.502829,-0.29633 q 0.179916,0.96308 0.920747,0.96308 0.349249,0 0.592665,-0.22225 0.253999,-0.22225 0.253999,-0.6985 v -3.88407 h -2.24366 v -1.29116 z"
         style="font-weight:bold;font-family:'IBM Plex Sans';-inkscape-font-specification:'IBM Plex Sans, Bold'"
         id="path405" />
      <path
         d="m 89.198844,154.47775 -0.529165,-1.75683 H 86.20377 l -0.529165,1.75683 h -1.629828 l 2.434159,-7.38714 h 1.98966 l 2.402409,7.38714 z m -1.746245,-5.92665 h -0.05292 l -0.814914,2.80458 h 1.693328 z"
         style="font-weight:bold;font-family:'IBM Plex Sans';-inkscape-font-specification:'IBM Plex Sans, Bold'"
         id="path407" />
      <path
         d="m 92.966478,154.47775 v -2.88924 l -2.529409,-4.4979 h 1.799161 l 1.587495,2.94216 h 0.02117 l 1.523995,-2.94216 h 1.746245 l -2.529409,4.48732 v 2.89982 z m 0.984247,-7.83164 -0.93133,-0.45508 1.047746,-2.05316 1.301746,0.64558 z"
         style="font-weight:bold;font-family:'IBM Plex Sans';-inkscape-font-specification:'IBM Plex Sans, Bold'"
         id="path409" />
      <path
         d="m 99.83502,154.47775 v -2.88924 l -2.529409,-4.4979 h 1.799161 l 1.587498,2.94216 h 0.0212 l 1.524,-2.94216 h 1.74624 l -2.52941,4.48732 v 2.89982 z"
         style="font-weight:bold;font-family:'IBM Plex Sans';-inkscape-font-specification:'IBM Plex Sans, Bold'"
         id="path411" />
      <path
         d="m 104.89382,154.47775 v -7.38714 h 3.49249 q 0.51858,0 0.93133,0.17992 0.41275,0.16933 0.69849,0.47624 0.29634,0.30692 0.45509,0.75142 0.15875,0.43391 0.15875,0.9525 0,0.52916 -0.15875,0.96308 -0.15875,0.43391 -0.45509,0.74083 -0.28574,0.30691 -0.69849,0.48683 -0.41275,0.16933 -0.93133,0.16933 h -1.88383 v 2.66699 z m 1.60866,-4.06398 h 1.69333 q 0.35983,0 0.56091,-0.17992 0.21167,-0.1905 0.21167,-0.55033 v -0.46567 q 0,-0.35983 -0.21167,-0.53975 -0.20108,-0.19049 -0.56091,-0.19049 h -1.69333 z"
         style="font-weight:bold;font-family:'IBM Plex Sans';-inkscape-font-specification:'IBM Plex Sans, Bold'"
         id="path413" />
      <path
         d="m 117.41382,148.51935 v 5.9584 h -1.60866 v -5.9584 h -2.00024 v -1.42874 h 5.60915 v 1.42874 z"
         style="font-weight:bold;font-family:'IBM Plex Sans';-inkscape-font-specification:'IBM Plex Sans, Bold'"
         id="path415" />
      <path
         d="m 120.18663,154.47775 v -1.28058 h 0.9525 v -4.82598 h -0.9525 v -1.28058 h 3.51365 v 1.28058 h -0.95249 v 4.82598 h 0.95249 v 1.28058 z"
         style="font-weight:bold;font-family:'IBM Plex Sans';-inkscape-font-specification:'IBM Plex Sans, Bold'"
         id="path417" />
      <path
         d="m 125.04435,154.47775 v -7.38714 h 1.60866 v 5.9584 h 2.81516 v 1.42874 z"
         style="font-weight:bold;font-family:'IBM Plex Sans';-inkscape-font-specification:'IBM Plex Sans, Bold'"
         id="path419" />
      <path
         d="m 133.04532,154.60475 q -0.97367,0 -1.651,-0.32808 -0.67733,-0.33867 -1.15358,-0.86783 l 1.05833,-1.06891 q 0.75142,0.84666 1.85208,0.84666 0.59266,0 0.87841,-0.24342 0.28575,-0.24341 0.28575,-0.64558 0,-0.30691 -0.16933,-0.508 -0.16933,-0.21166 -0.68791,-0.28574 l -0.73025,-0.0952 q -1.17475,-0.14817 -1.72508,-0.70909 -0.53975,-0.56091 -0.53975,-1.49224 0,-0.49742 0.1905,-0.91016 0.1905,-0.41275 0.53975,-0.70909 0.35983,-0.29633 0.86783,-0.45508 0.51858,-0.16933 1.17475,-0.16933 0.83608,0 1.47108,0.26458 0.63499,0.26458 1.09007,0.77258 l -1.06891,1.0795 q -0.26458,-0.30692 -0.64558,-0.49742 -0.37042,-0.20108 -0.94191,-0.20108 -0.53975,0 -0.80433,0.1905 -0.26459,0.1905 -0.26459,0.52917 0,0.381 0.20109,0.55033 0.21166,0.16933 0.67733,0.24341 l 0.73025,0.11642 q 1.14299,0.17992 1.69332,0.70908 0.55033,0.51858 0.55033,1.48166 0,0.52917 -0.19049,0.97367 -0.1905,0.4445 -0.56092,0.76199 -0.35983,0.3175 -0.89958,0.49742 -0.53975,0.16933 -1.22766,0.16933 z"
         style="font-weight:bold;font-family:'IBM Plex Sans';-inkscape-font-specification:'IBM Plex Sans, Bold'"
         id="path421" />
      <path
         d="m 136.97171,154.47775 v -1.28058 h 0.95249 v -4.82598 h -0.95249 v -1.28058 h 3.51365 v 1.28058 h -0.95249 v 4.82598 h 0.95249 v 1.28058 z"
         style="font-weight:bold;font-family:'IBM Plex Sans';-inkscape-font-specification:'IBM Plex Sans, Bold'"
         id="path423" />
      <path
         d="m 147.35392,149.6306 h -0.0317 l -0.53975,1.0795 -1.43933,2.61407 -1.40758,-2.60349 -0.56092,-1.16416 h -0.0318 v 4.92123 h -1.51341 v -7.38714 h 1.70391 l 1.80975,3.46074 h 0.0212 l 1.78858,-3.46074 h 1.7145 v 7.38714 h -1.51341 z"
         style="font-weight:bold;font-family:'IBM Plex Sans';-inkscape-font-specification:'IBM Plex Sans, Bold'"
         id="path425" />
      <path
         d="m 155.04795,154.47775 -0.52916,-1.75683 h -2.46591 l -0.52917,1.75683 h -1.62982 l 2.43416,-7.38714 h 1.98966 l 2.4024,7.38714 z m -1.74624,-5.92665 h -0.0529 l -0.81491,2.80458 h 1.69333 z"
         style="font-weight:bold;font-family:'IBM Plex Sans';-inkscape-font-specification:'IBM Plex Sans, Bold'"
         id="path427" />
      <path
         d="m 160.13851,148.51935 v 5.9584 h -1.60866 v -5.9584 h -2.00024 v -1.42874 h 5.60915 v 1.42874 z"
         style="font-weight:bold;font-family:'IBM Plex Sans';-inkscape-font-specification:'IBM Plex Sans, Bold'"
         id="path429" />
      <path
         d="m 163.23941,154.47775 v -7.38714 h 1.60867 v 5.9584 h 2.81515 v 1.42874 z"
         style="font-weight:bold;font-family:'IBM Plex Sans';-inkscape-font-specification:'IBM Plex Sans, Bold'"
         id="path431" />
      <path
         d="m 173.57926,154.47775 -0.52916,-1.75683 h -2.46591 l -0.52916,1.75683 h -1.62983 l 2.43416,-7.38714 h 1.98966 l 2.40241,7.38714 z m -1.74624,-5.92665 h -0.0529 l -0.81491,2.80458 h 1.69333 z"
         style="font-weight:bold;font-family:'IBM Plex Sans';-inkscape-font-specification:'IBM Plex Sans, Bold'"
         id="path433" />
      <path
         d="M 177.88666,154.47775 H 176.278 v -7.38714 h 3.50308 q 0.50799,0 0.92074,0.16933 0.41275,0.16934 0.6985,0.48683 0.29633,0.30692 0.45508,0.74084 0.15875,0.43391 0.15875,0.96308 0,0.75141 -0.33866,1.31232 -0.32809,0.56092 -1.00542,0.81492 l 1.44991,2.89982 h -1.78857 l -1.29117,-2.70932 h -1.15358 z m 1.69333,-4.06398 q 0.35983,0 0.56092,-0.17992 0.21166,-0.1905 0.21166,-0.55033 v -0.46567 q 0,-0.35983 -0.21166,-0.53975 -0.20109,-0.19049 -0.56092,-0.19049 h -1.69333 v 1.92616 z"
         style="font-weight:bold;font-family:'IBM Plex Sans';-inkscape-font-specification:'IBM Plex Sans, Bold'"
         id="path435" />
      <path
         d="m 183.31589,150.09627 v -3.45016 h 1.397 v 3.45016 z m 2.38125,0 v -3.45016 h 1.39699 v 3.45016 z"
         style="font-weight:bold;font-family:'IBM Plex Sans';-inkscape-font-specification:'IBM Plex Sans, Bold'"
         id="path437" />
    </g>
  </g>
</svg>
