<?xml version="1.0" encoding="UTF-8" standalone="no"?>
<!-- Created with Inkscape (http://www.inkscape.org/) -->

<svg
   width="122.02987mm"
   height="88.162323mm"
   viewBox="0 0 122.02987 88.162323"
   version="1.1"
   id="svg5"
   xml:space="preserve"
   inkscape:version="1.2.2 (b0a84865, 2022-12-01)"
   sodipodi:docname="ambafrance grayscale.svg"
   xmlns:inkscape="http://www.inkscape.org/namespaces/inkscape"
   xmlns:sodipodi="http://sodipodi.sourceforge.net/DTD/sodipodi-0.dtd"
   xmlns="http://www.w3.org/2000/svg"
   xmlns:svg="http://www.w3.org/2000/svg"><sodipodi:namedview
     id="namedview7"
     pagecolor="#ffffff"
     bordercolor="#666666"
     borderopacity="1.0"
     inkscape:showpageshadow="2"
     inkscape:pageopacity="0.0"
     inkscape:pagecheckerboard="0"
     inkscape:deskcolor="#d1d1d1"
     inkscape:document-units="mm"
     showgrid="false"
     inkscape:zoom="1.1144846"
     inkscape:cx="242.71309"
     inkscape:cy="109.91628"
     inkscape:window-width="1680"
     inkscape:window-height="997"
     inkscape:window-x="0"
     inkscape:window-y="25"
     inkscape:window-maximized="1"
     inkscape:current-layer="layer1" /><defs
     id="defs2"><rect
       x="267.38818"
       y="690.00507"
       width="664.88135"
       height="375.06125"
       id="rect427" /></defs><g
     inkscape:label="Layer 1"
     inkscape:groupmode="layer"
     id="layer1"
     transform="translate(-52.669979,-180.53274)"><g
       id="g153"
       transform="matrix(0.80953389,0,0,0.80953389,52.669979,180.53274)"><path
         fill="#ffffff"
         d="M 0,0 H 44 V 16 H 0 Z"
         id="path132" /><path
         d="m 14.271,14.066 c 0.005,0 0.011,-0.008 0.011,-0.008 a 0.645,0.645 0 0 0 0.123,-0.118 0.016,0.016 0 0 1 -0.016,-0.008 c -0.037,0.039 -0.08,0.087 -0.117,0.134 m 5.909,-1.982 -0.093,0.08 c 0.053,-0.013 0.093,-0.027 0.093,-0.08"
         fill="#1f356c"
         id="path134" /><path
         d="m 18.27,14.109 c 0.171,-0.171 0.342,-0.353 0.514,-0.54 h -0.005 a 9.9,9.9 0 0 1 1.006,-1.029 3.332,3.332 0 0 1 0.327,-0.265 c 0.031,-0.031 0.031,-0.094 0.062,-0.119 -0.15,0.057 -0.239,0.182 -0.394,0.239 -0.031,0 -0.062,-0.031 -0.031,-0.062 0.109,-0.078 0.218,-0.161 0.322,-0.244 H 20.05 c -0.031,0 -0.031,-0.031 -0.031,-0.062 a 1.223,1.223 0 0 0 -0.965,0.452 c -0.062,0.031 -0.119,-0.031 -0.15,-0.031 -0.451,0.151 -0.783,0.545 -1.235,0.722 v -0.062 a 5.372,5.372 0 0 1 -0.545,0.213 3.105,3.105 0 0 1 -0.752,0.031 9.868,9.868 0 0 0 -1.095,0.2 c -0.01,0.005 -0.021,0.005 -0.031,0.01 a 2.271,2.271 0 0 0 -0.56,0.229 l -0.021,0.01 c -0.016,0.021 -0.031,0.036 -0.041,0.052 a 0.7,0.7 0 0 1 -0.207,0.182 3,3 0 0 0 -0.5,0.39 0.072,0.072 0 0 1 -0.047,0.016 c -0.161,0.156 -0.322,0.312 -0.488,0.462 A 0.158,0.158 0 0 1 13.289,14.913 0.00851469,0.00851469 0 0 0 13.3,14.9 l 0.016,-0.031 0.078,-0.125 c 0.031,-0.047 0.057,-0.094 0.088,-0.14 0.041,-0.062 0.083,-0.125 0.13,-0.182 a 0.031,0.031 0 0 0 0,-0.042 0.059,0.059 0 0 0 -0.041,-0.016 2.816,2.816 0 0 1 0.508,-0.379 V 13.98 c -0.021,0.005 -0.052,-0.01 -0.036,-0.031 a 0.728,0.728 0 0 0 0.052,-0.083 C 14.1,13.856 14.1,13.85 14.105,13.84 14.11,13.83 14.089,13.824 14.084,13.814 a 1.354,1.354 0 0 0 -0.14,0.1 c -0.073,0.062 -0.13,0.2 -0.239,0.2 a 0.178,0.178 0 0 1 -0.047,-0.005 0.044,0.044 0 0 1 -0.031,-0.01 c 0,-0.005 0,-0.005 0.005,-0.005 a 0.018,0.018 0 0 0 0.005,-0.01 0.005,0.005 0 0 1 0.005,-0.005 l 0.016,-0.026 0.016,-0.026 c 0.006,-0.01 0.005,-0.016 0.01,-0.021 a 0.309,0.309 0 0 0 0.021,-0.042 l 0.016,-0.026 c 0.006,-0.01 0.026,-0.047 0.041,-0.068 a 0.109,0.109 0 0 1 0.021,-0.031 c 0.01,-0.021 0.021,-0.036 0.031,-0.057 A 0.033,0.033 0 0 0 13.793,13.73 0.7,0.7 0 0 1 14,13.548 h -0.01 c 0.114,-0.057 0.233,-0.13 0.348,-0.192 a 0.2,0.2 0 0 1 0.052,-0.042 1.868,1.868 0 0 0 -0.477,0.239 0.235,0.235 0 0 0 -0.052,0.026 0.08,0.08 0 0 1 -0.073,-0.026 c -0.005,-0.005 -0.005,-0.01 -0.005,-0.021 0.031,-0.062 0.119,-0.088 0.182,-0.151 0.031,0 0.057,0 0.057,0.031 0.965,-0.753 2.293,-0.571 3.408,-0.966 0.088,-0.062 0.182,-0.119 0.27,-0.182 0.15,-0.062 0.27,-0.213 0.451,-0.3 a 1.342,1.342 0 0 0 0.514,-0.7 0.109,0.109 0 0 0 -0.031,-0.062 4.77,4.77 0 0 1 -1.328,1 5.6,5.6 0 0 1 -1.987,0.364 c 0.031,-0.062 0.093,-0.062 0.15,-0.062 0,-0.094 0.057,-0.119 0.119,-0.182 h 0.088 c 0.031,0 0.031,-0.062 0.062,-0.062 0.062,0 0.15,-0.031 0.119,-0.031 -0.093,-0.119 -0.27,0.088 -0.42,0 0.057,-0.062 0.031,-0.151 0.088,-0.182 h 0.119 a 0.2,0.2 0 0 1 0.062,-0.119 c 0.451,-0.27 0.877,-0.483 1.3,-0.722 -0.088,0 -0.15,0.094 -0.239,0.031 0.062,0 0,-0.088 0.062,-0.088 0.332,-0.088 0.6,-0.27 0.934,-0.395 -0.119,0 -0.213,0.094 -0.332,0 0.062,-0.031 0.088,-0.088 0.182,-0.088 v -0.088 c 0,-0.031 0.031,-0.031 0.062,-0.031 a 0.109,0.109 0 0 1 -0.062,-0.031 c 0.031,-0.062 0.119,-0.031 0.182,-0.088 -0.031,0 -0.088,0 -0.088,-0.031 a 0.6,0.6 0 0 1 0.389,-0.182 c -0.031,-0.062 -0.119,0 -0.119,-0.062 0,-0.031 0.031,-0.031 0.062,-0.031 h -0.062 c -0.062,-0.031 -0.031,-0.094 -0.031,-0.119 a 2.069,2.069 0 0 0 0.27,-0.722 c -0.031,0 -0.062,0 -0.062,-0.031 a 2.452,2.452 0 0 1 -1.235,0.571 h -0.15 A 0.6,0.6 0 0 1 16.255,9.79 2.421,2.421 0 0 1 15.955,9.551 3.721,3.721 0 0 0 15.203,9.187 6.78,6.78 0 0 0 12.884,8.855 a 4.889,4.889 0 0 1 1.053,-0.3 4.484,4.484 0 0 1 1.535,-0.3 0.974,0.974 0 0 0 -0.3,0 4.817,4.817 0 0 0 -1.3,0.182 c -0.3,0.062 -0.571,0.182 -0.877,0.239 -0.182,0.062 -0.27,0.239 -0.482,0.213 V 8.79 a 1.732,1.732 0 0 1 1.146,-0.753 5.689,5.689 0 0 1 1.6,0.062 7.521,7.521 0 0 1 1.146,0.213 c 0.15,0 0.182,0.239 0.3,0.27 0.182,0.062 0.363,0 0.545,0.119 0,-0.062 -0.031,-0.119 0,-0.182 C 17.369,8.4 17.52,8.55 17.639,8.488 17.883,8.337 17.426,8.067 17.307,7.854 a 0.109,0.109 0 0 1 0.031,-0.062 3.371,3.371 0 0 0 0.721,0.6 c 0.15,0.062 0.514,0.151 0.451,-0.031 a 4.675,4.675 0 0 0 -0.7,-0.9 V 7.34 c -0.062,0 -0.062,-0.031 -0.088,-0.062 V 7.158 C 17.603,7.096 17.629,6.976 17.572,6.888 17.479,6.737 17.541,6.524 17.479,6.343 A 3.07,3.07 0 0 1 17.36,5.829 C 17.267,5.315 17.147,4.863 17.09,4.38 17.028,3.809 17.422,3.351 17.69,2.842 a 2.592,2.592 0 0 1 0.846,-0.966 2.633,2.633 0 0 1 0.571,-0.966 2.506,2.506 0 0 1 0.929,-0.6 7.734,7.734 0 0 1 0.8,-0.306 H 0 v 15.991 h 14.784 a 13.507,13.507 0 0 1 1.95,-1.008 8.119,8.119 0 0 0 1.535,-0.878 m -4.638,-2.161 c -0.062,0 -0.182,0.031 -0.15,-0.031 0.031,-0.151 0.239,-0.151 0.363,-0.213 0.062,-0.031 0.15,-0.088 0.213,-0.062 0.062,0.088 0.15,0.062 0.213,0.119 -0.187,0.187 -0.425,0.094 -0.638,0.187 M 9.02,11.283 A 0.109,0.109 0 0 1 8.989,11.221 9.23,9.23 0 0 0 9.954,9.683 4.216,4.216 0 0 0 10.981,8.836 5.835,5.835 0 0 1 12.667,7.506 1.131,1.131 0 0 1 13.45,7.537 C 13.362,7.656 13.211,7.625 13.087,7.719 A 0.114,0.114 0 0 1 12.994,7.688 0.115,0.115 0 0 0 13.025,7.594 c -0.3,0.332 -0.721,0.483 -0.965,0.878 -0.182,0.3 -0.3,0.7 -0.69,0.784 -0.119,0.031 0.031,-0.088 -0.031,-0.062 A 10.317,10.317 0 0 0 9.02,11.282 m 2.5,-1.995 c -0.031,0.062 -0.062,0.068 -0.088,0.119 a 0.243,0.243 0 0 1 -0.119,0.119 c -0.031,0 -0.062,0 -0.062,-0.031 a 0.371,0.371 0 0 1 0.239,-0.27 c 0.031,0.005 0.031,0.036 0.031,0.062 m 1.4,4.525 a 0.387,0.387 0 0 1 -0.073,0.088 c 0.036,0.005 0.062,0.026 0.041,0.047 a 0.651,0.651 0 0 1 -0.228,0.161 0.4,0.4 0 0 1 -0.047,0.005 1.084,1.084 0 0 1 -0.114,0.1 c -0.036,0.031 -0.2,0.01 -0.15,-0.036 0.078,-0.068 0.15,-0.14 0.223,-0.213 0.041,-0.042 0.088,-0.078 0.124,-0.119 a 0.385,0.385 0 0 1 0.062,-0.068 c 0.026,-0.016 0.187,-0.031 0.161,0.031 m -0.539,-0.249 c -0.005,0 -0.005,0 -0.005,0.005 -0.114,0.078 -0.223,0.161 -0.342,0.229 -0.119,0.068 -0.265,0.13 -0.4,0.2 a 0.005,0.005 0 0 0 -0.005,-0.005 0.039,0.039 0 0 0 -0.052,-0.01 1.335,1.335 0 0 0 -0.3,0.234 0.158,0.158 0 0 0 -0.041,0.042 L 11.195,14.295 11.19,14.3 v 0.005 a 1.057,1.057 0 0 0 -0.067,0.073 c -0.016,0.016 -0.021,0.031 -0.041,0.042 -0.02,0.011 -0.073,0.01 -0.067,-0.021 v -0.005 a 0.242,0.242 0 0 1 -0.052,0.026 c -0.016,0.01 -0.031,0.016 -0.047,0.026 a 0.044,0.044 0 0 0 -0.041,0 c -0.036,0.031 -0.073,0.057 -0.109,0.094 a 2.023,2.023 0 0 0 -0.176,0.187 0.005,0.005 0 0 1 -0.005,0.005 c 0,0.005 -0.005,0.005 -0.005,0.01 l -0.01,0.01 c -0.005,0.005 -0.005,0.01 -0.01,0.01 l -0.005,0.005 a 0.109,0.109 0 0 1 -0.021,0.031 0.04,0.04 0 0 1 -0.026,0.01 c -0.005,-0.005 -0.01,-0.01 -0.01,-0.016 0,-0.006 -0.005,-0.01 -0.01,-0.016 -0.005,-0.006 -0.016,-0.031 -0.026,-0.047 v -0.005 c 0,-0.005 -0.005,-0.01 -0.005,-0.016 l 0.093,-0.109 0.005,-0.005 c 0.01,-0.01 0.021,-0.026 0.031,-0.036 0.01,-0.01 0.036,-0.042 0.052,-0.062 0.016,-0.02 0.01,-0.016 0.016,-0.026 0.031,-0.042 0.062,-0.083 0.093,-0.13 v -0.005 a 0.027,0.027 0 0 0 0.01,-0.021 0.433,0.433 0 0 0 0.041,-0.062 l 0.031,-0.062 v -0.005 l 0.005,-0.005 c 0,-0.005 0.005,-0.005 0.005,-0.01 l 0.031,-0.073 v -0.005 l 0.005,-0.021 c 0.005,-0.01 0.005,-0.021 0.01,-0.031 v -0.005 c 0.005,-0.016 0.005,-0.031 0.01,-0.047 a 0.031,0.031 0 0 0 -0.005,-0.021 0.861,0.861 0 0 1 0.119,-0.161 c -0.005,0 -0.01,0.005 -0.016,0.005 -0.041,0.026 -0.073,0.068 -0.114,0.1 -0.041,0.032 -0.093,-0.016 -0.052,-0.047 A 0.8,0.8 0 0 0 10.894,13.802 0.005,0.005 0 0 1 10.9,13.8 2.132,2.132 0 0 1 11.056,13.649 c 0.036,-0.026 0.062,-0.047 0.093,-0.073 0.005,-0.005 0.01,-0.01 0.016,-0.01 a 0.9,0.9 0 0 1 0.067,-0.078 0.005,0.005 0 0 0 0.005,-0.005 c 0.29,-0.281 0.773,-0.265 1.157,-0.442 0.15,-0.062 0.332,0.031 0.482,0 a 0.431,0.431 0 0 1 0.27,0.062 c -0.265,0.14 -0.514,0.306 -0.763,0.462 M 13,11.465 c -0.031,-0.031 0.093,0 0.119,-0.062 H 12.88 c -0.031,0 -0.031,-0.031 -0.031,-0.062 -0.15,0.031 -0.332,0.088 -0.482,0.119 -0.213,0.062 -0.394,0.213 -0.633,0.27 -0.332,0.119 -0.6,0.395 -0.965,0.514 -0.031,0 -0.031,-0.031 -0.031,-0.062 0.031,-0.088 0.15,-0.119 0.213,-0.213 0,-0.031 0,-0.062 -0.031,-0.062 a 5.063,5.063 0 0 1 0.877,-0.784 v -0.094 c 0.088,-0.119 0.239,-0.182 0.3,-0.332 a 0.541,0.541 0 0 1 0.3,-0.27 c -0.031,-0.031 -0.088,-0.031 -0.088,-0.088 -0.119,0 -0.244,0.062 -0.363,-0.031 a 0.432,0.432 0 0 1 0.187,-0.109 0.106,0.106 0 0 1 -0.067,-0.042 c -0.031,-0.062 0.057,-0.13 0.15,-0.151 A 0.792,0.792 0 0 0 12.579,9.887 C 12.366,9.856 12.128,9.949 11.915,9.825 a 1.631,1.631 0 0 1 0.752,-0.9 c 0.031,0 0.093,0 0.093,0.031 a 0.3,0.3 0 0 1 -0.244,0.3 3.263,3.263 0 0 1 0.721,0.182 C 13.206,9.5 13.149,9.469 13.118,9.469 13.268,9.557 13.45,9.5 13.6,9.62 c -0.093,0.088 -0.182,0 -0.27,0 a 7.876,7.876 0 0 1 2.715,1.08 8.308,8.308 0 0 1 -2.08,0.634 0.63,0.63 0 0 1 -0.239,-0.031 c 0,0.031 0,0.088 -0.031,0.088 a 0.479,0.479 0 0 0 -0.3,0.062 c -0.124,0.068 -0.306,0.1 -0.394,0.01"
         fill="#000091"
         id="path136"
         style="fill:#000000" /><path
         d="M 44,0.021 H 26.84 A 0.793,0.793 0 0 1 27,0.094 c 0.14,0.073 0.322,0.171 0.431,0.229 a 1.4,1.4 0 0 1 0.576,0.483 c 0.062,0.088 0.15,0.27 0.093,0.39 -0.062,0.151 -0.093,0.395 -0.244,0.452 A 1.084,1.084 0 0 1 27.223,1.71 1.521,1.521 0 0 1 26.86,1.648 2.477,2.477 0 0 1 28.038,2.464 c 0.031,0.062 0.15,0.088 0.27,0.088 0.031,0 0.031,0.062 0.031,0.088 -0.062,0.062 -0.119,0.094 -0.088,0.182 h 0.088 c 0.15,-0.062 0.119,-0.364 0.332,-0.27 A 0.337,0.337 0 0 1 28.79,3 a 2.722,2.722 0 0 1 -0.363,0.3 0.255,0.255 0 0 0 0,0.213 0.953,0.953 0 0 1 0.15,0.364 C 28.67,4.09 28.696,4.329 28.79,4.542 A 4.41,4.41 0 0 1 29,5.906 c 0,0.239 -0.119,0.452 -0.031,0.7 a 2.737,2.737 0 0 0 0.332,0.634 5.361,5.361 0 0 1 0.332,0.483 c 0.182,0.3 0.514,0.6 0.363,0.966 -0.088,0.213 -0.42,0.182 -0.633,0.3 -0.182,0.151 -0.031,0.395 0.062,0.545 0.15,0.27 -0.182,0.452 -0.394,0.545 0.062,0.094 0.182,0.062 0.213,0.119 0.031,0.151 0.182,0.239 0.088,0.395 -0.119,0.182 -0.482,0.27 -0.3,0.545 A 0.807,0.807 0 0 1 29,11.8 a 0.741,0.741 0 0 1 -0.545,0.452 1.187,1.187 0 0 1 -0.571,0.031 0.422,0.422 0 0 0 -0.182,-0.062 13.114,13.114 0 0 0 -1.535,-0.208 1.657,1.657 0 0 0 -0.42,0.119 2.435,2.435 0 0 0 -0.363,0.322 l -0.005,0.005 c -0.021,0.026 -0.047,0.047 -0.067,0.073 -0.02,0.026 -0.026,0.031 -0.036,0.047 -0.01,0.016 -0.016,0.021 -0.026,0.031 a 3.176,3.176 0 0 0 -0.239,0.348 0.072,0.072 0 0 1 -0.016,0.021 0.182,0.182 0 0 1 -0.026,0.042 2.989,2.989 0 0 0 -0.228,0.556 1.8,1.8 0 0 0 0.031,1.429 c 0.041,0.042 1,0.338 1.66,0.634 a 5.918,5.918 0 0 1 0.711,0.358 H 43.995 V 0.021 Z"
         fill="#e1000f"
         id="path138"
         style="fill:#000000" /><path
         d="m 27.862,5.844 c 0.119,0.031 0.3,0.031 0.3,0.094 -0.062,0.239 -0.42,0.3 -0.6,0.545 h -0.093 c -0.088,0.062 -0.062,0.213 -0.15,0.213 a 0.408,0.408 0 0 0 -0.27,0.031 0.515,0.515 0 0 0 0.451,0.182 c 0.031,0 0.088,0.062 0.088,0.119 A 0.1,0.1 0 0 0 27.649,7 c 0.031,0 0.062,0 0.062,0.031 V 7.15 c -0.088,0.119 -0.244,0.062 -0.363,0.088 a 1.314,1.314 0 0 0 0.7,0 c 0.182,-0.062 0,-0.364 0.119,-0.514 -0.062,0 0,-0.094 -0.062,-0.094 0.062,-0.062 0.119,-0.151 0.182,-0.182 a 0.213,0.213 0 0 0 0.182,-0.094 c 0,-0.062 -0.119,-0.088 -0.093,-0.151 0.182,-0.119 0.332,-0.3 0.27,-0.483 -0.031,-0.094 -0.27,-0.094 -0.42,-0.151 a 1.036,1.036 0 0 0 -0.514,0.031 2.9,2.9 0 0 0 -0.451,0.119 2.069,2.069 0 0 0 -0.571,0.3 4.751,4.751 0 0 1 0.664,-0.182 2.425,2.425 0 0 1 0.514,0.005"
         fill="#808080"
         id="path140" /></g><path
       fill="#1e1e1e"
       d="m 88.038947,264.71881 c 0.314366,0 0.585985,0.24283 0.442903,0.8015 l -1.443292,0.38591 c 0.228575,-0.68602 0.657229,-1.18741 1.000389,-1.18741 m 0.801499,2.34364 h -0.285868 c -0.356221,0.42866 -0.757268,0.77182 -1.143175,0.77182 -0.400156,0 -0.600233,-0.24283 -0.600233,-0.77182 a 3.1659208,3.1659208 0 0 1 0.07154,-0.64297 l 2.329394,-0.77182 c 0.457151,-1.08618 -0.08579,-1.55758 -0.72877,-1.55758 -1.100429,0 -2.357892,1.92953 -2.357892,3.47317 0,0.72877 0.342863,1.12803 0.886101,1.12803 0.628732,-0.0143 1.286258,-0.62873 1.829199,-1.62912 m -0.371653,-3.48682 1.329004,-1.21471 v -0.1701 h -0.886102 l -0.786063,1.3863 z m -4.973153,1.17167 h 0.771814 l -1.229856,3.37283 a 0.38887542,0.38887542 0 0 0 0.342271,0.57174 c 0.871852,0 1.914988,-0.74213 2.315441,-1.8007 h -0.214328 a 2.7904037,2.7904037 0 0 1 -1.513942,1.01463 l 1.128036,-3.1582 h 1.157721 l 0.142786,-0.48594 h -1.128036 l 0.428653,-1.21472 H 85.25359 l -0.801499,1.21472 -0.957346,0.12853 z m -0.801499,-0.15732 a 0.33781696,0.33781696 0 0 0 -0.271619,-0.48596 c -0.671775,0 -1.47179,0.60024 -1.800701,1.45755 h 0.214327 a 1.6555406,1.6555406 0 0 1 0.943097,-0.71453 l -1.285961,3.35888 a 0.33247364,0.33247364 0 0 0 0.271322,0.48595 c 0.642981,0 1.386298,-0.61449 1.714911,-1.45755 h -0.228575 a 1.6555406,1.6555406 0 0 1 -0.943097,0.71542 z m 0.128537,-1.34325 a 0.52750505,0.52750505 0 0 0 0.528693,-0.52871 0.5370043,0.5370043 0 0 0 -0.528693,-0.52868 0.52750505,0.52750505 0 0 0 -0.528692,0.52868 0.5370043,0.5370043 0 0 0 0.528692,0.52871 m -6.245161,1.78674 c 0.200078,0 0.314365,0.31437 0,1.00039 l -0.9146,2.02928 c -0.17158,0.3859 0.01425,0.62873 0.385908,0.62873 a 0.3859069,0.3859069 0 0 0 0.428356,-0.30012 l 0.900647,-2.37154 c 0.415593,-0.50021 1.187406,-1.04314 1.513943,-1.04314 0.242824,0 0.214326,0.20007 0.05729,0.50019 l -1.371751,2.64376 a 0.39006283,0.39006283 0 0 0 0.343457,0.57085 c 0.671775,0 1.471789,-0.60024 1.800702,-1.45755 H 79.50743 a 1.6555406,1.6555406 0 0 1 -0.943097,0.71542 l 1.187406,-2.3864 a 1.814653,1.814653 0 0 0 0.228576,-0.81574 0.58242257,0.58242257 0 0 0 -0.628732,-0.64298 c -0.585984,0 -1.086179,0.65723 -1.786451,1.4718 v -0.62874 c 0,-0.4429 -0.142786,-0.84306 -0.542942,-0.84306 -0.471697,0 -0.900351,0.72877 -1.228965,1.45755 h 0.214327 c 0.200077,-0.34287 0.400155,-0.5287 0.571735,-0.5287 m -0.928848,0.0858 c 0.157331,-0.54294 0.07155,-1.02888 -0.342864,-1.02888 -0.528692,0 -0.686023,0.35622 -1.214716,1.47178 v -0.62873 c 0,-0.44291 -0.142785,-0.84305 -0.542941,-0.84305 -0.471696,0 -0.900351,0.72876 -1.228965,1.45753 h 0.214327 c 0.228576,-0.32861 0.442902,-0.52869 0.614482,-0.52869 0.200078,0 0.314366,0.31436 0,1.00039 l -0.91727,2.02928 c -0.171581,0.3859 0.01425,0.62872 0.385906,0.62872 a 0.3859069,0.3859069 0 0 0 0.428654,-0.30011 l 0.901241,-2.37214 c 0.25737,-0.31437 0.485945,-0.58598 0.771814,-0.8861 z m -4.961576,-0.40016 c 0.314366,0 0.585986,0.24282 0.442904,0.8015 l -1.443293,0.38591 c 0.228576,-0.68602 0.65723,-1.18741 1.000389,-1.18741 m 0.801505,2.34365 h -0.285867 c -0.356222,0.42865 -0.757269,0.77181 -1.143176,0.77181 -0.400155,0 -0.600233,-0.24282 -0.600233,-0.77181 a 3.1659208,3.1659208 0 0 1 0.07154,-0.64298 l 2.329394,-0.77181 c 0.457151,-1.08618 -0.08579,-1.55758 -0.72877,-1.55758 -1.100429,0 -2.357892,1.92953 -2.357892,3.47316 0,0.72877 0.342864,1.12803 0.886102,1.12803 0.628732,-0.0143 1.286257,-0.62872 1.829199,-1.62912 m -5.343327,-2.31544 h 0.771522 l -1.228965,3.37253 a 0.38887542,0.38887542 0 0 0 0.341675,0.57233 c 0.871854,0 1.914989,-0.74213 2.315442,-1.80069 h -0.214327 a 2.7904037,2.7904037 0 0 1 -1.513942,1.01463 l 1.128036,-3.1582 h 1.15772 l 0.142785,-0.48595 h -1.128035 l 0.428654,-1.21472 h -0.444387 l -0.801499,1.21472 -0.954971,0.12884 v 0.35622 z m -4.08705,2.61527 c 0,-1.04315 1.157721,-2.44369 1.8007,-2.44369 a 1.1782034,1.1782034 0 0 1 0.400156,0.0573 l -0.671775,1.80069 c -0.385907,0.47171 -0.98614,1.04314 -1.271712,1.04314 -0.157331,0 -0.257369,-0.14279 -0.257369,-0.45715 m 3.544109,-3.45832 -0.356222,-0.0297 -0.400155,0.40015 h -0.07155 c -1.700663,0 -3.515316,2.11507 -3.515316,3.77269 a 0.58242257,0.58242257 0 0 0 0.626061,0.64446 c 0.500195,0 0.98614,-0.71452 1.529081,-1.47178 l -0.02969,0.27161 c -0.07154,0.77182 0.171581,1.20048 0.571735,1.20048 0.471697,0 0.900352,-0.72878 1.228965,-1.45755 H 64.97298 c -0.228576,0.32862 -0.442902,0.5287 -0.614482,0.5287 -0.17158,0 -0.300117,-0.31437 0,-1.0004 z m -3.631384,1.21501 c 0.157331,-0.54294 0.07154,-1.02888 -0.342864,-1.02888 -0.528691,0 -0.686023,0.35622 -1.214716,1.47179 v -0.62874 c 0,-0.44289 -0.142785,-0.84305 -0.54294,-0.84305 -0.471697,0 -0.900352,0.72877 -1.228965,1.45754 h 0.214326 c 0.228576,-0.32861 0.442902,-0.52869 0.600233,-0.52869 0.200078,0 0.314366,0.31436 0,1.00038 l -0.914599,2.04353 c -0.17158,0.3859 0.01425,0.62873 0.385907,0.62873 a 0.3859069,0.3859069 0 0 0 0.428659,-0.30011 l 0.900052,-2.37154 c 0.257371,-0.31438 0.485946,-0.58599 0.771815,-0.8861 h 0.943096 z m -5.973241,3.40104 0.08578,-0.25738 c -1.128036,-0.21432 -1.271712,-0.21432 -0.814561,-1.42904 l 0.415593,-1.14317 h 0.898866 c 0.55719,0 0.55719,0.24282 0.485945,0.85731 h 0.314366 l 0.742129,-2.02928 h -0.313475 c -0.271619,0.48595 -0.500195,0.8573 -1.100428,0.8573 h -0.900054 l 0.614483,-1.67186 c 0.214326,-0.60024 0.314365,-0.71452 1.086179,-0.71452 h 0.200078 c 0.786063,0 0.871853,0.21433 0.871853,1.04313 h 0.314365 l 0.25737,-1.38629 h -4.330469 l -0.08579,0.25677 c 0.900351,0.18583 0.986141,0.27163 0.571736,1.42905 l -0.928849,2.48762 c -0.428653,1.15771 -0.600233,1.2432 -1.62912,1.42903 l -0.08579,0.27133 z m 21.535683,-13.60441 c 0.314366,0 0.585986,0.24283 0.442903,0.78607 l -1.443292,0.3859 c 0.242825,-0.67178 0.671776,-1.17168 1.000389,-1.17168 m 0.801499,2.3294 H 78.05079 c -0.356222,0.42866 -0.757268,0.77182 -1.143175,0.77182 -0.400156,0 -0.600234,-0.24283 -0.600234,-0.77182 a 3.1659208,3.1659208 0 0 1 0.07155,-0.64298 l 2.343642,-0.77182 c 0.457151,-1.08618 -0.100045,-1.55757 -0.72877,-1.55757 -1.100428,0 -2.357891,1.92953 -2.357891,3.47316 0,0.72877 0.342863,1.12804 0.886102,1.12804 0.62873,0 1.286256,-0.61449 1.814949,-1.62913 m -0.371663,-3.47316 1.329004,-1.21472 v -0.17158 h -0.887289 l -0.786064,1.3863 z m -4.960983,1.17227 h 0.771815 l -1.228075,3.37253 a 0.38887542,0.38887542 0 0 0 0.342863,0.57174 c 0.871854,0 1.91499,-0.74213 2.315441,-1.8007 h -0.214326 a 2.7904037,2.7904037 0 0 1 -1.513943,1.01463 l 1.128036,-3.1582 h 1.157721 l 0.142786,-0.48594 h -1.128036 l 0.428653,-1.21472 h -0.444386 l -0.801499,1.21472 -0.957346,0.12853 v 0.35622 z m -0.801498,-0.17158 c 0.08578,-0.31436 -0.114288,-0.48594 -0.285868,-0.48594 -0.671775,0 -1.47179,0.61447 -1.800701,1.45753 h 0.216404 a 1.6555406,1.6555406 0 0 1 0.943098,-0.71452 l -1.285664,3.35857 a 0.33247364,0.33247364 0 0 0 0.271619,0.48596 c 0.64298,0 1.386296,-0.61449 1.714911,-1.45755 h -0.214326 a 1.6555406,1.6555406 0 0 1 -0.943098,0.71453 z m 0.128537,-1.32901 a 0.528695,0.528695 0 0 0 0,-1.05739 0.52750505,0.52750505 0 0 0 -0.528693,0.5287 0.5370043,0.5370043 0 0 0 0.528693,0.52869 m -4.12772,4.68729 2.129018,-5.65888 -0.07154,-0.0858 -1.472086,0.17158 v 0.17158 l 0.285868,0.21433 c 0.257369,0.20008 0.17158,0.38591 -0.0573,1.01464 l -1.628521,4.34353 a 0.39006283,0.39006283 0 0 0 0.342864,0.57174 c 0.671775,0 1.386296,-0.61449 1.714911,-1.45755 h -0.21433 a 1.9420023,1.9420023 0 0 1 -1.028886,0.71453 m -4.35867,-0.57085 c 0,-1.04313 1.157721,-2.44368 1.8007,-2.44368 a 1.2328242,1.2328242 0 0 1 0.400156,0.0573 l -0.670587,1.80012 c -0.385908,0.47169 -0.986141,1.04312 -1.257463,1.04312 -0.171581,0 -0.271619,-0.14278 -0.271619,-0.45715 m 3.544109,-3.45831 -0.356222,-0.0297 -0.402233,0.40104 h -0.07155 c -1.700662,0 -3.515314,2.11507 -3.515314,3.77269 a 0.58242257,0.58242257 0 0 0 0.62873,0.64298 c 0.500195,0 0.986141,-0.71453 1.529083,-1.4718 l -0.02969,0.27163 c -0.07154,0.77181 0.171581,1.20046 0.571736,1.20046 0.471697,0 0.90035,-0.72877 1.228965,-1.45753 h -0.214326 c -0.228576,0.32861 -0.442903,0.52868 -0.614483,0.52868 -0.17158,0 -0.300118,-0.31436 0,-1.00039 z m -8.24683,5.60188 c 0,-0.44289 0.428653,-0.72877 1.043136,-0.97188 a 6.3944774,6.3944774 0 0 0 0.914006,0.34256 c 0.64298,0.21433 0.886101,0.30012 0.886101,0.48595 0,0.41559 -0.585984,0.72876 -1.657618,0.72876 -0.801499,0 -1.187406,-0.17158 -1.187406,-0.58597 m 1.757657,-2.72956 c -0.285867,0 -0.385906,-0.24282 -0.385906,-0.50019 0,-0.82881 0.400155,-1.85769 1.043136,-1.85769 0.285868,0 0.385906,0.24282 0.385906,0.50019 -0.01425,0.84306 -0.415592,1.85769 -1.043136,1.85769 m 1.814951,2.31544 c 0,-0.54294 -0.485946,-0.72877 -1.271712,-0.97188 -0.671775,-0.20008 -0.971892,-0.25738 -0.971892,-0.48596 a 0.70858445,0.70858445 0 0 1 0.428653,-0.54293 1.9610008,1.9610008 0 0 0 1.814951,-1.92954 1.347112,1.347112 0 0 0 -0.07154,-0.42865 h 0.757268 l 0.145162,-0.48654 h -1.286852 a 1.1188332,1.1188332 0 0 0 -0.628732,-0.17158 1.9517984,1.9517984 0 0 0 -1.914988,1.92953 0.98881223,0.98881223 0 0 0 0.871852,1.05739 c -0.54294,0.25737 -0.857306,0.52869 -0.857306,0.87185 a 0.50227268,0.50227268 0 0 0 0.242824,0.45716 c -1.257463,0.37164 -1.771906,0.8288 -1.771906,1.38629 0,0.58598 0.771814,0.82881 1.671867,0.82881 1.55758,0.0143 2.843838,-0.81456 2.843838,-1.51395 m -5.800775,-3.41527 c 0.55719,0 0.571735,0.24282 0.485946,0.85731 H 57.71528 L 58.457409,254.701 H 58.14334 c -0.271619,0.48595 -0.500194,0.8573 -1.100429,0.8573 h -1.228965 l 0.600235,-1.67186 c 0.214326,-0.60024 0.314364,-0.71452 1.086179,-0.71452 h 0.542644 c 0.786063,0 0.871853,0.21433 0.871853,1.04313 h 0.315553 l 0.257371,-1.38629 h -4.659975 l -0.08579,0.25736 c 0.90035,0.18583 0.98614,0.27163 0.571735,1.42905 l -0.928848,2.50127 c -0.428653,1.15772 -0.600233,1.24321 -1.643369,1.42904 l -0.07154,0.27192 h 5.17323 l 0.928848,-1.4718 h -0.356221 c -0.600233,0.58599 -1.200468,1.12804 -2.37214,1.12804 -1.371751,0 -1.257463,-0.0716 -0.801499,-1.34325 l 0.428653,-1.14317 h 1.244105 z m 0.670884,-3.48682 1.329004,-0.95735 v -0.17158 h -0.885805 l -0.787547,1.14317 h 0.344348 z m 19.792274,-7.27375 c 0.314366,0 0.585986,0.24283 0.442902,0.78607 l -1.443291,0.38589 c 0.228575,-0.67177 0.657229,-1.17167 1.000389,-1.17167 m 0.801499,2.3294 h -0.285868 c -0.356222,0.42866 -0.757268,0.77182 -1.143175,0.77182 -0.400155,0 -0.600234,-0.24283 -0.600234,-0.77182 a 3.1659208,3.1659208 0 0 1 0.07155,-0.64298 l 2.329387,-0.77182 c 0.457152,-1.08618 -0.100034,-1.55757 -0.72877,-1.55757 -1.100428,0 -2.357891,1.92953 -2.357891,3.47316 0,0.72876 0.342864,1.11467 0.886101,1.11467 0.628732,0.0143 1.286258,-0.60023 1.8292,-1.61486 m -0.371659,-3.47317 1.32752,-1.21502 v -0.17158 h -0.885805 l -0.786062,1.38631 z m -4.97434,1.17138 h 0.771814 l -1.228965,3.37253 a 0.38887542,0.38887542 0 0 0 0.342864,0.57173 c 0.871852,0 1.914988,-0.74213 2.315441,-1.8007 h -0.214337 a 2.7904037,2.7904037 0 0 1 -1.513942,1.01464 l 1.128035,-3.1582 h 1.15772 l 0.142786,-0.48594 h -1.128036 l 0.428655,-1.21473 h -0.444388 l -0.801499,1.21473 -0.957345,0.12853 v 0.35622 z m -0.400156,0.37166 c 0.157331,-0.54295 0.07155,-1.02889 -0.342863,-1.02889 -0.528693,0 -0.686024,0.35622 -1.214717,1.47179 v -0.62873 c 0,-0.44291 -0.142785,-0.84306 -0.542941,-0.84306 -0.471696,0 -0.90035,0.72876 -1.228965,1.45754 h 0.214328 c 0.228575,-0.32862 0.442902,-0.5287 0.600233,-0.5287 0.200077,0 0.314366,0.31438 0,1.0004 l -0.914599,2.02927 c -0.17158,0.38591 0.01425,0.62874 0.385906,0.62874 a 0.3859069,0.3859069 0 0 0 0.428654,-0.30013 l 0.899757,-2.37273 c 0.257369,-0.31436 0.485946,-0.58598 0.771813,-0.8861 h 0.943098 z m -4.973152,-0.40016 c 0.314365,0 0.585985,0.24283 0.442902,0.78607 l -1.443291,0.38589 c 0.242824,-0.67177 0.657228,-1.17167 1.000389,-1.17167 m 0.801499,2.3294 H 67.97625 c -0.356222,0.42866 -0.757268,0.77182 -1.143176,0.77182 -0.400155,0 -0.600233,-0.24283 -0.600233,-0.77182 a 3.1659208,3.1659208 0 0 1 0.07154,-0.64298 l 2.329399,-0.77182 c 0.457151,-1.08618 -0.08579,-1.55757 -0.72877,-1.55757 -1.100429,0 -2.357892,1.92953 -2.357892,3.47316 0,0.72876 0.342864,1.11467 0.886102,1.11467 0.628731,0.0143 1.286257,-0.60023 1.829198,-1.61486 m -5.446333,0.9422 c -0.228575,0 -0.55719,-0.21432 -0.55719,-0.40015 a 4.5905111,4.5905111 0 0 1 0.228575,-0.64299 l 0.371658,-1.00039 c 0.400156,-0.48594 1.028887,-1.00038 1.371751,-1.00038 0.214327,0 0.371658,0.12853 0.371658,0.4429 0.01425,0.92885 -0.857307,2.60071 -1.786156,2.60071 m 2.600716,-2.95812 c 0,-0.68602 -0.171579,-0.9431 -0.657229,-0.9431 -0.600233,0 -1.15772,0.64298 -1.71491,1.41479 l 1.20017,-3.21519 -0.07124,-0.10008 -1.472087,0.17158 v 0.17039 l 0.285868,0.21433 c 0.257371,0.20008 0.17158,0.40016 -0.0573,1.01464 l -1.30021,3.40191 a 4.1211889,4.1211889 0 0 0 -0.242824,0.71454 c 0,0.40014 0.542941,0.78605 1.043136,0.78605 1.114678,0.0143 2.986623,-2.04352 2.986623,-3.62989 m -4.372919,-0.45687 c 0.08579,-0.31436 -0.114288,-0.48594 -0.285868,-0.48594 -0.671775,0 -1.47179,0.61449 -1.800701,1.45755 h 0.213436 a 1.6555406,1.6555406 0 0 1 0.943097,-0.71453 l -1.28507,3.35828 a 0.33306734,0.33306734 0 0 0 0.285868,0.48595 c 0.64298,0 1.386297,-0.61448 1.714911,-1.45755 h -0.214326 a 1.6555406,1.6555406 0 0 1 -0.943098,0.71423 z m 0.142786,-1.34325 a 0.5370043,0.5370043 0 0 0 0.528691,-0.52869 0.5370043,0.5370043 0 0 0 -0.528691,-0.52899 0.52750505,0.52750505 0 0 0 -0.528693,0.5287 0.51859951,0.51859951 0 0 0 0.528693,0.52869 m -3.28674,-0.62873 h -3.072413 l -0.08579,0.25737 c 0.90035,0.18583 0.986141,0.27162 0.571735,1.42904 l -0.928848,2.52947 c -0.428653,1.15772 -0.600233,1.24322 -1.62912,1.42905 L 52.67,248.89937 h 4.673036 l 1.014639,-1.8007 h -0.356222 c -0.585986,0.64297 -1.243214,1.45754 -2.285757,1.45754 -0.786063,0 -0.90035,-0.14278 -0.457151,-1.34325 l 0.914599,-2.51522 c 0.428653,-1.15773 0.600235,-1.24322 1.64337,-1.42905 z"
       id="path155"
       style="stroke-width:0.296851;fill:#000000" /><text
       xml:space="preserve"
       style="font-style:normal;font-weight:normal;font-size:10.5833px;line-height:1.03;font-family:sans-serif;fill:#000000;fill-opacity:1;stroke:none;stroke-width:0.264583"
       x="51.041904"
       y="222.92253"
       id="text423"><tspan
         sodipodi:role="line"
         id="tspan421"
         style="stroke-width:0.264583"
         x="51.041904"
         y="222.92253" /></text><text
       xml:space="preserve"
       transform="matrix(0.26458333,0,0,0.26458333,-18.356006,17.111412)"
       id="text425"
       style="font-style:normal;font-weight:normal;font-size:40px;line-height:1.03;font-family:sans-serif;letter-spacing:-0.32px;white-space:pre;shape-inside:url(#rect427);display:inline;fill:#000000;fill-opacity:1;stroke:none"><tspan
         x="267.38867"
         y="726.72586"
         id="tspan327"><tspan
           style="font-weight:500;font-size:48px;font-family:Marianne;-inkscape-font-specification:'Marianne, Medium'"
           id="tspan325">AMBASSADE
</tspan></tspan><tspan
         x="267.38867"
         y="776.16586"
         id="tspan331"><tspan
           style="font-weight:500;font-size:48px;font-family:Marianne;-inkscape-font-specification:'Marianne, Medium'"
           id="tspan329">DE FRANCE
</tspan></tspan><tspan
         x="267.38867"
         y="825.60586"
         id="tspan335"><tspan
           style="font-weight:500;font-size:48px;font-family:Marianne;-inkscape-font-specification:'Marianne, Medium'"
           id="tspan333">AU TURKMÉNISTAN</tspan></tspan></text></g></svg>
