<?xml version="1.0" encoding="UTF-8" standalone="no"?>
<svg
   viewBox="0 0 294.54 42.45"
   version="1.1"
   id="svg62"
   sodipodi:docname="bakybereket.svg"
   inkscape:version="1.2.2 (b0a84865, 2022-12-01)"
   xmlns:inkscape="http://www.inkscape.org/namespaces/inkscape"
   xmlns:sodipodi="http://sodipodi.sourceforge.net/DTD/sodipodi-0.dtd"
   xmlns="http://www.w3.org/2000/svg"
   xmlns:svg="http://www.w3.org/2000/svg">
  <sodipodi:namedview
     id="namedview64"
     pagecolor="#ffffff"
     bordercolor="#666666"
     borderopacity="1.0"
     inkscape:showpageshadow="2"
     inkscape:pageopacity="0.0"
     inkscape:pagecheckerboard="0"
     inkscape:deskcolor="#d1d1d1"
     showgrid="false"
     inkscape:zoom="4.1047055"
     inkscape:cx="138.13415"
     inkscape:cy="21.195187"
     inkscape:window-width="1309"
     inkscape:window-height="456"
     inkscape:window-x="1796"
     inkscape:window-y="327"
     inkscape:window-maximized="0"
     inkscape:current-layer="svg62" />
  <defs
     id="defs4">
    <style
       id="style2">.cls-1{fill:#7e9bff;}.cls-2{fill:#353535;}</style>
  </defs>
  <g
     id="Layer_2"
     data-name="Layer 2"
     style="fill:#000000">
    <g
       id="Layer_1-2"
       data-name="Layer 1"
       style="fill:#000000">
      <path
         class="cls-1"
         d="M50.42,42.43c-1.27,0-2.52,0-3.78,0s-2.42-.06-3.63-.1c-1.06,0-2.11-.15-3.18-.22A21.19,21.19,0,0,0,36,42c-.41.05-.81,0-1.23.06-1,.06-2,.09-3,.16-.32,0-.63,0-1,0H19.61a17.55,17.55,0,0,1-1.78-.15l-2-.18c-1.16-.08-2.31-.29-3.47-.47a25.33,25.33,0,0,1-3.63-.9,15.67,15.67,0,0,1-2.93-1.32,27.59,27.59,0,0,1-2.35-1.51A9,9,0,0,1,.9,34.82a7.32,7.32,0,0,1-.81-2.25A12.4,12.4,0,0,1,0,30.74a10.12,10.12,0,0,1,.23-2A7.55,7.55,0,0,1,1,26.59a6.23,6.23,0,0,1,1.56-2.2A13.4,13.4,0,0,1,5,22.6a26.85,26.85,0,0,1,3.08-1.31,25.91,25.91,0,0,1,4-1.17l2.56-.55c.12,0,.33,0,.32-.16s-.2-.11-.32-.13c-1.49-.31-3-.6-4.45-1a16,16,0,0,1-3.5-1.24A10.34,10.34,0,0,1,4.57,15.5c-.25-.22-.48-.46-.72-.7A5.12,5.12,0,0,1,2.51,12a7.74,7.74,0,0,1,.05-2.45A7.68,7.68,0,0,1,3.94,6.23,12.13,12.13,0,0,1,6.18,4,9.78,9.78,0,0,1,8,2.93c.62-.34,1.29-.61,1.93-.9a12.16,12.16,0,0,1,1.43-.51c1-.32,2-.56,3-.81.44-.11.9-.15,1.35-.22s.82-.11,1.23-.16,1-.14,1.56-.19C19.37.06,20.26.09,21.14,0c1.08-.08,2.16,0,3.24,0a11.54,11.54,0,0,1,1.95.1c.58.09,1.17.11,1.75.22s1.4.17,2.1.34,1.67.36,2.48.62a21.92,21.92,0,0,1,2.6.85c.57.27,1.16.53,1.71.85a1.1,1.1,0,0,0,1.15,0c.54-.27,1.07-.53,1.62-.76.73-.32,1.49-.52,2.24-.78s1.23-.37,1.85-.54A17.48,17.48,0,0,1,46,.54c.89-.12,1.78-.25,2.68-.31C51.12.06,53.58.15,56,.16a18.88,18.88,0,0,1,2.79.3c1.1.16,2.17.42,3.25.68.78.18,1.54.49,2.32.72A13.39,13.39,0,0,1,67.17,3a12.5,12.5,0,0,1,2.57,1.77,9.42,9.42,0,0,1,1.9,2.32,7.59,7.59,0,0,1,.88,2.66,8.93,8.93,0,0,1,.1,1.15,5.58,5.58,0,0,1-1.15,3.64,9.09,9.09,0,0,1-2.66,2.28l-.8.44a13.65,13.65,0,0,1-3.29,1.08c-1.45.34-2.9.66-4.35,1,0,0-.12,0-.14.09s.07.1.13.12a7.06,7.06,0,0,0,1.37.35c1.15.26,2.31.48,3.45.8.89.24,1.74.6,2.6.92.69.25,1.37.53,2,.79a6,6,0,0,1,1.9,1.21,8.59,8.59,0,0,1,2.07,2.3,9.81,9.81,0,0,1,.7,1.37A10.48,10.48,0,0,1,75,29.06a15.9,15.9,0,0,1,.2,1.81,6.49,6.49,0,0,1-.27,2c-.12.43-.22.87-.38,1.29a8.23,8.23,0,0,1-1.45,2.32,13,13,0,0,1-3.23,2.49A22.88,22.88,0,0,1,67,40.37a18.57,18.57,0,0,1-3.19,1c-1.1.29-2.25.43-3.37.62-.42.07-.87.08-1.3.12l-2.46.19-.74,0C54.07,42.4,52.24,42.48,50.42,42.43ZM35,40a2.08,2.08,0,0,1-.88-.22c-.88-.29-1.78-.53-2.64-.89a18.63,18.63,0,0,1-4.29-2.4A15.33,15.33,0,0,1,22.61,31c-.3-.62-.52-1.27-.78-1.9a7.25,7.25,0,0,1-.43-1.18c-.16-.69-.27-1.41-.45-2.09a25.67,25.67,0,0,1-.39-2.61c-.08-.64-.17-1.27-.22-1.92s-.12-1.21-.18-1.82-.1-1.06-.15-1.58-.11-1.06-.15-1.59-.1-1.1-.16-1.66l-.18-1.82c-.05-.49-.05-1-.12-1.46-.16-1-.17-2-.32-3C19,7.73,19,7.1,18.9,6.47s-.12-1.38-.21-2.07-.1-1.2-.15-1.8q0-.44.39-.42a.74.74,0,0,1,.35.1l1.82.92c1,.5,2,1,3,1.5s2.05,1.08,3.12,1.55a1,1,0,0,1,.7.91c0,.62.15,1.24.22,1.86.05.38.06.77.14,1.14.13.66.14,1.33.26,2,.06.37.06.76.13,1.14.13.75.19,1.52.29,2.27s.17,1.23.23,1.84a2.24,2.24,0,0,0,.1.68s0,.11.07.11.07-.07.08-.12c.1-.51.11-1,.18-1.56.08-.71.16-1.42.28-2.13a11.57,11.57,0,0,1,.77-2.62A24.3,24.3,0,0,1,32,9a20.64,20.64,0,0,1,1.85-2.52c.28-.33.57-.67.85-1,.08-.09.14-.2,0-.3a17.39,17.39,0,0,0-1.56-1,20.13,20.13,0,0,0-4-1.63A20.76,20.76,0,0,0,26.55,2C26,1.9,25.5,1.78,25,1.7c-.88-.13-1.76,0-2.64-.1a6.47,6.47,0,0,0-.76,0A11.83,11.83,0,0,0,18.31,2a6.39,6.39,0,0,0-1.61.49,8.58,8.58,0,0,0-1.83,1.22A7.63,7.63,0,0,0,13.22,5.8a11.19,11.19,0,0,0-.66,2,11.11,11.11,0,0,0-.21,1.52,7.83,7.83,0,0,0,.14,2.51,16.4,16.4,0,0,0,.7,2.26,8.25,8.25,0,0,0,1.19,2.08,9.94,9.94,0,0,0,1.76,1.73,2.92,2.92,0,0,0,1.35.7,2.22,2.22,0,0,1,.68.25.81.81,0,0,1,.22,1.25,1.44,1.44,0,0,1-.79.5c-.4.1-.79.22-1.18.34a20.1,20.1,0,0,0-2.72.89,5.58,5.58,0,0,0-1.88,1.4,7.17,7.17,0,0,0-1.53,3.64,9,9,0,0,0-.11,2.69,11.37,11.37,0,0,0,.19,1.54,14.81,14.81,0,0,0,1.93,4.62,9.27,9.27,0,0,0,2.41,2.62,10.92,10.92,0,0,0,3.22,1.56c.69.19,1.38.35,2.07.49a26.39,26.39,0,0,0,2.78.35,19.41,19.41,0,0,0,2,0c.73,0,1.45,0,2.17,0s1.42,0,2.13,0c1.27-.07,2.54-.12,3.81-.13.25,0,.5,0,.75,0a.21.21,0,0,0,.21-.1c.15-.39.5-.4.84-.44C34.82,40.05,34.94,40.09,35,40Zm5.6-.09a.64.64,0,0,1,0,.07,1.39,1.39,0,0,1,.78.55c0,.07.14,0,.21.07a9.78,9.78,0,0,0,1.95.12c1.21,0,2.41.05,3.61.12.45,0,.89,0,1.33,0a11.24,11.24,0,0,0,1.74,0c.63,0,1.25-.14,1.88-.18s1.25-.08,1.87-.17a18.56,18.56,0,0,0,3.14-.62,11.69,11.69,0,0,0,4-2.14,7.55,7.55,0,0,0,1.57-1.67,16.82,16.82,0,0,0,1.45-3c.18-.46.25-.95.4-1.41a9.25,9.25,0,0,0,.4-2.33,12.2,12.2,0,0,0-.3-3.46,4.56,4.56,0,0,0-.14-.64,6.9,6.9,0,0,0-2.22-2.92,4.68,4.68,0,0,0-1.23-.74c-.69-.24-1.4-.43-2.1-.62a8.53,8.53,0,0,1-2-.63.84.84,0,0,1,0-1.52A4.49,4.49,0,0,1,58,18.43a4.71,4.71,0,0,0,1.37-.75,12.69,12.69,0,0,0,1-1.09,9.08,9.08,0,0,0,1.78-3A10,10,0,0,0,62.74,11a12.37,12.37,0,0,0-.22-3.38,7.08,7.08,0,0,0-2.09-3.71,7.68,7.68,0,0,0-2.92-1.61,21.06,21.06,0,0,0-2.23-.48,12.56,12.56,0,0,0-2.59-.19l-1.6.06c-.77.07-1.54.16-2.31.25a18.71,18.71,0,0,0-2.12.51c-.45.12-.88.3-1.34.42A13.68,13.68,0,0,0,42.5,4c-.67.36-1.3.79-2,1.11-.26.12-.28.17-.07.35a11,11,0,0,1,1.91,2.27,12.07,12.07,0,0,1,1,1.34c.36.75.68,1.52,1,2.27A16,16,0,0,1,45.57,16c.1.81.08,1.63.14,2.44,0,.07,0,.18.07.19s.08-.11.09-.18c.05-.46.11-.94.16-1.41s.15-1.23.22-1.84c.12-1,.26-2,.36-3,.07-.66.15-1.32.22-2,.12-1,.26-2,.37-3.07a.71.71,0,0,1,.48-.7c.73-.3,1.42-.72,2.14-1.07,1-.48,2-1,3-1.52s2-1,3-1.54a.6.6,0,0,1,.54,0,.32.32,0,0,1,.19.37c-.1.72-.14,1.45-.2,2.17-.12,1.25-.27,2.51-.38,3.77-.07.79-.16,1.58-.21,2.37-.07,1-.19,1.92-.29,2.87-.06.59-.1,1.19-.16,1.79-.07.81-.16,1.62-.23,2.44-.06.56-.1,1.12-.16,1.68-.09,1-.19,1.93-.28,2.91-.06.65-.15,1.3-.19,1.95s-.22,1.13-.29,1.68a14.52,14.52,0,0,1-.92,3.31,19.41,19.41,0,0,1-1.35,2.5A10,10,0,0,1,50.7,34a17.75,17.75,0,0,1-5.13,4.07,21.05,21.05,0,0,1-4,1.59A5.5,5.5,0,0,0,40.63,39.88ZM44.11,21c0-.29,0-.68,0-1.07a13.42,13.42,0,0,0-.46-2.53,16,16,0,0,0-1.38-3.51,17.49,17.49,0,0,0-1.15-2.08,29,29,0,0,0-3.3-4c-.23-.24-.23-.24-.46,0s-.29.29-.43.45a21.46,21.46,0,0,0-2.55,3.17,24.37,24.37,0,0,0-2.59,5.15,12.83,12.83,0,0,0-.59,2.65c-.06.49,0,1-.08,1.44s0,1,0,1.45a6.88,6.88,0,0,0,.18,1.18A8.93,8.93,0,0,0,32,25.74a19.14,19.14,0,0,0,1,1.83,10.78,10.78,0,0,0,1.9,2.61A3.43,3.43,0,0,1,36,32.38c0,.38-.18.65-.55.58a1.37,1.37,0,0,1-.71-.4,14.41,14.41,0,0,1-1-1.44,22.27,22.27,0,0,1-1.43-1.78,13.72,13.72,0,0,1-1.44-2.7c-.14-.41-.28-.81-.43-1.21,0-.07,0-.19-.15-.15s-.05.13,0,.2l.27,2.28a24.7,24.7,0,0,0,1,4.58,16,16,0,0,0,1,2.34A9.13,9.13,0,0,0,35,37.85c.19.16.45.22.64.39a7.53,7.53,0,0,0,1.78,1,.32.32,0,0,0,.3,0A13.72,13.72,0,0,0,40,38a7.36,7.36,0,0,0,1.78-1.74,14.61,14.61,0,0,0,1.81-3.88A33.59,33.59,0,0,0,44.67,28c.16-.86.22-1.75.33-2.63,0-.06,0-.14,0-.16s-.1.08-.12.13c-.11.33-.2.68-.33,1a15.34,15.34,0,0,1-2.23,3.86A17.2,17.2,0,0,0,41,31.91a2.09,2.09,0,0,1-1.18,1c-.31.08-.52,0-.52-.36a2.93,2.93,0,0,1,.81-2.07,13.39,13.39,0,0,0,1.41-1.7,18,18,0,0,0,2.33-4.71,6.09,6.09,0,0,0,.3-1.63A14,14,0,0,0,44.11,21Z"
         id="path6"
         style="fill:#000000" />
      <path
         class="cls-1"
         d="M88.62,24V5.27h8.15q3.92,0,5.57,1.57a4.76,4.76,0,0,1,1.43,3.64,3.94,3.94,0,0,1-.79,2.57,3.47,3.47,0,0,1-1.62,1.15l0,.17a4.59,4.59,0,0,1,2,1.12,4.37,4.37,0,0,1,1.37,3.25,4.63,4.63,0,0,1-1.76,3.78A7.41,7.41,0,0,1,98.11,24Zm6.27-14.2v2.69H96A1.76,1.76,0,0,0,97.24,12a1.3,1.3,0,0,0,.37-1,1.23,1.23,0,0,0-.42-1A2,2,0,0,0,96,9.75Zm0,6.61v3.08h1.37a2.71,2.71,0,0,0,1.43-.31,1.4,1.4,0,0,0,.64-1.26,1.36,1.36,0,0,0-.5-1.12,2.32,2.32,0,0,0-1.48-.39Z"
         id="path8"
         style="fill:#000000" />
      <path
         class="cls-1"
         d="M118.52,21.62h-5.16l-.5,2.33h-7.17l6.47-18.68h7.5L126.33,24h-7.2Zm-2-8a18.26,18.26,0,0,1-.36-2.1h-.25a9.88,9.88,0,0,1-.31,2.1l-.93,3.59h2.72Z"
         id="path10"
         style="fill:#000000" />
      <path
         class="cls-1"
         d="M134.71,24h-6.5V5.27h6.5v5.8a18.68,18.68,0,0,1-.14,2.35h.14a14.54,14.54,0,0,1,1-2.1l3.22-6.05h7.33l-5.82,9.16L146.86,24H139l-3.42-6a14.69,14.69,0,0,1-.89-1.79h-.14a10.77,10.77,0,0,1,.14,1.77Z"
         id="path12"
         style="fill:#000000" />
      <path
         class="cls-1"
         d="M153.36,15.91,146.87,5.27h7.67l1.59,3.42a10,10,0,0,1,.51,1.48h.19a13.24,13.24,0,0,1,.51-1.48l1.45-3.42h7.65l-6.39,10.64v8h-6.69Z"
         id="path14"
         style="fill:#000000" />
      <path
         class="cls-1"
         d="M174.64,24V5.27h8.15q3.92,0,5.57,1.57a4.76,4.76,0,0,1,1.43,3.64,4,4,0,0,1-.78,2.57,3.5,3.5,0,0,1-1.63,1.15l0,.17a4.53,4.53,0,0,1,2,1.12,4.38,4.38,0,0,1,1.38,3.25,4.61,4.61,0,0,1-1.77,3.78A7.39,7.39,0,0,1,184.13,24Zm6.27-14.2v2.69H182a1.76,1.76,0,0,0,1.29-.42,1.33,1.33,0,0,0,.36-1,1.23,1.23,0,0,0-.42-1A2,2,0,0,0,182,9.75Zm0,6.61v3.08h1.38a2.67,2.67,0,0,0,1.42-.31,1.41,1.41,0,0,0,.65-1.26,1.37,1.37,0,0,0-.51-1.12,2.3,2.3,0,0,0-1.48-.39Z"
         id="path16"
         style="fill:#000000" />
      <path
         class="cls-1"
         d="M206.36,24H193.59V5.27h12.6v5.12h-5.82v1.74h5.29V17h-5.29v1.79h6Z"
         id="path18"
         style="fill:#000000" />
      <path
         class="cls-1"
         d="M215.87,24h-6.61V5.27h8.43a11.58,11.58,0,0,1,3.16.39A5.88,5.88,0,0,1,223.4,7.2a6.24,6.24,0,0,1,1.76,4.59,5.09,5.09,0,0,1-1,3.34,4.3,4.3,0,0,1-2.58,1.48v.17a2.39,2.39,0,0,1,1,.87l4.2,6.3h-7.81l-2.69-5.46-.11-.2a3,3,0,0,1-.14-.39l-.11.05Zm0-13.56v3.2h.78a2.11,2.11,0,0,0,1.43-.42,1.45,1.45,0,0,0,.47-1.15,1.59,1.59,0,0,0-.36-1.12,1.46,1.46,0,0,0-1.15-.51Z"
         id="path20"
         style="fill:#000000" />
      <path
         class="cls-1"
         d="M241.93,24H229.17V5.27h12.6v5.12h-5.83v1.74h5.29V17h-5.29v1.79h6Z"
         id="path22"
         style="fill:#000000" />
      <path
         class="cls-1"
         d="M251.33,24h-6.5V5.27h6.5v5.8a18.68,18.68,0,0,1-.14,2.35h.14a14.54,14.54,0,0,1,1-2.1l3.22-6.05h7.34L257,14.43,263.48,24h-7.84l-3.41-6a13.16,13.16,0,0,1-.9-1.79h-.14a10.77,10.77,0,0,1,.14,1.77Z"
         id="path24"
         style="fill:#000000" />
      <path
         class="cls-1"
         d="M278.33,24H265.56V5.27h12.6v5.12h-5.82v1.74h5.29V17h-5.29v1.79h6Z"
         id="path26"
         style="fill:#000000" />
      <path
         class="cls-1"
         d="M290.73,24h-6.66V11.18l-3.81.17V5.27h14.28v6.08l-3.81-.17Z"
         id="path28"
         style="fill:#000000" />
      <path
         class="cls-2"
         d="M89.43,27.31v3H93.2v-3H94v7.34H93.2V31.06H89.43v3.59h-.81V27.31Z"
         id="path30"
         style="fill:#000000" />
      <path
         class="cls-2"
         d="M96.5,30.08v2.66a1.61,1.61,0,0,0,.22,1,1,1,0,0,0,.81.36.94.94,0,0,0,.8-.36,1.61,1.61,0,0,0,.22-1V30.08h.79v2.75a2,2,0,0,1-.42,1.38,2,2,0,0,1-2.79,0,2,2,0,0,1-.42-1.38V30.08Z"
         id="path32"
         style="fill:#000000" />
      <path
         class="cls-2"
         d="M103.37,30.79l-.65.35a.66.66,0,0,0-.64-.47.63.63,0,0,0-.4.14.46.46,0,0,0-.15.38.44.44,0,0,0,.14.35,2.92,2.92,0,0,0,.6.3,3,3,0,0,1,1.14.7,1.15,1.15,0,0,1,.24.74,1.41,1.41,0,0,1-.45,1.1,1.57,1.57,0,0,1-1.12.4l-.29,0a3.34,3.34,0,0,1-.42-.11,1.33,1.33,0,0,1-.51-.37,1.76,1.76,0,0,1-.38-.66l.69-.28a1,1,0,0,0,.92.75.67.67,0,0,0,.55-.23.72.72,0,0,0,.2-.5.76.76,0,0,0,0-.27.41.41,0,0,0-.17-.2,1.43,1.43,0,0,0-.22-.15l-.3-.14a3.3,3.3,0,0,1-1.11-.67,1.05,1.05,0,0,1-.21-.67,1.24,1.24,0,0,1,.36-.94,1.38,1.38,0,0,1,1-.34A1.3,1.3,0,0,1,103.37,30.79Z"
         id="path34"
         style="fill:#000000" />
      <path
         class="cls-2"
         d="M105.5,30.08v2.66a1.61,1.61,0,0,0,.22,1,.94.94,0,0,0,.8.36,1,1,0,0,0,.81-.36,1.68,1.68,0,0,0,.22-1V30.08h.79v2.75a2,2,0,0,1-.42,1.38,1.83,1.83,0,0,1-1.4.57,1.81,1.81,0,0,1-1.39-.57,2,2,0,0,1-.42-1.38V30.08Z"
         id="path36"
         style="fill:#000000" />
      <path
         class="cls-2"
         d="M112.37,30.79l-.65.35a.66.66,0,0,0-.64-.47.61.61,0,0,0-.4.14.46.46,0,0,0-.15.38.44.44,0,0,0,.14.35,2.67,2.67,0,0,0,.6.3,3,3,0,0,1,1.14.7,1.15,1.15,0,0,1,.24.74,1.41,1.41,0,0,1-.45,1.1,1.59,1.59,0,0,1-1.12.4l-.29,0a3.89,3.89,0,0,1-.43-.11,1.38,1.38,0,0,1-.5-.37,1.76,1.76,0,0,1-.38-.66l.68-.28a1,1,0,0,0,.93.75.67.67,0,0,0,.55-.23.72.72,0,0,0,.2-.5.6.6,0,0,0-.06-.27.39.39,0,0,0-.16-.2l-.22-.15-.3-.14a3.19,3.19,0,0,1-1.11-.67,1.05,1.05,0,0,1-.21-.67,1.24,1.24,0,0,1,.36-.94,1.38,1.38,0,0,1,1-.34A1.3,1.3,0,0,1,112.37,30.79Z"
         id="path38"
         style="fill:#000000" />
      <path
         class="cls-2"
         d="M113.69,37.18l1.46-3L113,30.08H114l1.61,3.27,1.49-3.27h.88l-3.36,7.1Z"
         id="path40"
         style="fill:#000000" />
      <path
         class="cls-2"
         d="M122.35,27.31v3.14l3.13-3.14h1.1l-3.44,3.42,3.55,3.92h-1.13l-3-3.37-.21.21v3.16h-.81V27.31Z"
         id="path42"
         style="fill:#000000" />
      <path
         class="cls-2"
         d="M130.63,30.73v-.65h.79v4.57h-.79V34a1.88,1.88,0,0,1-1.56.77,2.17,2.17,0,0,1-1.58-.64,2.74,2.74,0,0,1,0-3.53,2.17,2.17,0,0,1,1.59-.64A1.84,1.84,0,0,1,130.63,30.73Zm-1.47-.06a1.44,1.44,0,0,0-1.07.45,1.7,1.7,0,0,0-.43,1.24,1.87,1.87,0,0,0,.4,1.24,1.48,1.48,0,0,0,2.2,0,1.8,1.8,0,0,0,.42-1.21,1.67,1.67,0,0,0-.47-1.26A1.49,1.49,0,0,0,129.16,30.67ZM128,29a.54.54,0,1,1,.77-.77.52.52,0,0,1,.16.38.55.55,0,0,1-.55.55A.52.52,0,0,1,128,29Zm1.91,0a.53.53,0,0,1-.16-.39.52.52,0,0,1,.16-.38.54.54,0,0,1,.39-.17.52.52,0,0,1,.38.17.52.52,0,0,1,0,.77.51.51,0,0,1-.38.16A.53.53,0,0,1,129.89,29Z"
         id="path44"
         style="fill:#000000" />
      <path
         class="cls-2"
         d="M132.93,34.65V30.08h.79v.49a1.17,1.17,0,0,1,1-.6,1.54,1.54,0,0,1,.71.19l-.38.71a.79.79,0,0,0-.46-.15A.76.76,0,0,0,134,31a2.22,2.22,0,0,0-.26,1.24v2.41Z"
         id="path46"
         style="fill:#000000" />
      <path
         class="cls-2"
         d="M136.18,34.65v-8h.8v4a1.53,1.53,0,0,1,1.31-.64,1.49,1.49,0,0,1,1.31.63,2.23,2.23,0,0,1,.26,1.22v2.83h-.79V31.84a1.41,1.41,0,0,0-.21-.84.89.89,0,0,0-.75-.33,1,1,0,0,0-.8.36,1.85,1.85,0,0,0-.33,1.23v2.39Z"
         id="path48"
         style="fill:#000000" />
      <path
         class="cls-2"
         d="M144.85,30.73v-.65h.8v4.57h-.8V34a1.87,1.87,0,0,1-1.56.77,2.13,2.13,0,0,1-1.57-.64,2.74,2.74,0,0,1,0-3.53,2.15,2.15,0,0,1,1.58-.64A1.84,1.84,0,0,1,144.85,30.73Zm-1.47-.06a1.44,1.44,0,0,0-1.07.45,1.7,1.7,0,0,0-.43,1.24,1.87,1.87,0,0,0,.4,1.24,1.37,1.37,0,0,0,1.1.48,1.35,1.35,0,0,0,1.1-.5,1.8,1.8,0,0,0,.42-1.21,1.71,1.71,0,0,0-.46-1.26A1.51,1.51,0,0,0,143.38,30.67Z"
         id="path50"
         style="fill:#000000" />
      <path
         class="cls-2"
         d="M147.15,34.65V30.08h.79v.53a1.55,1.55,0,0,1,1.31-.64,1.48,1.48,0,0,1,1.31.63,2.15,2.15,0,0,1,.26,1.22v2.83H150V31.84a1.41,1.41,0,0,0-.21-.84.89.89,0,0,0-.75-.33,1,1,0,0,0-.8.36,1.85,1.85,0,0,0-.33,1.23v2.39Z"
         id="path52"
         style="fill:#000000" />
      <path
         class="cls-2"
         d="M155.82,30.73v-.65h.79v4.57h-.79V34a1.9,1.9,0,0,1-1.56.77,2.15,2.15,0,0,1-1.58-.64,2.39,2.39,0,0,1-.65-1.78,2.33,2.33,0,0,1,.64-1.75,2.16,2.16,0,0,1,1.59-.64A1.84,1.84,0,0,1,155.82,30.73Zm-1.48-.06a1.43,1.43,0,0,0-1.06.45,1.7,1.7,0,0,0-.43,1.24,1.92,1.92,0,0,0,.39,1.24,1.37,1.37,0,0,0,1.1.48,1.34,1.34,0,0,0,1.1-.5,1.8,1.8,0,0,0,.42-1.21,1.67,1.67,0,0,0-.46-1.26A1.51,1.51,0,0,0,154.34,30.67Z"
         id="path54"
         style="fill:#000000" />
      <path
         class="cls-2"
         d="M160.64,30.79l-.65.35a.64.64,0,0,0-.63-.47.61.61,0,0,0-.4.14.46.46,0,0,0-.15.38.41.41,0,0,0,.14.35,2.77,2.77,0,0,0,.59.3,3.08,3.08,0,0,1,1.15.7,1.15,1.15,0,0,1,.24.74,1.41,1.41,0,0,1-.45,1.1,1.59,1.59,0,0,1-1.12.4l-.29,0a3.4,3.4,0,0,1-.43-.11,1.41,1.41,0,0,1-.51-.37,1.75,1.75,0,0,1-.37-.66l.68-.28a1,1,0,0,0,.93.75.69.69,0,0,0,.55-.23.72.72,0,0,0,.2-.5.6.6,0,0,0-.06-.27.39.39,0,0,0-.16-.2l-.22-.15-.3-.14a3.19,3.19,0,0,1-1.11-.67,1.05,1.05,0,0,1-.21-.67,1.24,1.24,0,0,1,.36-.94,1.37,1.37,0,0,1,1-.34A1.28,1.28,0,0,1,160.64,30.79Z"
         id="path56"
         style="fill:#000000" />
      <path
         class="cls-2"
         d="M162,37.18l1.45-3-2.1-4.14h.9l1.62,3.27,1.49-3.27h.88l-3.36,7.1Z"
         id="path58"
         style="fill:#000000" />
    </g>
  </g>
</svg>
