<?xml version="1.0" encoding="UTF-8" standalone="no"?>
<!-- Created with Inkscape (http://www.inkscape.org/) -->

<svg
   width="148.85379mm"
   height="7.9586415mm"
   viewBox="0 0 148.85379 7.9586417"
   version="1.1"
   id="svg5"
   inkscape:version="1.2.2 (b0a84865, 2022-12-01)"
   sodipodi:docname="bashtaglymturkmen.svg"
   xmlns:inkscape="http://www.inkscape.org/namespaces/inkscape"
   xmlns:sodipodi="http://sodipodi.sourceforge.net/DTD/sodipodi-0.dtd"
   xmlns="http://www.w3.org/2000/svg"
   xmlns:svg="http://www.w3.org/2000/svg">
  <sodipodi:namedview
     id="namedview7"
     pagecolor="#ffffff"
     bordercolor="#666666"
     borderopacity="1.0"
     inkscape:showpageshadow="2"
     inkscape:pageopacity="0.0"
     inkscape:pagecheckerboard="0"
     inkscape:deskcolor="#d1d1d1"
     inkscape:document-units="mm"
     showgrid="false"
     inkscape:zoom="0.84096521"
     inkscape:cx="114.15454"
     inkscape:cy="78.481249"
     inkscape:window-width="1309"
     inkscape:window-height="456"
     inkscape:window-x="1843"
     inkscape:window-y="223"
     inkscape:window-maximized="0"
     inkscape:current-layer="layer1" />
  <defs
     id="defs2" />
  <g
     inkscape:label="Layer 1"
     inkscape:groupmode="layer"
     id="layer1"
     transform="translate(-53.670848,-146.64611)">
    <g
       aria-label="ES &quot;BASH TAGLYM TURKMEN&quot;"
       id="text236"
       style="font-size:10.5833px;line-height:1.25;stroke-width:0.264583">
      <path
         d="m 53.670848,154.47775 v -7.38714 h 5.027068 v 1.42874 H 55.27951 v 1.51342 h 2.931574 v 1.41816 H 55.27951 v 1.59808 h 3.418406 v 1.42874 z"
         style="font-weight:bold;font-family:'IBM Plex Sans';-inkscape-font-specification:'IBM Plex Sans, Bold'"
         id="path397" />
      <path
         d="m 62.48672,154.60475 q -0.973663,0 -1.650994,-0.32808 -0.677331,-0.33867 -1.15358,-0.86783 l 1.05833,-1.06891 q 0.751414,0.84666 1.852077,0.84666 0.592665,0 0.878414,-0.24342 0.285749,-0.24341 0.285749,-0.64558 0,-0.30691 -0.169332,-0.508 -0.169333,-0.21166 -0.687915,-0.28574 l -0.730248,-0.0952 q -1.174746,-0.14817 -1.725077,-0.70909 -0.539749,-0.56091 -0.539749,-1.49224 0,-0.49742 0.1905,-0.91016 0.190499,-0.41275 0.539748,-0.70909 0.359832,-0.29633 0.867831,-0.45508 0.518581,-0.16933 1.174746,-0.16933 0.836081,0 1.471078,0.26458 0.634998,0.26458 1.09008,0.77258 l -1.068913,1.0795 q -0.264582,-0.30692 -0.645581,-0.49742 -0.370416,-0.20108 -0.941914,-0.20108 -0.539748,0 -0.804331,0.1905 -0.264582,0.1905 -0.264582,0.52917 0,0.381 0.201083,0.55033 0.211666,0.16933 0.677331,0.24341 l 0.730247,0.11642 q 1.142997,0.17992 1.693328,0.70908 0.550332,0.51858 0.550332,1.48166 0,0.52917 -0.190499,0.97367 -0.1905,0.4445 -0.560915,0.76199 -0.359833,0.3175 -0.899581,0.49742 -0.539748,0.16933 -1.227663,0.16933 z"
         style="font-weight:bold;font-family:'IBM Plex Sans';-inkscape-font-specification:'IBM Plex Sans, Bold'"
         id="path399" />
      <path
         d="m 69.101249,150.09627 v -3.45016 h 1.396995 v 3.45016 z m 2.381242,0 v -3.45016 h 1.396996 v 3.45016 z"
         style="font-weight:bold;font-family:'IBM Plex Sans';-inkscape-font-specification:'IBM Plex Sans, Bold'"
         id="path401" />
      <path
         d="m 74.414047,147.09061 h 3.587738 q 0.920747,0 1.428746,0.51858 0.518581,0.51858 0.518581,1.37583 0,0.42333 -0.116416,0.71966 -0.105833,0.29634 -0.296332,0.48684 -0.179916,0.1905 -0.433916,0.28575 -0.243416,0.0847 -0.529165,0.0952 v 0.0635 q 0.264583,0 0.550332,0.0952 0.296332,0.0953 0.539748,0.30692 0.243416,0.20108 0.402166,0.52917 0.169332,0.32808 0.169332,0.80433 0,0.43391 -0.148166,0.82549 -0.137583,0.381 -0.391582,0.66675 -0.253999,0.28575 -0.603248,0.45508 -0.349249,0.15875 -0.761998,0.15875 h -3.91582 z m 1.608661,6.03248 h 1.852078 q 0.317499,0 0.497415,-0.16933 0.190499,-0.17992 0.190499,-0.49742 v -0.35983 q 0,-0.3175 -0.190499,-0.48683 -0.179916,-0.17992 -0.497415,-0.17992 h -1.852078 z m 0,-3.00566 h 1.598078 q 0.317499,0 0.497415,-0.17991 0.179917,-0.17992 0.179917,-0.49742 v -0.3175 q 0,-0.3175 -0.179917,-0.49741 -0.179916,-0.17992 -0.497415,-0.17992 h -1.598078 z"
         style="font-weight:bold;font-family:'IBM Plex Sans';-inkscape-font-specification:'IBM Plex Sans, Bold'"
         id="path403" />
      <path
         d="m 85.865161,154.47775 -0.529165,-1.75683 h -2.465909 l -0.529165,1.75683 h -1.629828 l 2.434159,-7.38714 h 1.98966 l 2.402409,7.38714 z M 84.118916,148.5511 H 84.066 l -0.814914,2.80458 h 1.693328 z"
         style="font-weight:bold;font-family:'IBM Plex Sans';-inkscape-font-specification:'IBM Plex Sans, Bold'"
         id="path405" />
      <path
         d="m 90.955721,154.60475 q -0.973663,0 -1.650994,-0.32808 -0.677332,-0.33867 -1.15358,-0.86783 l 1.05833,-1.06891 q 0.751414,0.84666 1.852077,0.84666 0.592665,0 0.878414,-0.24342 0.285749,-0.24341 0.285749,-0.64558 0,-0.30691 -0.169333,-0.508 -0.169332,-0.21166 -0.687914,-0.28574 l -0.730248,-0.0952 q -1.174746,-0.14817 -1.725078,-0.70909 -0.539748,-0.56091 -0.539748,-1.49224 0,-0.49742 0.1905,-0.91016 0.190499,-0.41275 0.539748,-0.70909 0.359832,-0.29633 0.86783,-0.45508 0.518582,-0.16933 1.174747,-0.16933 0.83608,0 1.471078,0.26458 0.634998,0.26458 1.09008,0.77258 l -1.068913,1.0795 q -0.264583,-0.30692 -0.645581,-0.49742 -0.370416,-0.20108 -0.941914,-0.20108 -0.539748,0 -0.804331,0.1905 -0.264582,0.1905 -0.264582,0.52917 0,0.381 0.201082,0.55033 0.211666,0.16933 0.677332,0.24341 l 0.730247,0.11642 q 1.142997,0.17992 1.693328,0.70908 0.550332,0.51858 0.550332,1.48166 0,0.52917 -0.1905,0.97367 -0.190499,0.4445 -0.560915,0.76199 -0.359832,0.3175 -0.89958,0.49742 -0.539748,0.16933 -1.227663,0.16933 z"
         style="font-weight:bold;font-family:'IBM Plex Sans';-inkscape-font-specification:'IBM Plex Sans, Bold'"
         id="path407" />
      <path
         d="m 99.591681,151.45093 h -2.815158 v 3.02682 h -1.608662 v -7.38714 h 1.608662 v 2.94216 h 2.815158 v -2.94216 h 1.608659 v 7.38714 h -1.608659 z"
         style="font-weight:bold;font-family:'IBM Plex Sans';-inkscape-font-specification:'IBM Plex Sans, Bold'"
         id="path409" />
      <path
         d="m 108.40754,148.51935 v 5.9584 h -1.60866 v -5.9584 h -2.00024 v -1.42874 h 5.60914 v 1.42874 z"
         style="font-weight:bold;font-family:'IBM Plex Sans';-inkscape-font-specification:'IBM Plex Sans, Bold'"
         id="path411" />
      <path
         d="m 115.37134,154.47775 -0.52916,-1.75683 h -2.46591 l -0.52917,1.75683 h -1.62983 l 2.43416,-7.38714 h 1.98966 l 2.40241,7.38714 z m -1.74624,-5.92665 h -0.0529 l -0.81491,2.80458 h 1.69332 z"
         style="font-weight:bold;font-family:'IBM Plex Sans';-inkscape-font-specification:'IBM Plex Sans, Bold'"
         id="path413" />
      <path
         d="m 122.44097,153.30301 h -0.0529 q -0.0847,0.56091 -0.5715,0.93133 -0.48683,0.37041 -1.32291,0.37041 -0.635,0 -1.18533,-0.24341 -0.55033,-0.24342 -0.96308,-0.71967 -0.41275,-0.47625 -0.64558,-1.18533 -0.23283,-0.70908 -0.23283,-1.64041 0,-0.93133 0.24341,-1.65099 0.24342,-0.71967 0.67733,-1.2065 0.4445,-0.48683 1.05833,-0.74083 0.61384,-0.254 1.36525,-0.254 0.99483,0 1.71449,0.43392 0.71967,0.42333 1.13242,1.28057 l -1.31233,0.75142 q -0.16933,-0.43392 -0.52917,-0.73025 -0.35983,-0.30691 -1.00541,-0.30691 -0.75141,0 -1.19591,0.43391 -0.4445,0.43392 -0.4445,1.36525 v 1.18533 q 0,0.92074 0.4445,1.36524 0.4445,0.43392 1.19591,0.43392 0.29633,0 0.56092,-0.0635 0.26458,-0.0741 0.46566,-0.21167 0.20108,-0.14817 0.30692,-0.34925 0.11641,-0.20108 0.11641,-0.47625 v -0.37041 h -1.37583 v -1.34408 h 2.91041 v 4.1169 h -1.35466 z"
         style="font-weight:bold;font-family:'IBM Plex Sans';-inkscape-font-specification:'IBM Plex Sans, Bold'"
         id="path415" />
      <path
         d="m 125.36196,154.47775 v -7.38714 h 1.60867 v 5.9584 h 2.81515 v 1.42874 z"
         style="font-weight:bold;font-family:'IBM Plex Sans';-inkscape-font-specification:'IBM Plex Sans, Bold'"
         id="path417" />
      <path
         d="m 131.83892,154.47775 v -2.88924 l -2.52941,-4.4979 h 1.79916 l 1.5875,2.94216 h 0.0212 l 1.52399,-2.94216 h 1.74625 l -2.52941,4.48732 v 2.89982 z"
         style="font-weight:bold;font-family:'IBM Plex Sans';-inkscape-font-specification:'IBM Plex Sans, Bold'"
         id="path419" />
      <path
         d="m 142.4222,149.6306 h -0.0318 l -0.53975,1.0795 -1.43933,2.61407 -1.40758,-2.60349 -0.56091,-1.16416 h -0.0317 v 4.92123 h -1.51341 v -7.38714 h 1.70391 l 1.80974,3.46074 h 0.0212 l 1.78858,-3.46074 h 1.71449 v 7.38714 h -1.51341 z"
         style="font-weight:bold;font-family:'IBM Plex Sans';-inkscape-font-specification:'IBM Plex Sans, Bold'"
         id="path421" />
      <path
         d="m 151.1428,148.51935 v 5.9584 h -1.60866 v -5.9584 h -2.00024 v -1.42874 h 5.60914 v 1.42874 z"
         style="font-weight:bold;font-family:'IBM Plex Sans';-inkscape-font-specification:'IBM Plex Sans, Bold'"
         id="path423" />
      <path
         d="m 155.7677,147.09061 v 4.52965 q 0,0.78317 0.30692,1.17475 0.30692,0.381 1.02658,0.381 0.71966,0 1.02658,-0.381 0.30692,-0.39158 0.30692,-1.17475 v -4.52965 h 1.56632 v 4.36032 q 0,0.81491 -0.15875,1.41816 -0.14816,0.59267 -0.49741,0.98425 -0.34925,0.381 -0.89958,0.5715 -0.55033,0.17991 -1.34408,0.17991 -0.79375,0 -1.34408,-0.17991 -0.55033,-0.1905 -0.89958,-0.5715 -0.34925,-0.39158 -0.508,-0.98425 -0.14816,-0.60325 -0.14816,-1.41816 v -4.36032 z"
         style="font-weight:bold;font-family:'IBM Plex Sans';-inkscape-font-specification:'IBM Plex Sans, Bold'"
         id="path425" />
      <path
         d="m 163.19716,154.47775 h -1.60866 v -7.38714 h 3.50307 q 0.508,0 0.92075,0.16933 0.41274,0.16934 0.69849,0.48683 0.29634,0.30692 0.45509,0.74084 0.15874,0.43391 0.15874,0.96308 0,0.75141 -0.33866,1.31232 -0.32808,0.56092 -1.00541,0.81492 l 1.44991,2.89982 h -1.78858 l -1.29116,-2.70932 h -1.15358 z m 1.69333,-4.06398 q 0.35983,0 0.56091,-0.17992 0.21167,-0.1905 0.21167,-0.55033 v -0.46567 q 0,-0.35983 -0.21167,-0.53975 -0.20108,-0.19049 -0.56091,-0.19049 h -1.69333 v 1.92616 z"
         style="font-weight:bold;font-family:'IBM Plex Sans';-inkscape-font-specification:'IBM Plex Sans, Bold'"
         id="path427" />
      <path
         d="m 171.29338,151.26043 -0.96308,1.16416 v 2.05316 h -1.60866 v -7.38714 h 1.60866 v 3.51366 h 0.0635 l 1.04775,-1.42875 1.66157,-2.08491 h 1.82033 l -2.48707,3.03741 2.70932,4.34973 h -1.89441 z"
         style="font-weight:bold;font-family:'IBM Plex Sans';-inkscape-font-specification:'IBM Plex Sans, Bold'"
         id="path429" />
      <path
         d="m 181.61209,149.6306 h -0.0317 l -0.53975,1.0795 -1.43933,2.61407 -1.40758,-2.60349 -0.56091,-1.16416 h -0.0317 v 4.92123 h -1.51342 v -7.38714 h 1.70392 l 1.80974,3.46074 h 0.0212 l 1.78857,-3.46074 h 1.7145 v 7.38714 h -1.51341 z"
         style="font-weight:bold;font-family:'IBM Plex Sans';-inkscape-font-specification:'IBM Plex Sans, Bold'"
         id="path431" />
      <path
         d="m 184.75531,154.47775 v -7.38714 h 5.02706 v 1.42874 h -3.4184 v 1.51342 h 2.93157 v 1.41816 h -2.93157 v 1.59808 h 3.4184 v 1.42874 z"
         style="font-weight:bold;font-family:'IBM Plex Sans';-inkscape-font-specification:'IBM Plex Sans, Bold'"
         id="path433" />
      <path
         d="m 193.43361,150.98526 -0.70909,-1.48166 h -0.0318 v 4.97415 h -1.51341 v -7.38714 h 1.75683 l 2.02141,3.49249 0.70908,1.48166 h 0.0317 v -4.97415 h 1.51341 v 7.38714 h -1.75682 z"
         style="font-weight:bold;font-family:'IBM Plex Sans';-inkscape-font-specification:'IBM Plex Sans, Bold'"
         id="path435" />
      <path
         d="m 198.74641,150.09627 v -3.45016 h 1.39699 v 3.45016 z m 2.38124,0 v -3.45016 h 1.39699 v 3.45016 z"
         style="font-weight:bold;font-family:'IBM Plex Sans';-inkscape-font-specification:'IBM Plex Sans, Bold'"
         id="path437" />
    </g>
  </g>
</svg>
