<?xml version="1.0" encoding="UTF-8" standalone="no"?>
<svg
   height="197.545919"
   viewBox="0 0 21.800613 8.5343234"
   width="506.211418"
   version="1.1"
   id="svg16"
   sodipodi:docname="bdo.svg"
   inkscape:version="1.2.2 (b0a84865, 2022-12-01)"
   xmlns:inkscape="http://www.inkscape.org/namespaces/inkscape"
   xmlns:sodipodi="http://sodipodi.sourceforge.net/DTD/sodipodi-0.dtd"
   xmlns="http://www.w3.org/2000/svg"
   xmlns:svg="http://www.w3.org/2000/svg">
  <defs
     id="defs20" />
  <sodipodi:namedview
     id="namedview18"
     pagecolor="#ffffff"
     bordercolor="#666666"
     borderopacity="1.0"
     inkscape:showpageshadow="2"
     inkscape:pageopacity="0.0"
     inkscape:pagecheckerboard="0"
     inkscape:deskcolor="#d1d1d1"
     showgrid="false"
     inkscape:zoom="1.194659"
     inkscape:cx="220.98356"
     inkscape:cy="98.772957"
     inkscape:window-width="1309"
     inkscape:window-height="456"
     inkscape:window-x="1821"
     inkscape:window-y="409"
     inkscape:window-maximized="0"
     inkscape:current-layer="svg16" />
  <g
     transform="translate(-103.248468 -143.810218)"
     id="g14"
     style="fill:#000000">
    <g
       fill="#21409a"
       id="g8"
       style="fill:#000000">
      <path
         d="m107.46582 144.97248h1.31657c.36124 0 .81879.0861.81879.69991 0 .61383-.65405.86395-1.13947.86395h-.99589zm0 2.39783h.75001c1.23295 0 1.8609.26952 1.8609.99095 0 .63924-.50377.90946-1.29434.90946h-1.20015l-1.37231.96097v.00035l2.56328-.0007c1.53494 0 2.56823-.5528 2.56823-1.83162 0-1.11549-.9144-1.55364-1.73073-1.55364.56409 0 1.23049-.50553 1.23049-1.36278 0-.85654-.78352-1.47214-1.67746-1.47214h-2.6162-.56727l.22966.50976v5.2631l1.25589-.87948z"
         id="path2"
         style="fill:#000000" />
      <path
         d="m113.40844 144.97248h.85549c.35277 0 2.153.0893 2.153 2.14912 0 2.35021-2.153 2.14842-2.153 2.14842l-.73872.0007-1.37301.96097v.00035h2.4645c1.53529 0 3.10868-.94438 3.10868-3.11044 0-1.92087-1.37407-3.11044-3.10868-3.11044h-2.69381l.22931.50976v5.2631l1.25624-.87948z"
         id="path4"
         style="fill:#000000" />
      <path
         d="m119.61454 147.12139c0-1.75895 1.21179-2.25319 1.99672-2.25319s1.99708.49424 1.99708 2.25319-1.21215 2.25319-1.99708 2.25319-1.99672-.49424-1.99672-2.25319m-1.30881 0c0 2.48179 2.0059 3.17923 3.30553 3.17923 1.29964 0 3.30553-.69744 3.30553-3.17923s-2.00589-3.17888-3.30553-3.17888c-1.29963 0-3.30553.69709-3.30553 3.17888"
         id="path6"
         style="fill:#000000" />
    </g>
    <path
       d="m103.38087 144.0113v7.75441l1.22696-.85937v-6.89504z"
       fill="#ed1a3b"
       id="path10"
       style="fill:#000000" />
    <path
       d="m104.83703 151.19308-1.45627 1.01917h21.46724v-1.01917z"
       fill="#ed1a3b"
       id="path12"
       style="fill:#000000" />
  </g>
</svg>
