<?xml version="1.0" encoding="UTF-8" standalone="no"?>
<!-- Generator: Adobe Illustrator 22.1.0, SVG Export Plug-In . SVG Version: 6.00 Build 0)  -->

<svg
   version="1.1"
   id="Layer_1"
   x="0px"
   y="0px"
   viewBox="0 0 500 152"
   style="enable-background:new 0 0 500 152;"
   xml:space="preserve"
   sodipodi:docname="caly-white.svg"
   inkscape:version="1.2.2 (b0a84865, 2022-12-01)"
   xmlns:inkscape="http://www.inkscape.org/namespaces/inkscape"
   xmlns:sodipodi="http://sodipodi.sourceforge.net/DTD/sodipodi-0.dtd"
   xmlns="http://www.w3.org/2000/svg"
   xmlns:svg="http://www.w3.org/2000/svg"><defs
   id="defs115" /><sodipodi:namedview
   id="namedview113"
   pagecolor="#ffffff"
   bordercolor="#666666"
   borderopacity="1.0"
   inkscape:showpageshadow="2"
   inkscape:pageopacity="0.0"
   inkscape:pagecheckerboard="0"
   inkscape:deskcolor="#d1d1d1"
   showgrid="false"
   inkscape:zoom="0.3881579"
   inkscape:cx="437.9661"
   inkscape:cy="110.77966"
   inkscape:window-width="1309"
   inkscape:window-height="456"
   inkscape:window-x="1852"
   inkscape:window-y="403"
   inkscape:window-maximized="0"
   inkscape:current-layer="Layer_1" />
<style
   type="text/css"
   id="style2">
	.st0{fill:#FFFFFF;}
</style>
<g
   id="g110"
   style="fill:#000000">
	<path
   class="st0"
   d="M269.9,25.7L269.9,25.7l0.7-1l12.8-0.3c0.8,0,1.7-0.2,2.7-0.6c4.9-1.3,8.4-2,10.7-2h28.1l-4.5,7.4l-24-0.7   c-4.6-0.1-8.4-0.8-11.5-2c-0.7-0.2-1.4-0.4-2.3-0.6L269.9,25.7L269.9,25.7z"
   id="path4"
   style="fill:#000000" />
	<path
   class="st0"
   d="M264.4,34.7L264.4,34.7l0.7-1.1l12.3-0.3c1.2,0,3.1-0.4,5.7-1.1c3.2-0.9,5.6-1.4,7.2-1.4l29.8-0.9l-5.2,8.4   l-27.5-0.9c-2.2-0.1-5.1-0.8-8.7-2.1c-1-0.3-1.7-0.4-2.2-0.4L264.4,34.7L264.4,34.7z"
   id="path6"
   style="fill:#000000" />
	<path
   class="st0"
   d="M259.1,43.7L259.1,43.7l0.7-1l12.3-0.1c0.1,0,1-0.2,2.8-0.6c0.4-0.1,1.3-0.3,2.7-0.7l2.7-0.7   c1.2-0.4,2.5-0.6,3.8-0.6l30.6-1l-5.2,8.4l-26.6-0.9c-1.6-0.1-2.9-0.3-4-0.6l-5.8-1.7c-0.4-0.2-1-0.3-1.7-0.3L259.1,43.7   L259.1,43.7z"
   id="path8"
   style="fill:#000000" />
	<path
   class="st0"
   d="M253.8,52.2L253.8,52.2l0.7-1l10.8-0.1c0.3,0,0.7,0,1.2-0.1h0.8l7.3-1.7c2.2-0.5,5.5-0.8,10-1l24.6-0.9   l-5.2,8.4l-23.8-0.6c-3-0.1-7-0.9-12-2.3c-0.9-0.3-1.8-0.4-2.7-0.4L253.8,52.2L253.8,52.2z"
   id="path10"
   style="fill:#000000" />
	<path
   class="st0"
   d="M248.3,60.9L248.3,60.9l0.5-0.9l12.5-0.1c0.6-0.1,1.6-0.3,3.2-0.7c4.3-1.1,7.2-1.8,8.7-1.8l30.6-1l-5.2,8.4   l-16.1-0.4c-8.1-0.2-12.9-0.5-14.5-1l-5.5-1.6c-1-0.3-1.7-0.4-2-0.4L248.3,60.9L248.3,60.9z"
   id="path12"
   style="fill:#000000" />
	<path
   class="st0"
   d="M242.8,70.1L242.8,70.1l0.3-0.9l12.8-0.3c0.3,0,0.9-0.1,1.8-0.4c4.4-1.3,7.9-2,10.5-2.1l30-1l-5.3,8.5l-27.5-1   c-0.8,0-1.8-0.2-3-0.6c-4.4-1.3-7-2-7.7-2L242.8,70.1L242.8,70.1z"
   id="path14"
   style="fill:#000000" />
	<path
   class="st0"
   d="M237.3,78.6L237.3,78.6c0.1-0.3,0.3-0.6,0.7-1l12.2-0.1c0.4,0,1.1-0.1,1.8-0.4l5.5-1.3   c2.3-0.6,3.9-0.9,4.8-0.9l30.5-1l-5.2,8.4l-22.8-0.7c-4.3-0.1-7.2-0.4-8.5-0.9l-4-1.3c-1.4-0.5-2.9-0.7-4.3-0.7L237.3,78.6   L237.3,78.6z"
   id="path16"
   style="fill:#000000" />
	<path
   class="st0"
   d="M231.8,87.5L231.8,87.5l0.7-1l12.3-0.1c0.1,0,0.5-0.1,1.2-0.3l5-1.3l2-0.4c1.4-0.3,2.9-0.5,4.5-0.7l29.8-0.9   l-5.2,8.4l-23.3-0.7c-2.9-0.1-4.8-0.2-5.7-0.4c-0.9-0.1-3.2-0.8-6.9-1.9c-1.2-0.4-2.2-0.6-2.8-0.6L231.8,87.5L231.8,87.5z"
   id="path18"
   style="fill:#000000" />
	<path
   class="st0"
   d="M226.3,96.3L226.3,96.3l0.7-1l12-0.3c0.4,0,1.1-0.1,2-0.3l7.7-1.8l3-0.4l30.3-0.8h38.8l-5.2,8.2l-56.1-0.6   c-7.5-0.1-12.1-0.4-13.8-0.8l-5.3-1.6c-0.9-0.3-1.7-0.4-2.3-0.4L226.3,96.3L226.3,96.3z"
   id="path20"
   style="fill:#000000" />
	<path
   class="st0"
   d="M221.5,104.1L221.5,104.1l12.1-0.3c0.6,0,1.2-0.1,2-0.3l7.2-1.7c1.5-0.4,3-0.6,4.5-0.6l67.9-1l-5.3,8.4   l-64.1-0.7c-2.4-0.1-4.3-0.3-5.7-0.7l-4.7-1.4c-0.9-0.3-1.9-0.4-3-0.4l-11.1-0.3l-0.7,3.5l-31.6-0.9c-1,0-2.6-0.3-4.7-1   c-0.7-0.3-1.7-0.6-3.2-1c-0.9-0.4-1.8-0.6-2.7-0.6l-11.8-0.1l0.5-1l12.5-0.3c0.4,0,2.5-0.5,6.2-1.4c1.9-0.5,3.9-0.9,6.2-1.1   l30.3-0.9L221.5,104.1L221.5,104.1z"
   id="path22"
   style="fill:#000000" />
	<path
   class="st0"
   d="M219.7,112.9L219.7,112.9l8.3-0.3c0.5,0,1.1-0.1,1.8-0.3c3.1-0.8,7.1-1.5,11.9-2.3l68-1l-4.7,7.7h-63.9   c-2.6,0-4.7-0.2-6.3-0.7l-5.7-1.6c-0.3-0.2-1.1-0.3-2.2-0.3l-7.5-0.2l-0.5,2.7h-27.8c-3,0-5.3-0.2-7-0.7l-5.7-1.6   c-0.1-0.1-0.8-0.2-2.2-0.4l-12.3-0.3l0.7-0.9l13-0.3c0.4,0,1-0.1,1.7-0.3l4.2-1.1c2.5-0.7,4.7-1,6.5-1.1l30.5-1L219.7,112.9   L219.7,112.9z"
   id="path24"
   style="fill:#000000" />
	<path
   class="st0"
   d="M172,25.8L172,25.8l0.7-1l12.2-0.3c0.3,0,0.9-0.1,1.7-0.1l6.5-1.7c1.8-0.5,4.2-0.7,7.2-0.7h13h25.5l-1.5,7.7   l-40.4-0.9c-2.1,0-3.7-0.2-4.8-0.6l-4.3-1.3c-1.4-0.5-2.8-0.7-4.2-0.7L172,25.8L172,25.8z"
   id="path26"
   style="fill:#000000" />
	<path
   class="st0"
   d="M169.2,96.3L169.2,96.3l0.5-0.8l12.2-0.3c0.8,0,1.6-0.1,2.3-0.4l5.8-1.4c1.8-0.5,3.3-0.7,4.5-0.7l29.8-1   l-2,8.4l-30-0.9c-1.3,0-3.2-0.4-5.7-1.3c-2.4-0.9-4.3-1.3-5.5-1.3L169.2,96.3L169.2,96.3z"
   id="path28"
   style="fill:#000000" />
	<path
   class="st0"
   d="M162.9,36.4L162.9,36.4l0.5-1l11.6-0.3c1.6,0,4.4-0.5,8.7-1.4c3.4-0.8,6-1.1,7.7-1.1l45.6-0.9l-1.7,8.4   l-41.1-0.6c-6-0.1-9.7-0.3-11-0.7l-5.3-1.6c-1-0.2-2.3-0.4-4-0.6L162.9,36.4L162.9,36.4z"
   id="path30"
   style="fill:#000000" />
	<path
   class="st0"
   d="M153.5,44.9L153.5,44.9l0.8-1l12.3-0.3c0.8,0,1.7-0.2,2.8-0.6c0.8-0.2,2.5-0.5,5.3-1l3.3-0.6   c1.6-0.3,3-0.4,4.3-0.4l52.6-1l-1.7,8.5l-1.8,8.5l-22.8-1c-2.4-0.1-4-0.3-4.8-0.4c-0.8-0.1-2.3-0.7-4.5-1.6   c-0.2-0.1-0.8-0.3-1.7-0.6l-3,3.7l-24.1-0.8c-3.3-0.1-6.2-0.6-8.5-1.4c-3.2-1.2-5.3-1.8-6.2-1.8L144.5,53l0.7-1.1l12.2-0.3   c0.3,0,2.5-0.5,6.5-1.6l1.8-0.5c1.9-0.5,3.3-0.8,4.3-0.8l15.6-0.7h-0.5c-3.3,0-7.1-0.2-11.3-0.6l-5.7-1.7c-0.8-0.3-2.1-0.4-3.8-0.4   L153.5,44.9L153.5,44.9z"
   id="path32"
   style="fill:#000000" />
	<polygon
   class="st0"
   points="233.4,48.6 233.4,48.6 202.8,48.2 201.5,49.6 203.1,49.5 206,49.3 209.6,49.1  "
   id="polygon34"
   style="fill:#000000" />
	<path
   class="st0"
   d="M135.4,61.9L135.4,61.9l0.5-1l12.1-0.3c0.5,0,1.2-0.1,2.2-0.3l7.2-1.7c0.7-0.2,1.9-0.4,3.7-0.6l33.5-0.9   l-3.3,2.7c1.9-0.1,4.9-0.5,9-1.3c2.1-0.4,3.7-0.6,4.7-0.6l26.6-0.8l-1.7,8.5l-26.3-1.1c-1.7-0.1-3.1-0.4-4.2-0.7l-6-2.1   c-0.4-0.2-1.7-0.4-3.8-0.4l-3.7,4.3l-27.6-0.9c-1.2,0-2.8-0.4-4.8-1.2c-2.6-1-4.5-1.4-5.8-1.4L135.4,61.9L135.4,61.9z"
   id="path36"
   style="fill:#000000" />
	<path
   class="st0"
   d="M126.2,70.1L126.2,70.1l0.5-1l12.5-0.3c0.8,0,2.6-0.4,5.3-1.1c2.8-0.7,5.2-1.2,7.2-1.4l33.8-0.7l-3.3,3.1h3   c3.6,0,6.2-0.2,8-0.6l5.5-1.2c0.9-0.2,1.9-0.3,3.2-0.4l27.8-1L228,74l-1.8,8.5l-81.7-0.9c-4.1,0-8.3-0.7-12.6-2.1   c-0.9-0.3-1.7-0.4-2.3-0.4l-12.3-0.3l0.7-1.1l9.2-0.1c2.3,0,4-0.1,5.2-0.4l7.3-1.7c1.1-0.3,2.5-0.4,4.2-0.4l84.4-1l-28.5-1   c-0.6-0.1-1.5-0.3-2.7-0.7c-4.9-1.6-8.7-2.5-11.3-2.5h-4.7l-4.3,4.3L148,72.7c-0.7,0-1.4-0.1-2.2-0.4c-1.9-0.6-4.3-1.3-7.3-1.9   L126.2,70.1L126.2,70.1z"
   id="path38"
   style="fill:#000000" />
	<path
   class="st0"
   d="M108.1,87.5L108.1,87.5l0.7-1l12.1-0.1c0.1,0,0.3,0,0.7-0.1l5.8-1.3l1.5-0.4c2-0.6,4.3-0.9,6.8-0.9h5l85.3-0.9   l-1.7,8.4l-82.4-0.7c-6.5-0.1-10.2-0.1-11.2-0.1c-1.4-0.1-3-0.4-4.7-1l-5.5-1.6L108.1,87.5L108.1,87.5z"
   id="path40"
   style="fill:#000000" />
	<path
   class="st0"
   d="M98.9,96.5L98.9,96.5l0.5-1l12.2-0.1c0.8,0,2.6-0.4,5.5-1.2c2.9-0.8,5-1.3,6.5-1.4l36.1-1.6l-9.3,9.2l-27.1-1   c-2.4-0.1-5.7-0.8-9.8-2.2c-0.9-0.3-1.6-0.4-2.2-0.4L98.9,96.5L98.9,96.5z"
   id="path42"
   style="fill:#000000" />
	<path
   class="st0"
   d="M89.8,105.3L89.8,105.3l0.5-1l12.5-0.3c0.3,0,0.9-0.1,1.8-0.3l7.7-1.9c1-0.3,2.2-0.4,3.5-0.4l34.3-0.9   l-8.5,8.7l-28.5-0.9c-1.6,0-3.6-0.4-6.2-1.3c-2.6-0.8-4.4-1.4-5.7-1.5L89.8,105.3L89.8,105.3z"
   id="path44"
   style="fill:#000000" />
	<path
   class="st0"
   d="M84.1,112.8L84.1,112.8l9.7-0.2c0.6,0,2.7-0.5,6.3-1.4c2.3-0.6,4.3-0.9,5.8-1l35.5-1.1l-7.8,7.7h-28.3   c-2.1,0-5.3-0.7-9.7-2c-1.1-0.4-2.2-0.6-3.2-0.6l-9.1-0.2L84.1,112.8L84.1,112.8z"
   id="path46"
   style="fill:#000000" />
	<path
   class="st0"
   d="M54.1,23.2L54.1,23.2l0.7-1.3l12.3-0.3c0.1,0,0.3,0,0.7-0.1h0.8l18.6-2.7c7.2-1,14.8-1.6,22.8-1.6   c9.4,0,18.5,0.9,27.3,2.7l-4.2,6.5l-54.8-0.7c-1.3,0-2.6-0.2-3.8-0.6l-5.3-1.6c-0.1,0-1-0.1-2.5-0.4C66,23,65,23,63.7,23L54.1,23.2   L54.1,23.2z M49.4,115.4l-3.4,7.3c4,0.1,6.8,0.3,8.5,0.9c1.6,0.5,2.7,1.2,3.2,1.9c0.5,0.7,0.7,1.6,0.6,2.5c-0.2,1.5-1.3,2.8-3,3.8   c-2.4,1.4-6.2,2-11.5,2c-1.7,0-4.3-0.1-7.9-0.2l-2.4,10c3.5,0,7.5,0,12.1,0c8.1,0,14.5-1.5,19-4.5s7.1-6.5,7.7-10.4   c0.4-2.7-0.4-5.2-2.5-7.4c-2.1-2.2-5.5-3.6-10.2-4.1l0.6-1.3c1.8,0,2.9-0.1,3-0.3c2.3,0,4.8-0.1,7.5-0.3l3.8-0.6   c1.4-0.2,2.4-0.4,3-0.5s1-0.2,1.3-0.2l4.8-7.8L42.8,107c-1.7,0-3.6,0.3-5.7,0.9l-6.2,1.6c-1,0.1-1.8,0.2-2.5,0.3l-11.9,0.3v0.8l0,0   c4.9,0.4,10.9,0,16.5,1.6C38.4,114,44.3,114.9,49.4,115.4L49.4,115.4z M-0.5,84.5L-0.5,84.5l0.5-1l12.2-0.1c0.2,0,0.5,0,0.8-0.1   l5.2-1.1l2.3-0.6c1.8-0.5,3.3-0.7,4.5-0.7L57.8,80c1.9,4,5.7,6.8,11.3,8.4l-45.6-0.9c-1.7,0-3.4-0.3-5.3-0.9s-3.9-1.2-6.2-1.8   L-0.5,84.5L-0.5,84.5z M0.8,93.5L0.8,93.5l0.5-1.2l11-0.2c0.4,0,0.9,0,1.5-0.1h1l7.8-2.2c1.4-0.4,2.7-0.6,3.8-0.6l44.3-0.9   c2,0.5,4.3,0.7,7,0.7c5.9,0,11.9-0.5,18-1.6l-6.3,10L24,96.3c-1.2,0-2.3-0.1-3.2-0.5L15.1,94c-0.8-0.3-2.4-0.5-4.8-0.5H0.8   L0.8,93.5z M4.1,67.2L4.1,67.2l0.5-0.8l12.7-0.3l1.2-0.3l5.8-1.4c2.6-0.7,4.6-1,6.2-1l33-0.7c-2.6,3.3-4.4,6.2-5.5,8.5   c-0.7,2.4-1,4-1,5c0,0.6,0.2,1.8,0.5,3.7L24,78.8c-1.3,0-4-0.7-8.1-2c-0.8-0.3-1.6-0.4-2.3-0.4L1,75.9l0.5-0.8l11.7-0.3   c0.7-0.1,1.5-0.2,2.7-0.3l6.3-1.7c1.2-0.3,2.7-0.5,4.3-0.6l31.5-1l-30.8-1.1c-1.2,0-4.1-0.7-8.6-2.1c-0.9-0.3-1.6-0.4-2-0.4   L4.1,67.2L4.1,67.2z M5,102.1L5,102.1l0.7-1h7.7c3,0,5.3-0.2,6.8-0.6l6.3-1.6c1.4-0.4,2.8-0.6,4-0.6l58.8-1l-5.2,8.4l-55.6-0.9   c-1.3,0-2.6-0.2-3.8-0.6l-4.7-1.4c-0.9-0.3-2.7-0.5-5.5-0.6c-0.4,0-1.7,0-3.7-0.1L5,102.1L5,102.1z M8.6,57.9L8.6,57.9L9.3,57   l9.6-0.1c2,0,3.7-0.2,5.2-0.6l5.7-1.4c1.3-0.4,2.7-0.6,4.2-0.6l39.6-1c-3.2,2.3-6.2,4.8-8.8,7.5l-1,1l-32.6-1c-1.1,0-3.6-0.7-7.5-2   c-0.8-0.3-1.9-0.5-3.5-0.7L8.6,57.9L8.6,57.9z M15.1,49.2L15.1,49.2l0.7-1l8-0.1c3.1-0.1,5.5-0.3,7.3-0.7l5.5-1.3   c1.9-0.5,3.7-0.7,5.5-0.7l53.3-0.7c-8,1.6-15,4.4-21.1,8.2l-32.1-0.7c-3.8-0.1-8-0.9-12.7-2.3c-0.7-0.3-1.2-0.4-1.7-0.4L15.1,49.2   L15.1,49.2z M24.1,40.4L24.1,40.4l0.7-1.2h12c0.8,0,1.7-0.2,2.7-0.6c5.1-1.3,8.8-2,11-2l77.3-1l-6.2,9.7c-4.4-1.1-8.9-1.7-13.5-1.7   c-2.9,0-6.2,0.3-10,1l-38.3-0.8c-3.1-0.1-6-0.2-8.8-0.3c-3.1-0.2-5.1-0.4-6.1-0.5c-0.9-0.1-3.1-0.8-6.4-1.9c-0.9-0.3-1.6-0.5-2-0.5   L24.1,40.4L24.1,40.4z M35.8,32L35.8,32l0.8-1.4l11.7-0.1c0.6,0,1.2-0.1,2-0.3l7.8-1.8c1.1-0.3,2.4-0.4,3.8-0.4l71.1-1l-5.2,8.4   l-66.4-0.7c-2.7,0-4.7-0.2-6.2-0.7l-5-1.6c-0.6-0.2-2.4-0.3-5.7-0.3L35.8,32L35.8,32z"
   id="path48"
   style="fill:#000000" />
	<path
   class="st0"
   d="M317.9,113.6L317.9,113.6l0.5-0.9l12.5-0.3c0.1,0,0.8-0.1,2.2-0.3c2.5-0.7,6-1.5,10.5-2.3l29.8-0.7l-4.7,7.5   h-25.5c-4.4,0-8.1-0.7-11-2l-2-0.9L317.9,113.6L317.9,113.6z"
   id="path50"
   style="fill:#000000" />
	<path
   class="st0"
   d="M323.3,104.8L323.3,104.8l0.7-0.9h8.1c2.4,0,4.4-0.2,6-0.6l6.5-1.6c1.1-0.3,2.6-0.5,4.5-0.7l29.8-0.7l-5.3,8.4   l-27.5-1c-1.2,0-3.1-0.4-5.5-1.2c-2.4-0.8-5.8-1.3-10-1.5L323.3,104.8L323.3,104.8z"
   id="path52"
   style="fill:#000000" />
	<path
   class="st0"
   d="M328.8,96.1L328.8,96.1l0.7-1l12-0.1c0.4,0,1.1-0.1,1.8-0.3l7.5-1.8l1.8-0.3c0.3-0.1,1.2-0.1,2.7-0.1l29-0.8   l-5.2,8.4l-24.6-0.9c-3.1-0.1-5.5-0.4-7.2-1l-4.3-1.4l-2.2-0.4L328.8,96.1L328.8,96.1z"
   id="path54"
   style="fill:#000000" />
	<path
   class="st0"
   d="M334.3,87.3L334.3,87.3l0.8-1l12-0.1c0.2,0,0.5,0,0.8-0.1l5.2-1.1l2-0.6c0.8-0.2,2.2-0.4,4.3-0.7l30.5-0.9   l-5.3,8.4l-21.2-0.7c-5-0.2-8.1-0.5-9.5-0.9l-5.2-1.6c-0.2-0.1-2.9-0.3-8.2-0.6L334.3,87.3L334.3,87.3z"
   id="path56"
   style="fill:#000000" />
	<path
   class="st0"
   d="M335.2,25.7L335.2,25.7l0.8-1.1l10-0.1c1.9,0,3.2-0.1,3.8-0.3l5.5-1.4c2.2-0.6,6.3-0.9,12.3-0.9h18.3l0.7,7.7   l-26.5-1c-2.9-0.1-5.3-0.5-7.2-1.1l-3.3-1.1c-0.1,0-0.9-0.1-2.3-0.4L335.2,25.7L335.2,25.7z"
   id="path58"
   style="fill:#000000" />
	<path
   class="st0"
   d="M336.3,34.5L336.3,34.5l0.7-1l11.6-0.1c0.7-0.1,1.1-0.1,1.2-0.1l7.3-1.8c0.9-0.2,2-0.3,3.3-0.4l26-1l0.5,8.4   l-27.5-1.1c-0.2,0-3.9-0.7-11-2.2c-0.7-0.2-1.2-0.3-1.5-0.3L336.3,34.5L336.3,34.5z"
   id="path60"
   style="fill:#000000" />
	<path
   class="st0"
   d="M337.2,43.3L337.2,43.3l0.5-1l11.5-0.1c0.7,0,1.3-0.1,2-0.3l5.5-1.4c1.6-0.4,3.1-0.6,4.7-0.7l25.6-1l0.3,3.6   h2.3c4.5,0,7.7-0.2,9.5-0.7l3.7-1c2.3-0.7,4.3-1,6-1l34.6-0.8l-10,8.4l-27-0.9c-1.3,0-2.6-0.2-3.7-0.6l-4.3-1.3   c-1.9-0.6-4.3-0.9-7.3-0.9h-3.8l0.2,3.6l-27-1c-1.6-0.1-3.6-0.5-6-1.1l-5.8-1.5L337.2,43.3L337.2,43.3z"
   id="path62"
   style="fill:#000000" />
	<path
   class="st0"
   d="M337.7,52.1L337.7,52.1l0.7-1L350,51c0.1,0,0.3,0,0.5-0.1s0.8-0.2,1.7-0.3c0.9-0.1,2.4-0.5,4.5-1   s3.8-0.8,5-0.9l25.8-1l0.2,3c5.2-1.4,8.7-2.1,10.5-2.1l34.5-0.9l-9.8,8.4l-27.8-0.9c-1.3,0-3.7-0.6-7.2-1.7l0.2,3L360.6,55   c-1.7-0.1-3.4-0.5-5.3-1.1c-2.9-1-4.8-1.5-5.8-1.5L337.7,52.1L337.7,52.1z"
   id="path64"
   style="fill:#000000" />
	<path
   class="st0"
   d="M338.3,60.9L338.3,60.9l0.3-1l11.8-0.1c0.1,0,0.7-0.1,1.8-0.3c5.4-1.4,10.6-2.2,15.5-2.3l54.3-0.7l-10.3,8.4   l-50.3-1c-1.8,0-4-0.4-6.7-1.4c-2.7-0.9-4.4-1.4-5.2-1.4L338.3,60.9L338.3,60.9z"
   id="path66"
   style="fill:#000000" />
	<path
   class="st0"
   d="M339,69.7L339,69.7l0.3-0.9l12-0.3c0.9,0,3.3-0.5,7.2-1.6c2.4-0.7,4.3-1,5.5-1l47.3-0.7l-10.2,8.4l-37.3-1   c-1.3,0-3.2-0.2-5.5-0.6l-5.8-1.7c-1.2-0.4-2.7-0.6-4.3-0.6L339,69.7L339,69.7z"
   id="path68"
   style="fill:#000000" />
	<path
   class="st0"
   d="M339,78.6L339,78.6l0.7-0.9l12.2-0.1c0.4,0,1.3-0.2,2.5-0.6c4-1.2,7.8-1.9,11.5-2l34.6-0.7l-10,8.4l-27.6-1   c-1,0-3.1-0.4-6.3-1.3l-3.3-0.9c-1.4-0.4-2.4-0.6-3-0.6L339,78.6L339,78.6z"
   id="path70"
   style="fill:#000000" />
	<path
   class="st0"
   d="M392.8,34.7L392.8,34.7l0.7-1l9.3-0.1l3.8-0.1c0.6-0.1,1.3-0.2,2.3-0.4l5.7-1.4c1.3-0.3,2.8-0.5,4.5-0.6l35-1   l-10.2,8.4l-26.8-1c-2.2-0.1-5.7-0.9-10.3-2.3c-0.6-0.2-1-0.3-1.3-0.3L392.8,34.7L392.8,34.7z"
   id="path72"
   style="fill:#000000" />
	<polygon
   class="st0"
   points="479.2,18.3 479.2,0.3 485.6,0.3 489.4,12.6 493.1,0.3 499.5,0.3 499.5,18.3 495.5,18.3 495.5,4.2    491.4,18.3 487.3,18.3 483.2,4.2 483.2,18.3  "
   id="polygon74"
   style="fill:#000000" />
	<polygon
   class="st0"
   points="466.1,18.3 466.1,3.4 459.9,3.4 459.9,0.3 476.6,0.3 476.6,3.4 470.4,3.4 470.4,18.3  "
   id="polygon76"
   style="fill:#000000" />
	<path
   class="st0"
   d="M402.6,25.9l0.7-1l14-0.3c0.6,0,1.2-0.1,2-0.3l6.5-1.6c2.3-0.6,7.9-0.9,16.8-0.9h21l-8.8,7.7l-27.8-1   c-1.2,0-2.9-0.4-5-1.1c-2.4-0.9-4.4-1.3-6-1.3L402.6,25.9L402.6,25.9z"
   id="path78"
   style="fill:#000000" />
	<path
   class="st0"
   d="M87.3,145.4h-4.6l4.9-23.4h4.6l-1.8,8.3c1-0.8,2-1.4,2.9-1.8s1.9-0.5,2.9-0.5c1.4,0,2.5,0.4,3.3,1.2   s1.2,1.8,1.2,3.1c0,0.7-0.1,1.7-0.4,3.2l-2.1,9.9h-4.6l2.1-10.1c0.2-1.1,0.3-1.8,0.3-2.1c0-0.6-0.2-1-0.5-1.4   c-0.4-0.3-0.8-0.5-1.4-0.5c-0.8,0-1.5,0.3-2.2,0.8c-0.9,0.7-1.6,1.6-2.1,2.6c-0.3,0.6-0.6,1.9-1.1,4L87.3,145.4z"
   id="path80"
   style="fill:#000000" />
	<path
   class="st0"
   d="M106.2,128.4h4.6l-2.1,10.1c-0.3,1.2-0.4,2-0.4,2.3c0,0.5,0.2,0.9,0.5,1.3c0.4,0.4,0.8,0.5,1.4,0.5   c0.4,0,0.8-0.1,1.2-0.2s0.8-0.4,1.2-0.7c0.4-0.3,0.8-0.7,1.1-1.1s0.6-0.9,0.9-1.6c0.2-0.5,0.4-1.3,0.7-2.4l1.7-8.1h4.6l-3.6,17   h-4.3l0.5-2.3c-1.9,1.8-3.9,2.7-6.1,2.7c-1.4,0-2.5-0.4-3.3-1.2s-1.2-1.9-1.2-3.2c0-0.6,0.2-1.8,0.5-3.5L106.2,128.4z"
   id="path82"
   style="fill:#000000" />
	<path
   class="st0"
   d="M122.1,140.7l4.4-0.7c0.4,0.9,0.9,1.6,1.5,2c0.6,0.4,1.4,0.6,2.4,0.6s1.9-0.2,2.5-0.7c0.4-0.3,0.7-0.7,0.7-1.2   c0-0.3-0.1-0.6-0.3-0.8s-0.9-0.5-1.9-0.9c-2.8-0.9-4.5-1.6-5.1-2.2c-1-0.8-1.6-1.9-1.6-3.3c0-1.3,0.5-2.5,1.5-3.5   c1.4-1.4,3.5-2,6.2-2c2.2,0,3.8,0.4,5,1.2c1.1,0.8,1.8,1.9,2.1,3.2l-4.2,0.7c-0.2-0.6-0.6-1.1-1.1-1.4c-0.7-0.4-1.5-0.6-2.5-0.6   s-1.7,0.2-2.1,0.5c-0.4,0.3-0.6,0.7-0.6,1.1c0,0.4,0.2,0.8,0.6,1.1c0.3,0.2,1.1,0.5,2.6,0.9c2.2,0.7,3.7,1.3,4.5,1.9   c1.1,0.9,1.6,2,1.6,3.2c0,1.6-0.7,3-2,4.2s-3.3,1.8-5.7,1.8c-2.5,0-4.3-0.5-5.7-1.4C123.5,143.6,122.5,142.3,122.1,140.7z"
   id="path84"
   style="fill:#000000" />
	<path
   class="st0"
   d="M144.4,128.4h4.6l-2.1,10.1c-0.3,1.2-0.4,2-0.4,2.3c0,0.5,0.2,0.9,0.5,1.3c0.4,0.4,0.8,0.5,1.4,0.5   c0.4,0,0.8-0.1,1.2-0.2s0.8-0.4,1.2-0.7s0.8-0.7,1.1-1.1s0.6-0.9,0.9-1.6c0.2-0.5,0.4-1.3,0.7-2.4l1.7-8.1h4.6l-3.6,17H152l0.5-2.3   c-1.9,1.8-3.9,2.7-6.1,2.7c-1.4,0-2.5-0.4-3.3-1.2s-1.2-1.9-1.2-3.2c0-0.6,0.2-1.8,0.5-3.5L144.4,128.4z"
   id="path86"
   style="fill:#000000" />
	<path
   class="st0"
   d="M160.3,140.7l4.4-0.7c0.4,0.9,0.9,1.6,1.5,2s1.4,0.6,2.4,0.6s1.9-0.2,2.5-0.7c0.4-0.3,0.7-0.7,0.7-1.2   c0-0.3-0.1-0.6-0.3-0.8s-0.9-0.5-1.9-0.9c-2.8-0.9-4.5-1.6-5.1-2.2c-1-0.8-1.6-1.9-1.6-3.3c0-1.3,0.5-2.5,1.5-3.5   c1.4-1.4,3.5-2,6.2-2c2.2,0,3.8,0.4,5,1.2c1.1,0.8,1.8,1.9,2.1,3.2l-4.2,0.7c-0.2-0.6-0.6-1.1-1.1-1.4c-0.7-0.4-1.5-0.6-2.5-0.6   s-1.7,0.2-2.1,0.5c-0.4,0.3-0.6,0.7-0.6,1.1c0,0.4,0.2,0.8,0.6,1.1c0.3,0.2,1.1,0.5,2.6,0.9c2.2,0.7,3.7,1.3,4.5,1.9   c1.1,0.9,1.6,2,1.6,3.2c0,1.6-0.7,3-2,4.2s-3.3,1.8-5.7,1.8c-2.5,0-4.3-0.5-5.7-1.4C161.7,143.6,160.8,142.3,160.3,140.7z"
   id="path88"
   style="fill:#000000" />
	<path
   class="st0"
   d="M180.5,128.4h4.6l1.2,8.5c0.3,2.2,0.4,3.7,0.5,4.6c0.6-1.7,1.4-3.6,2.5-5.5l4.1-7.5h4.9l-10.5,18.6   c-0.9,1.5-1.5,2.6-2,3.2c-0.5,0.6-1.1,1.1-1.8,1.5s-1.5,0.5-2.5,0.5s-2.1-0.2-3.3-0.5l0.4-3.4c0.6,0.2,1.1,0.2,1.6,0.2   c1.4,0,2.6-1.1,3.5-3.2L180.5,128.4z"
   id="path90"
   style="fill:#000000" />
	<path
   class="st0"
   d="M206.3,145.4l4.9-23.4h4.6l-2.6,12.2l6-5.7h6l-6.8,6.2l3.6,10.8h-4.6l-2.3-7.9l-3.1,2.8l-1.1,5.1h-4.6   L206.3,145.4L206.3,145.4z"
   id="path92"
   style="fill:#000000" />
	<path
   class="st0"
   d="M231.1,133.3l-4.5-0.4c0.5-1.5,1.4-2.7,2.7-3.5c1.3-0.9,3-1.3,5.1-1.3c2.2,0,3.8,0.4,4.8,1.3   c1,0.9,1.6,2,1.6,3.2c0,0.5,0,1.1-0.1,1.6c-0.1,0.6-0.4,2.1-1,4.5c-0.4,2-0.7,3.4-0.7,4.3c0,0.7,0.1,1.5,0.4,2.4h-4.5   c-0.2-0.6-0.3-1.3-0.3-1.9c-0.7,0.7-1.4,1.3-2.3,1.7c-0.9,0.4-1.8,0.6-2.6,0.6c-1.4,0-2.6-0.5-3.5-1.4s-1.4-2.1-1.4-3.6   c0-1.6,0.5-2.9,1.5-3.9s2.8-1.6,5.4-1.8c2.2-0.2,3.6-0.4,4.4-0.7c0.2-0.6,0.3-1.2,0.3-1.5c0-0.5-0.2-0.9-0.6-1.2   c-0.4-0.3-1-0.5-1.8-0.5s-1.5,0.2-1.9,0.5C231.6,132.2,231.3,132.6,231.1,133.3z M235.5,137.5c-0.3,0.1-0.6,0.1-1.1,0.2   c-2.3,0.3-3.8,0.7-4.5,1.2c-0.5,0.4-0.8,0.9-0.8,1.6c0,0.5,0.2,1,0.6,1.4c0.4,0.4,0.9,0.6,1.5,0.6c0.7,0,1.3-0.2,2-0.5   c0.6-0.3,1.1-0.8,1.4-1.3c0.3-0.5,0.6-1.4,0.8-2.5L235.5,137.5z M230.8,121.9h3.9l-0.8,3.9H230L230.8,121.9z M237.5,121.9h3.9   l-0.8,3.9h-3.9L237.5,121.9z"
   id="path94"
   style="fill:#000000" />
	<path
   class="st0"
   d="M246.1,128.4h4.3l-0.7,3.3c1.6-2.5,3.3-3.7,5.2-3.7c0.7,0,1.4,0.2,2.1,0.5l-1.8,3.8c-0.4-0.1-0.9-0.2-1.3-0.2   c-0.8,0-1.6,0.3-2.4,0.9c-0.8,0.6-1.5,1.4-1.9,2.4c-0.5,1-0.9,2.6-1.4,4.7l-1.1,5.3h-4.6L246.1,128.4z"
   id="path96"
   style="fill:#000000" />
	<path
   class="st0"
   d="M260.2,145.4h-4.6l4.9-23.4h4.6l-1.8,8.3c1-0.8,2-1.4,2.9-1.8s1.9-0.5,2.9-0.5c1.4,0,2.5,0.4,3.3,1.2   s1.2,1.8,1.2,3.1c0,0.7-0.1,1.7-0.4,3.2l-2.1,9.9h-4.6l2.1-10.1c0.2-1.1,0.3-1.8,0.3-2.1c0-0.6-0.2-1-0.5-1.4s-0.8-0.5-1.4-0.5   c-0.8,0-1.5,0.3-2.2,0.8c-0.9,0.7-1.6,1.6-2.1,2.6c-0.3,0.6-0.6,1.9-1.1,4L260.2,145.4z"
   id="path98"
   style="fill:#000000" />
	<path
   class="st0"
   d="M282.1,133.3l-4.5-0.4c0.5-1.5,1.4-2.7,2.7-3.5c1.3-0.9,3-1.3,5.1-1.3c2.2,0,3.8,0.4,4.8,1.3   c1,0.9,1.6,2,1.6,3.2c0,0.5,0,1.1-0.1,1.6c-0.1,0.6-0.4,2.1-1,4.5c-0.4,2-0.7,3.4-0.7,4.3c0,0.7,0.1,1.5,0.4,2.4h-4.5   c-0.2-0.6-0.3-1.3-0.3-1.9c-0.7,0.7-1.4,1.3-2.3,1.7s-1.8,0.6-2.6,0.6c-1.4,0-2.6-0.5-3.5-1.4s-1.4-2.1-1.4-3.6   c0-1.6,0.5-2.9,1.5-3.9s2.8-1.6,5.4-1.8c2.2-0.2,3.6-0.4,4.4-0.7c0.2-0.6,0.3-1.2,0.3-1.5c0-0.5-0.2-0.9-0.6-1.2s-1-0.5-1.8-0.5   s-1.5,0.2-1.9,0.5S282.2,132.6,282.1,133.3z M286.4,137.5c-0.3,0.1-0.6,0.1-1.1,0.2c-2.3,0.3-3.8,0.7-4.5,1.2   c-0.5,0.4-0.8,0.9-0.8,1.6c0,0.5,0.2,1,0.6,1.4s0.9,0.6,1.5,0.6c0.7,0,1.3-0.2,2-0.5s1.1-0.8,1.4-1.3s0.6-1.4,0.8-2.5L286.4,137.5z   "
   id="path100"
   style="fill:#000000" />
	<path
   class="st0"
   d="M297.4,128.4h4.4l-0.4,2.2c1.1-0.9,2.1-1.6,3-2s1.9-0.6,3-0.6c1.4,0,2.5,0.4,3.3,1.2s1.2,1.9,1.2,3.2   c0,0.6-0.2,1.7-0.5,3.4l-2,9.6h-4.6l2-9.6c0.3-1.4,0.4-2.3,0.4-2.6c0-0.6-0.2-1-0.5-1.4c-0.3-0.3-0.8-0.5-1.4-0.5   c-0.7,0-1.4,0.3-2.2,0.8c-0.8,0.6-1.5,1.3-1.9,2.2c-0.3,0.7-0.7,2-1.2,4l-1.5,7h-4.6L297.4,128.4z"
   id="path102"
   style="fill:#000000" />
	<path
   class="st0"
   d="M320.3,133.3l-4.5-0.4c0.5-1.5,1.4-2.7,2.7-3.5c1.3-0.9,3-1.3,5.1-1.3c2.2,0,3.8,0.4,4.8,1.3   c1,0.9,1.6,2,1.6,3.2c0,0.5,0,1.1-0.1,1.6c-0.1,0.6-0.4,2.1-1,4.5c-0.4,2-0.7,3.4-0.7,4.3c0,0.7,0.1,1.5,0.4,2.4h-4.5   c-0.2-0.6-0.3-1.3-0.3-1.9c-0.7,0.7-1.4,1.3-2.3,1.7s-1.8,0.6-2.6,0.6c-1.4,0-2.6-0.5-3.5-1.4s-1.4-2.1-1.4-3.6   c0-1.6,0.5-2.9,1.5-3.9s2.8-1.6,5.4-1.8c2.2-0.2,3.6-0.4,4.4-0.7c0.2-0.6,0.3-1.2,0.3-1.5c0-0.5-0.2-0.9-0.6-1.2s-1-0.5-1.8-0.5   s-1.5,0.2-1.9,0.5S320.5,132.6,320.3,133.3z M324.7,137.5c-0.3,0.1-0.6,0.1-1.1,0.2c-2.3,0.3-3.8,0.7-4.5,1.2   c-0.5,0.4-0.8,0.9-0.8,1.6c0,0.5,0.2,1,0.6,1.4s0.9,0.6,1.5,0.6c0.7,0,1.3-0.2,2-0.5s1.1-0.8,1.4-1.3s0.6-1.4,0.8-2.5L324.7,137.5z   "
   id="path104"
   style="fill:#000000" />
	<path
   class="st0"
   d="M331.4,140.7l4.4-0.7c0.4,0.9,0.9,1.6,1.5,2s1.4,0.6,2.4,0.6s1.9-0.2,2.5-0.7c0.4-0.3,0.7-0.7,0.7-1.2   c0-0.3-0.1-0.6-0.3-0.8c-0.2-0.2-0.9-0.5-1.9-0.9c-2.8-0.9-4.5-1.6-5.2-2.2c-1-0.8-1.6-1.9-1.6-3.3c0-1.3,0.5-2.5,1.5-3.5   c1.4-1.4,3.5-2,6.2-2c2.2,0,3.8,0.4,5,1.2c1.1,0.8,1.8,1.9,2.1,3.2l-4.2,0.7c-0.2-0.6-0.6-1.1-1.1-1.4c-0.7-0.4-1.5-0.6-2.5-0.6   s-1.6,0.2-2.1,0.5c-0.4,0.3-0.6,0.7-0.6,1.1c0,0.4,0.2,0.8,0.6,1.1c0.3,0.2,1.1,0.5,2.6,0.9c2.2,0.7,3.7,1.3,4.5,1.9   c1.1,0.9,1.6,2,1.6,3.2c0,1.6-0.7,3-2,4.2s-3.3,1.8-5.7,1.8c-2.5,0-4.3-0.5-5.7-1.4S331.9,142.3,331.4,140.7z"
   id="path106"
   style="fill:#000000" />
	<path
   class="st0"
   d="M351.7,128.4h4.6l1.2,8.5c0.3,2.2,0.4,3.7,0.5,4.6c0.6-1.7,1.4-3.6,2.5-5.5l4.1-7.5h4.9L359,147.1   c-0.9,1.5-1.5,2.6-2,3.2c-0.5,0.6-1.1,1.1-1.8,1.5c-0.7,0.4-1.5,0.5-2.5,0.5s-2.1-0.2-3.3-0.5l0.4-3.4c0.6,0.2,1.1,0.2,1.6,0.2   c1.4,0,2.6-1.1,3.5-3.2L351.7,128.4z"
   id="path108"
   style="fill:#000000" />
</g>
</svg>
