<?xml version="1.0" encoding="UTF-8" standalone="no"?>
<!-- Created with Inkscape (http://www.inkscape.org/) -->

<svg
   width="81.089043mm"
   height="10.339884mm"
   viewBox="0 0 81.089043 10.339884"
   version="1.1"
   id="svg5"
   inkscape:version="1.2.2 (b0a84865, 2022-12-01)"
   sodipodi:docname="dagdeniz.svg"
   xmlns:inkscape="http://www.inkscape.org/namespaces/inkscape"
   xmlns:sodipodi="http://sodipodi.sourceforge.net/DTD/sodipodi-0.dtd"
   xmlns="http://www.w3.org/2000/svg"
   xmlns:svg="http://www.w3.org/2000/svg">
  <sodipodi:namedview
     id="namedview7"
     pagecolor="#ffffff"
     bordercolor="#666666"
     borderopacity="1.0"
     inkscape:showpageshadow="2"
     inkscape:pageopacity="0.0"
     inkscape:pagecheckerboard="0"
     inkscape:deskcolor="#d1d1d1"
     inkscape:document-units="mm"
     showgrid="false"
     inkscape:zoom="0.84096521"
     inkscape:cx="115.34365"
     inkscape:cy="87.994128"
     inkscape:window-width="1309"
     inkscape:window-height="456"
     inkscape:window-x="1735"
     inkscape:window-y="179"
     inkscape:window-maximized="0"
     inkscape:current-layer="layer1" />
  <defs
     id="defs2" />
  <g
     inkscape:label="Layer 1"
     inkscape:groupmode="layer"
     id="layer1"
     transform="translate(-53.385099,-144.26487)">
    <g
       aria-label="IE &quot;DAG-DEŇIZ&quot;"
       id="text236"
       style="font-size:10.5833px;line-height:1.25;stroke-width:0.264583">
      <path
         d="m 53.385099,154.47775 v -1.28058 h 0.952497 v -4.82598 h -0.952497 v -1.28058 h 3.513656 v 1.28058 h -0.952497 v 4.82598 h 0.952497 v 1.28058 z"
         style="font-weight:bold;font-family:'IBM Plex Sans';-inkscape-font-specification:'IBM Plex Sans, Bold'"
         id="path131" />
      <path
         d="m 58.242825,154.47775 v -7.38714 h 5.027068 v 1.42874 h -3.418406 v 1.51342 h 2.931574 v 1.41816 h -2.931574 v 1.59808 h 3.418406 v 1.42874 z"
         style="font-weight:bold;font-family:'IBM Plex Sans';-inkscape-font-specification:'IBM Plex Sans, Bold'"
         id="path133" />
      <path
         d="m 67.069261,150.09627 v -3.45016 h 1.396996 v 3.45016 z m 2.381243,0 v -3.45016 h 1.396995 v 3.45016 z"
         style="font-weight:bold;font-family:'IBM Plex Sans';-inkscape-font-specification:'IBM Plex Sans, Bold'"
         id="path135" />
      <path
         d="m 72.382058,147.09061 h 2.783408 q 0.730248,0 1.333496,0.23283 0.603248,0.23283 1.02658,0.6985 0.423332,0.45508 0.656165,1.15358 0.232832,0.68791 0.232832,1.60866 0,0.92075 -0.232832,1.61925 -0.232833,0.68791 -0.656165,1.15358 -0.423332,0.45508 -1.02658,0.68791 -0.603248,0.23283 -1.333496,0.23283 h -2.783408 z m 2.783408,5.9584 q 0.719665,0 1.132413,-0.40217 0.412749,-0.40216 0.412749,-1.29116 v -1.143 q 0,-0.88899 -0.412749,-1.29116 -0.412748,-0.40217 -1.132413,-0.40217 H 73.99072 v 4.52966 z"
         style="font-weight:bold;font-family:'IBM Plex Sans';-inkscape-font-specification:'IBM Plex Sans, Bold'"
         id="path137" />
      <path
         d="m 83.917832,154.47775 -0.529165,-1.75683 h -2.465909 l -0.529165,1.75683 h -1.629828 l 2.434159,-7.38714 h 1.98966 l 2.402409,7.38714 z m -1.746244,-5.92665 h -0.05292 l -0.814914,2.80458 h 1.693328 z"
         style="font-weight:bold;font-family:'IBM Plex Sans';-inkscape-font-specification:'IBM Plex Sans, Bold'"
         id="path139" />
      <path
         d="m 90.987462,153.30301 h -0.05292 q -0.08467,0.56091 -0.571498,0.93133 -0.486832,0.37041 -1.322912,0.37041 -0.634998,0 -1.18533,-0.24341 -0.550331,-0.24342 -0.96308,-0.71967 -0.412749,-0.47625 -0.645581,-1.18533 -0.232833,-0.70908 -0.232833,-1.64041 0,-0.93133 0.243416,-1.65099 0.243416,-0.71967 0.677331,-1.2065 0.444499,-0.48683 1.05833,-0.74083 0.613832,-0.254 1.365246,-0.254 0.99483,0 1.714494,0.43392 0.719665,0.42333 1.132413,1.28057 l -1.312329,0.75142 q -0.169333,-0.43392 -0.529165,-0.73025 -0.359832,-0.30691 -1.005413,-0.30691 -0.751414,0 -1.195913,0.43391 -0.444499,0.43392 -0.444499,1.36525 v 1.18533 q 0,0.92074 0.444499,1.36524 0.444499,0.43392 1.195913,0.43392 0.296332,0 0.560915,-0.0635 0.264582,-0.0741 0.465665,-0.21167 0.201083,-0.14817 0.306916,-0.34925 0.116416,-0.20108 0.116416,-0.47625 v -0.37041 h -1.375829 v -1.34408 h 2.910407 v 4.1169 h -1.354662 z"
         style="font-weight:bold;font-family:'IBM Plex Sans';-inkscape-font-specification:'IBM Plex Sans, Bold'"
         id="path141" />
      <path
         d="m 93.760271,152.01184 v -1.52399 h 3.14324 v 1.52399 z"
         style="font-weight:bold;font-family:'IBM Plex Sans';-inkscape-font-specification:'IBM Plex Sans, Bold'"
         id="path143" />
      <path
         d="m 98.279338,147.09061 h 2.783412 q 0.73024,0 1.33349,0.23283 0.60325,0.23283 1.02658,0.6985 0.42333,0.45508 0.65617,1.15358 0.23283,0.68791 0.23283,1.60866 0,0.92075 -0.23283,1.61925 -0.23284,0.68791 -0.65617,1.15358 -0.42333,0.45508 -1.02658,0.68791 -0.60325,0.23283 -1.33349,0.23283 h -2.783412 z m 2.783412,5.9584 q 0.71966,0 1.13241,-0.40217 0.41275,-0.40216 0.41275,-1.29116 v -1.143 q 0,-0.88899 -0.41275,-1.29116 -0.41275,-0.40217 -1.13241,-0.40217 H 99.888 v 4.52966 z"
         style="font-weight:bold;font-family:'IBM Plex Sans';-inkscape-font-specification:'IBM Plex Sans, Bold'"
         id="path145" />
      <path
         d="m 105.65588,154.47775 v -7.38714 h 5.02707 v 1.42874 h -3.41841 v 1.51342 h 2.93158 v 1.41816 h -2.93158 v 1.59808 h 3.41841 v 1.42874 z"
         style="font-weight:bold;font-family:'IBM Plex Sans';-inkscape-font-specification:'IBM Plex Sans, Bold'"
         id="path147" />
      <path
         d="m 114.33417,150.98526 -0.70908,-1.48166 h -0.0318 v 4.97415 h -1.51341 v -7.38714 h 1.75683 l 2.02141,3.49249 0.70908,1.48166 h 0.0318 v -4.97415 h 1.51341 v 7.38714 h -1.75683 z m 0.0952,-4.42382 -1.39699,-1.68274 0.77258,-0.61383 1.28058,1.21708 1.28058,-1.21708 0.77258,0.61383 -1.397,1.68274 z"
         style="font-weight:bold;font-family:'IBM Plex Sans';-inkscape-font-specification:'IBM Plex Sans, Bold'"
         id="path149" />
      <path
         d="m 119.45648,154.47775 v -1.28058 h 0.9525 v -4.82598 h -0.9525 v -1.28058 h 3.51366 v 1.28058 h -0.9525 v 4.82598 h 0.9525 v 1.28058 z"
         style="font-weight:bold;font-family:'IBM Plex Sans';-inkscape-font-specification:'IBM Plex Sans, Bold'"
         id="path151" />
      <path
         d="m 129.5106,154.47775 h -5.59856 v -1.42874 l 3.64065,-4.52966 h -3.46073 v -1.42874 h 5.33398 v 1.42874 l -3.65124,4.52966 h 3.7359 z"
         style="font-weight:bold;font-family:'IBM Plex Sans';-inkscape-font-specification:'IBM Plex Sans, Bold'"
         id="path153" />
      <path
         d="m 130.69591,150.09627 v -3.45016 h 1.39699 v 3.45016 z m 2.38124,0 v -3.45016 h 1.39699 v 3.45016 z"
         style="font-weight:bold;font-family:'IBM Plex Sans';-inkscape-font-specification:'IBM Plex Sans, Bold'"
         id="path155" />
    </g>
  </g>
</svg>
