<?xml version="1.0" encoding="UTF-8" standalone="no"?>
<!-- Created with Inkscape (http://www.inkscape.org/) -->

<svg
   width="80.274193mm"
   height="7.6411424mm"
   viewBox="0 0 80.274194 7.6411425"
   version="1.1"
   id="svg5"
   inkscape:version="1.2.2 (b0a84865, 2022-12-01)"
   sodipodi:docname="garrylukman.svg"
   xmlns:inkscape="http://www.inkscape.org/namespaces/inkscape"
   xmlns:sodipodi="http://sodipodi.sourceforge.net/DTD/sodipodi-0.dtd"
   xmlns="http://www.w3.org/2000/svg"
   xmlns:svg="http://www.w3.org/2000/svg">
  <sodipodi:namedview
     id="namedview7"
     pagecolor="#ffffff"
     bordercolor="#666666"
     borderopacity="1.0"
     inkscape:showpageshadow="2"
     inkscape:pageopacity="0.0"
     inkscape:pagecheckerboard="0"
     inkscape:deskcolor="#d1d1d1"
     inkscape:document-units="mm"
     showgrid="false"
     inkscape:zoom="0.84096521"
     inkscape:cx="70.15748"
     inkscape:cy="77.292139"
     inkscape:window-width="1309"
     inkscape:window-height="456"
     inkscape:window-x="1752"
     inkscape:window-y="188"
     inkscape:window-maximized="0"
     inkscape:current-layer="layer1" />
  <defs
     id="defs2" />
  <g
     inkscape:label="Layer 1"
     inkscape:groupmode="layer"
     id="layer1"
     transform="translate(-53.385099,-146.96361)">
    <g
       aria-label="GARRY LUKMAN"
       id="text236"
       style="font-size:10.5833px;line-height:1.25;stroke-width:0.264583">
      <path
         d="m 58.35925,153.30301 h -0.05292 q -0.08467,0.56091 -0.571498,0.93133 -0.486832,0.37041 -1.322912,0.37041 -0.634998,0 -1.18533,-0.24341 -0.550331,-0.24342 -0.96308,-0.71967 -0.412749,-0.47625 -0.645581,-1.18533 -0.232833,-0.70908 -0.232833,-1.64041 0,-0.93133 0.243416,-1.65099 0.243416,-0.71967 0.677331,-1.2065 0.444499,-0.48683 1.05833,-0.74083 0.613832,-0.254 1.365246,-0.254 0.99483,0 1.714494,0.43392 0.719665,0.42333 1.132413,1.28057 L 58.264,149.42952 q -0.169333,-0.43392 -0.529165,-0.73025 -0.359832,-0.30691 -1.005413,-0.30691 -0.751414,0 -1.195913,0.43391 -0.444499,0.43392 -0.444499,1.36525 v 1.18533 q 0,0.92074 0.444499,1.36524 0.444499,0.43392 1.195913,0.43392 0.296332,0 0.560915,-0.0635 0.264582,-0.0741 0.465665,-0.21167 0.201083,-0.14817 0.306916,-0.34925 0.116416,-0.20108 0.116416,-0.47625 v -0.37041 h -1.375829 v -1.34408 h 2.910407 v 4.1169 H 58.35925 Z"
         style="font-weight:bold;font-family:'IBM Plex Sans';-inkscape-font-specification:'IBM Plex Sans, Bold'"
         id="path391" />
      <path
         d="m 65.831058,154.47775 -0.529165,-1.75683 h -2.465909 l -0.529165,1.75683 h -1.629828 l 2.434159,-7.38714 h 1.989661 l 2.402409,7.38714 z m -1.746244,-5.92665 h -0.05292 l -0.814914,2.80458 h 1.693328 z"
         style="font-weight:bold;font-family:'IBM Plex Sans';-inkscape-font-specification:'IBM Plex Sans, Bold'"
         id="path393" />
      <path
         d="m 70.138456,154.47775 h -1.608662 v -7.38714 h 3.503072 q 0.507999,0 0.920747,0.16933 0.412749,0.16934 0.698498,0.48683 0.296332,0.30692 0.455082,0.74084 0.158749,0.43391 0.158749,0.96308 0,0.75141 -0.338665,1.31232 -0.328082,0.56092 -1.005414,0.81492 l 1.449912,2.89982 h -1.788577 l -1.291163,-2.70932 h -1.153579 z m 1.693328,-4.06398 q 0.359832,0 0.560914,-0.17992 0.211666,-0.1905 0.211666,-0.55033 v -0.46567 q 0,-0.35983 -0.211666,-0.53975 -0.201082,-0.19049 -0.560914,-0.19049 h -1.693328 v 1.92616 z"
         style="font-weight:bold;font-family:'IBM Plex Sans';-inkscape-font-specification:'IBM Plex Sans, Bold'"
         id="path395" />
      <path
         d="m 77.271598,154.47775 h -1.608661 v -7.38714 h 3.503072 q 0.507998,0 0.920747,0.16933 0.412748,0.16934 0.698498,0.48683 0.296332,0.30692 0.455081,0.74084 0.15875,0.43391 0.15875,0.96308 0,0.75141 -0.338666,1.31232 -0.328082,0.56092 -1.005413,0.81492 l 1.449912,2.89982 H 79.71634 l -1.291162,-2.70932 h -1.15358 z m 1.693328,-4.06398 q 0.359832,0 0.560915,-0.17992 0.211666,-0.1905 0.211666,-0.55033 v -0.46567 q 0,-0.35983 -0.211666,-0.53975 -0.201083,-0.19049 -0.560915,-0.19049 h -1.693328 v 1.92616 z"
         style="font-weight:bold;font-family:'IBM Plex Sans';-inkscape-font-specification:'IBM Plex Sans, Bold'"
         id="path397" />
      <path
         d="m 84.18248,154.47775 v -2.88924 l -2.529409,-4.4979 h 1.799161 l 1.587495,2.94216 h 0.02117 l 1.523996,-2.94216 h 1.746244 l -2.529409,4.48732 v 2.89982 z"
         style="font-weight:bold;font-family:'IBM Plex Sans';-inkscape-font-specification:'IBM Plex Sans, Bold'"
         id="path399" />
      <path
         d="m 91.738918,154.47775 v -7.38714 h 1.608661 v 5.9584 h 2.815158 v 1.42874 z"
         style="font-weight:bold;font-family:'IBM Plex Sans';-inkscape-font-specification:'IBM Plex Sans, Bold'"
         id="path401" />
      <path
         d="m 98.522789,147.09061 v 4.52965 q 0,0.78317 0.306916,1.17475 0.306915,0.381 1.02658,0.381 0.719665,0 1.026575,-0.381 0.30692,-0.39158 0.30692,-1.17475 v -4.52965 h 1.56633 v 4.36032 q 0,0.81491 -0.15875,1.41816 -0.14817,0.59267 -0.49742,0.98425 -0.34924,0.381 -0.89958,0.5715 -0.55033,0.17991 -1.344075,0.17991 -0.793748,0 -1.344079,-0.17991 -0.550332,-0.1905 -0.899581,-0.5715 -0.349249,-0.39158 -0.507998,-0.98425 -0.148166,-0.60325 -0.148166,-1.41816 v -4.36032 z"
         style="font-weight:bold;font-family:'IBM Plex Sans';-inkscape-font-specification:'IBM Plex Sans, Bold'"
         id="path403" />
      <path
         d="m 106.91533,151.26043 -0.96308,1.16416 v 2.05316 h -1.60866 v -7.38714 h 1.60866 v 3.51366 h 0.0635 l 1.04775,-1.42875 1.66158,-2.08491 h 1.82032 l -2.48707,3.03741 2.70932,4.34973 h -1.89441 z"
         style="font-weight:bold;font-family:'IBM Plex Sans';-inkscape-font-specification:'IBM Plex Sans, Bold'"
         id="path405" />
      <path
         d="m 117.23404,149.6306 h -0.0317 l -0.53975,1.0795 -1.43933,2.61407 -1.40758,-2.60349 -0.56091,-1.16416 h -0.0318 v 4.92123 h -1.51341 v -7.38714 h 1.70391 l 1.80974,3.46074 h 0.0212 l 1.78858,-3.46074 h 1.71449 v 7.38714 h -1.51341 z"
         style="font-weight:bold;font-family:'IBM Plex Sans';-inkscape-font-specification:'IBM Plex Sans, Bold'"
         id="path407" />
      <path
         d="m 124.92808,154.47775 -0.52916,-1.75683 h -2.46591 l -0.52917,1.75683 h -1.62983 l 2.43416,-7.38714 h 1.98966 l 2.40241,7.38714 z m -1.74624,-5.92665 h -0.0529 l -0.81491,2.80458 h 1.69332 z"
         style="font-weight:bold;font-family:'IBM Plex Sans';-inkscape-font-specification:'IBM Plex Sans, Bold'"
         id="path409" />
      <path
         d="m 129.88105,150.98526 -0.70908,-1.48166 h -0.0317 v 4.97415 h -1.51341 v -7.38714 h 1.75683 l 2.02141,3.49249 0.70908,1.48166 h 0.0318 v -4.97415 h 1.51341 v 7.38714 h -1.75683 z"
         style="font-weight:bold;font-family:'IBM Plex Sans';-inkscape-font-specification:'IBM Plex Sans, Bold'"
         id="path411" />
    </g>
  </g>
</svg>
