<?xml version="1.0" encoding="UTF-8" standalone="no"?>
<svg
   width="200.27072"
   height="122.16206"
   viewBox="0 0 200.27072 122.16206"
   fill="none"
   version="1.1"
   id="svg28"
   sodipodi:docname="institutfrancais.svg"
   inkscape:version="1.2.2 (b0a84865, 2022-12-01)"
   xmlns:inkscape="http://www.inkscape.org/namespaces/inkscape"
   xmlns:sodipodi="http://sodipodi.sourceforge.net/DTD/sodipodi-0.dtd"
   xmlns="http://www.w3.org/2000/svg"
   xmlns:svg="http://www.w3.org/2000/svg">
  <defs
     id="defs32" />
  <sodipodi:namedview
     id="namedview30"
     pagecolor="#ffffff"
     bordercolor="#666666"
     borderopacity="1.0"
     inkscape:showpageshadow="2"
     inkscape:pageopacity="0.0"
     inkscape:pagecheckerboard="0"
     inkscape:deskcolor="#d1d1d1"
     showgrid="false"
     inkscape:zoom="1.9032258"
     inkscape:cx="79.864407"
     inkscape:cy="60.949153"
     inkscape:window-width="1309"
     inkscape:window-height="456"
     inkscape:window-x="1886"
     inkscape:window-y="500"
     inkscape:window-maximized="0"
     inkscape:current-layer="svg28" />
  <path
     d="m 35.978824,32.013155 h -4.0352 v 19.9313 h 4.0352 z"
     fill="#3558A2"
     id="path4"
     style="fill:#000000" />
  <path
     d="m 93.186524,36.258055 v -4.2324 h -14.3239 v 4.2324 h 5.1381 v 23.9251 h 4.0478 v -23.9251 z"
     fill="#3558A2"
     id="path6"
     style="fill:#000000" />
  <path
     d="m 101.33272,32.013155 h -4.035696 v 19.9313 h 4.035696 z"
     fill="#3558A2"
     id="path8"
     style="fill:#000000" />
  <path
     d="m 140.53172,53.049655 v -21.0365 h -3.998 v 21.1621 c 0,1.482 -0.375,4.9106 -3.872,4.9106 -3.559,0 -3.835,-3.7928 -3.835,-4.9483 v -21.1244 h -4.035 v 21.2877 c 0,5.3878 3.246,9.1556 7.883,9.1556 0.275,0 0.551,-0.0126 0.827,-0.0377 l -6.366,27.7305 h 4.285 l 1.592,-7.8871 h 5.94 l 1.629,7.8871 h 4.411 l -6.829,-29.9284 c 1.503,-1.6326 2.368,-4.0817 2.368,-7.1712 z m -6.717,25.1056 1.015,-4.9357 c 0.313,-1.595 0.752,-4.0566 1.028,-5.5637 h 0.2 c 0.263,1.5197 0.715,4.0064 1.028,5.5637 l 1.015,4.9357 z"
     fill="#3558A2"
     id="path10"
     style="fill:#000000" />
  <path
     d="m 157.98872,32.013155 h -14.324 v 4.2324 h 5.138 v 25.9597 h 4.048 v -25.9597 h 5.138 z"
     fill="#3558A2"
     id="path12"
     style="fill:#000000" />
  <path
     d="m 60.478524,76.359355 c 2.8322,-1.2685 4.2734,-3.9059 4.2734,-7.8495 0,-5.0487 -2.7445,-8.1257 -7.3687,-8.3266 v -28.1701 h -3.9601 v 13.1996 c 0,1.1178 0.0251,3.4915 0.0501,4.9985 l -0.2005,0.0503 -0.3258,-0.8415 c -0.4261,-1.1052 -0.9399,-2.4113 -1.2657,-3.1774 l -5.9652,-14.2295 h -4.0853 v 28.1575 h -9.6871 v 29.966 h 4.0352 v -13.5764 h 6.0153 v -4.157 h -6.0153 v -8.0378 h 9.5994 v -2.3863 -1.8085 -13.187 c 0,-1.1178 -0.0251,-3.4915 -0.0501,-4.9986 l 0.2005,-0.0502 0.3258,0.854 c 0.4261,1.1052 0.9399,2.3988 1.2657,3.1649 l 5.9276,14.2169 h -4.2609 v 29.966 h 4.0353 v -12.9861 l 3.133,0.0754 4.1229,12.9233 h 4.5616 l -4.4739,-13.7522 z m -3.8723,-3.3533 h -3.559 v -8.6281 h 3.559 c 2.569,0 3.9976,1.5197 3.9976,4.2701 -0.0125,2.8886 -1.3534,4.358 -3.9976,4.358 z"
     fill="#3558A2"
     id="path14"
     style="fill:#000000" />
  <path
     d="m 74.338824,60.183155 c 1.4913,-1.5196 2.4562,-3.6547 2.4562,-6.0158 0,-4.8101 -3.3836,-7.3471 -6.8048,-9.6956 -3.1705,-2.1727 -4.0477,-3.0393 -4.0477,-5.1995 0,-1.8462 1.391,-3.4035 3.1705,-3.4035 1.4788,0 2.7194,0.8917 3.6342,2.336 l 3.0327,-2.5997 c -1.3785,-2.5621 -3.7971,-4.0692 -6.6669,-4.0692 -4.3109,0 -7.3812,3.7678 -7.3812,7.8746 0,4.7724 2.6066,6.6061 5.7019,8.7788 3.6844,2.5997 5.0504,3.7677 5.0504,6.0911 0,1.9341 -1.5039,3.8306 -3.5841,3.8306 -1.5289,0 -2.5816,-0.9545 -4.336,-3.2403 l -3.1706,2.7881 c 1.8297,3.2026 4.3736,4.8604 7.5567,4.8604 1.7544,0 3.4212,-0.6782 4.7621,-1.7959 l -6.7547,29.4134 h 4.2859 l 1.5916,-7.8871 h 5.94 l 1.6292,7.8871 h 4.3986 l -6.8423,-29.966 h -3.6217 z m -0.6517,17.9721 1.0151,-4.9357 c 0.3133,-1.595 0.7644,-4.0566 1.0276,-5.5637 h 0.2005 c 0.2632,1.5196 0.7143,4.0063 1.0276,5.5637 l 1.0151,4.9357 z"
     fill="#3558A2"
     id="path16"
     style="fill:#000000" />
  <path
     d="m 99.840724,73.370255 c 0,1.1178 0.025,3.504 0.05,5.0111 l -0.2,0.0502 -0.326,-0.854 c -0.4261,-1.1052 -0.9399,-2.4113 -1.2657,-3.1774 l -5.9652,-14.2295 h -4.0854 v 29.966 h 3.9601 v -14.9704 c 0,-1.1178 -0.0251,-3.4915 -0.0501,-4.9986 l 0.2005,-0.0502 0.3258,0.8415 c 0.4261,1.1052 0.9399,2.4113 1.2657,3.1774 l 6.679296,16.0129 h 3.371 v -29.966 h -3.959996 z"
     fill="#3558A2"
     id="path18"
     style="fill:#000000" />
  <path
     d="m 152.83772,69.991955 h -4.035 v 20.1573 h 4.035 z"
     fill="#3558A2"
     id="path20"
     style="fill:#000000" />
  <path
     d="m 165.57072,72.629255 c -3.158,-2.1728 -4.048,-3.0393 -4.048,-5.1995 0,-1.8462 1.391,-3.4035 3.183,-3.4035 1.479,0 2.719,0.8917 3.634,2.336 l 3.033,-2.5998 c -1.379,-2.562 -3.797,-4.0691 -6.655,-4.0691 -4.311,0 -7.381,3.7803 -7.381,7.8871 0,4.7725 2.607,6.6061 5.702,8.7788 3.672,2.5997 4.687,3.6924 4.687,6.0158 0,1.9341 -1.491,3.818 -3.584,3.818 -1.529,0 -2.582,-0.942 -4.336,-3.2403 l -3.171,2.7882 c 1.83,3.2025 4.374,4.8478 7.557,4.8478 4.148,0 7.82,-3.7426 7.82,-8.3644 0,-4.785 -3.02,-7.2466 -6.441,-9.5951 z"
     fill="#3558A2"
     id="path22"
     style="fill:#000000" />
  <path
     d="m 120.25572,81.747155 c -0.79,3.3282 -1.692,4.5088 -3.434,4.5088 -4.073,0 -4.399,-8.5151 -4.399,-11.1274 0,-4.1194 0.539,-11.052 4.111,-11.052 2.155,0 2.857,1.4945 3.358,4.0691 l 0.013,0.0754 4.072,-1.1052 -0.012,-0.0628 c -0.79,-4.9483 -3.171,-7.3471 -7.319,-7.3471 -0.526,0 -1.027,0.0628 -1.503,0.1633 v -23.6237 h 5.138 v -4.2324 h -14.324 v 4.2324 h 5.138 v 26.4746 c -1.842,2.6123 -2.845,6.8573 -2.845,12.4837 0,8.2137 2.055,13.4634 5.802,14.9705 l -1.265,6.2293 h 3.972 l 1.09,-5.8651 c 3.309,-0.5024 5.276,-2.9137 6.154,-7.5103 l 0.012,-0.0628 -3.759,-1.2811 z"
     fill="#3558A2"
     id="path24"
     style="fill:#000000" />
  <path
     d="M 200.27072,122.16206 H 0 V 0 H 200.27072 Z M 4.085374,118.06806 H 196.19772 V 4.094265 H 4.085374 Z"
     fill="#3558A2"
     id="path26"
     style="fill:#000000" />
</svg>
