<?xml version="1.0" encoding="UTF-8" standalone="no"?>
<!-- Creator: CorelDRAW X8 -->

<svg
   xml:space="preserve"
   width="3.45819in"
   height="1.80578in"
   version="1.1"
   style="shape-rendering:geometricPrecision; text-rendering:geometricPrecision; image-rendering:optimizeQuality; fill-rule:evenodd; clip-rule:evenodd"
   viewBox="0 0 1136 593"
   id="svg41"
   sodipodi:docname="menotm.svg"
   inkscape:version="1.2.2 (b0a84865, 2022-12-01)"
   xmlns:inkscape="http://www.inkscape.org/namespaces/inkscape"
   xmlns:sodipodi="http://sodipodi.sourceforge.net/DTD/sodipodi-0.dtd"
   xmlns="http://www.w3.org/2000/svg"
   xmlns:svg="http://www.w3.org/2000/svg"><sodipodi:namedview
   id="namedview43"
   pagecolor="#ffffff"
   bordercolor="#666666"
   borderopacity="1.0"
   inkscape:showpageshadow="2"
   inkscape:pageopacity="0.0"
   inkscape:pagecheckerboard="0"
   inkscape:deskcolor="#d1d1d1"
   inkscape:document-units="in"
   showgrid="false"
   inkscape:zoom="1.3613692"
   inkscape:cx="138.09626"
   inkscape:cy="86.677443"
   inkscape:window-width="1309"
   inkscape:window-height="456"
   inkscape:window-x="1887"
   inkscape:window-y="410"
   inkscape:window-maximized="0"
   inkscape:current-layer="Layer_x0020_1" />
 <defs
   id="defs4">
  <style
   type="text/css"
   id="style2">
   <![CDATA[
    .fil0 {fill:#636363}
    .fil2 {fill:#636363;fill-rule:nonzero}
    .fil1 {fill:#C13437;fill-rule:nonzero}
   ]]>
  </style>
 </defs>
 <g
   id="Layer_x0020_1"
   inkscape:label="Layer 1">
  <metadata
   id="CorelCorpID_0Corel-Layer" />
  <path
   class="fil0"
   d="M950 149c3,-1 10,-4 14,-6l103 -45c21,-10 37,-14 50,-35 6,-10 15,-32 18,-44 2,-8 1,-11 0,-18 -3,-1 -5,-1 -7,-1l-1 0c-4,0 -7,2 -14,6l-40 21c-4,3 -7,5 -12,7l-86 47c-8,5 -4,18 -13,39 -6,14 -12,20 -12,29z"
   id="path7"
   style="fill:#000000" />
  <g
   id="_2499871973520"
   style="fill:#000000">
   <path
   class="fil0"
   d="M789 267c9,-1 37,-9 46,-12 16,-4 31,-8 46,-13 8,-2 15,-4 22,-6l114 -34c35,-11 53,-12 74,-42 9,-13 18,-26 18,-44 0,-15 -17,-5 -25,-2l-61 24c-13,6 -26,10 -40,16 -13,5 -26,10 -40,16 -40,16 -80,31 -119,48 -12,5 -25,11 -36,17 0,1 -1,2 -1,3 -1,6 1,16 2,29z"
   id="path9"
   style="fill:#000000" />
   <path
   class="fil0"
   d="M793 304l78 -9c25,-3 54,-7 79,-10 8,-2 32,-5 38,-7 12,-4 21,-9 30,-15 4,-3 8,-7 12,-10 11,-10 17,-16 25,-31 2,-3 7,-18 -4,-18 -19,0 -49,11 -69,16l-128 34c-8,2 -53,15 -64,16 1,10 3,22 3,34z"
   id="path11"
   style="fill:#000000" />
   <path
   class="fil0"
   d="M786 340c41,0 89,11 121,-1 19,-7 64,-26 64,-44 0,-8 -14,-3 -19,-3 -41,2 -124,15 -160,16 0,11 -2,21 -6,32z"
   id="path13"
   style="fill:#000000" />
   <path
   class="fil0"
   d="M768 372c13,2 34,10 50,10 21,0 59,-15 63,-30l-50 -4c-16,0 -31,-3 -46,-3 -2,5 -5,10 -9,16 -2,4 -5,8 -8,11z"
   id="path15"
   style="fill:#000000" />
   <path
   class="fil0"
   d="M736 390c1,17 60,18 65,-1 -4,-5 -25,-12 -35,-15 -1,2 -3,4 -6,6 -5,5 -14,10 -23,10 -1,0 -1,0 -1,0z"
   id="path17"
   style="fill:#000000" />
  </g>
  <polygon
   class="fil1"
   points="0,479 36,305 39,305 104,415 165,305 169,305 205,479 165,479 151,402 104,485 102,485 52,401 37,479 "
   id="polygon20"
   style="fill:#000000" />
  <polygon
   id="1"
   class="fil1"
   points="230,479 230,310 336,310 336,345 270,345 270,376 327,376 327,410 270,410 270,443 337,443 337,479 "
   style="fill:#000000" />
  <polygon
   id="2"
   class="fil1"
   points="368,479 368,305 372,305 480,403 480,310 518,310 518,485 514,485 407,387 407,479 "
   style="fill:#000000" />
  <path
   id="3"
   class="fil1"
   d="M589 395c0,14 5,27 13,36 9,10 20,15 33,15 13,0 24,-5 32,-14 9,-10 13,-23 13,-37 0,-15 -4,-28 -13,-38 -8,-9 -19,-14 -32,-14 -13,0 -24,5 -33,14 -8,10 -13,23 -13,38zm-42 0c0,-13 2,-25 6,-35 5,-11 11,-21 20,-30 8,-8 17,-14 28,-19 11,-4 22,-6 34,-6 12,0 23,2 34,6 10,5 20,11 28,19 9,9 15,18 19,29 5,11 7,23 7,36 0,10 -2,20 -5,29 -3,10 -7,18 -13,26 -9,11 -19,19 -31,25 -12,6 -25,9 -39,9 -12,0 -23,-2 -34,-6 -10,-5 -20,-11 -28,-19 -9,-9 -15,-19 -20,-29 -4,-11 -6,-23 -6,-35z"
   style="fill:#000000" />
  <polygon
   class="fil2"
   points="0,593 0,524 12,524 12,583 64,583 64,593 "
   id="polygon25"
   style="fill:#000000" />
  <path
   id="path27"
   class="fil2"
   d="M94 583l55 0 0 -49 -55 0 0 49zm-13 -43c0,-6 2,-10 4,-13 2,-2 6,-3 13,-3l47 0c6,0 10,1 13,3 2,3 3,7 3,13l0 37c0,6 -1,11 -3,13 -2,2 -7,3 -13,3l-47 0c-7,0 -11,-1 -13,-3 -2,-2 -4,-7 -4,-13l0 -37z"
   style="fill:#000000" />
  <path
   id="path29"
   class="fil2"
   d="M253 534l-52 0 0 49 52 0 0 -19 -27 0 0 -9 39 0 0 22c0,6 -1,11 -3,13 -2,2 -7,3 -13,3l-44 0c-7,0 -11,-1 -13,-3 -2,-2 -4,-7 -4,-13l0 -36c0,-7 2,-11 4,-13 2,-3 6,-4 13,-4l44 0c6,0 10,1 13,3 2,3 3,7 3,13l0 2 -12 2 0 -10z"
   style="fill:#000000" />
  <polygon
   id="polygon31"
   class="fil2"
   points="305,593 292,593 292,524 305,524 "
   style="fill:#000000" />
  <path
   id="4"
   class="fil2"
   d="M393 534l-46 0 0 18 42 0c6,0 10,1 13,4 2,2 3,6 3,13l0 8c0,6 -1,11 -3,13 -3,2 -7,3 -13,3l-40 0c-6,0 -11,-1 -13,-3 -2,-2 -3,-7 -3,-13l0 -2 11 -2 0 10 50 0 0 -20 -43 0c-6,0 -10,-1 -12,-3 -2,-2 -4,-7 -4,-13l0 -6c0,-7 2,-11 4,-13 2,-3 6,-4 12,-4l37 0c6,0 10,1 13,3 2,3 3,7 3,12l0 2 -11 2 0 -9z"
   style="fill:#000000" />
  <polygon
   id="5"
   class="fil2"
   points="465,534 465,593 453,593 453,534 422,534 422,524 496,524 496,534 "
   style="fill:#000000" />
  <polygon
   id="6"
   class="fil2"
   points="527,593 515,593 515,524 527,524 "
   style="fill:#000000" />
  <path
   id="7"
   class="fil2"
   d="M614 534l-46 0 0 49 46 0 0 -17 12 3 0 8c0,6 -1,11 -3,13 -2,2 -7,3 -13,3l-38 0c-7,0 -11,-1 -13,-3 -2,-2 -3,-7 -3,-13l0 -37c0,-6 1,-10 3,-13 2,-2 6,-3 13,-3l38 0c6,0 11,1 13,4 2,2 3,6 3,12l0 7 -12 2 0 -15z"
   style="fill:#000000" />
  <path
   id="8"
   class="fil2"
   d="M711 534l-46 0 0 18 42 0c6,0 10,1 12,4 3,2 4,6 4,13l0 8c0,6 -1,11 -3,13 -3,2 -7,3 -13,3l-40 0c-6,0 -11,-1 -13,-3 -2,-2 -3,-7 -3,-13l0 -2 11 -2 0 10 50 0 0 -20 -43 0c-6,0 -10,-1 -12,-3 -3,-2 -4,-7 -4,-13l0 -6c0,-7 1,-11 4,-13 2,-3 6,-4 12,-4l37 0c6,0 10,1 13,3 2,3 3,7 3,12l0 2 -11 2 0 -9z"
   style="fill:#000000" />
  <path
   class="fil0"
   d="M753 309c0,19 -4,49 -28,54l5 24c10,0 19,-5 24,-10 7,-5 12,-11 16,-19 31,-48 8,-102 11,-123 2,-10 111,-54 126,-60 14,-5 27,-14 35,-27 3,-5 32,-57 11,-57 -11,0 -54,26 -66,33l-122 66c-31,18 -38,19 -29,48 7,21 17,47 17,71z"
   id="path38"
   style="fill:#000000" />
 </g>
</svg>
