<?xml version="1.0" encoding="UTF-8" standalone="no"?>
<!-- Generator: Adobe Illustrator 27.1.1, SVG Export Plug-In . SVG Version: 6.00 Build 0)  -->

<svg
   version="1.1"
   id="Ebene_1"
   x="0px"
   y="0px"
   viewBox="0 0 159.49999 47.999998"
   xml:space="preserve"
   sodipodi:docname="militzermuench.svg"
   inkscape:version="1.2.2 (b0a84865, 2022-12-01)"
   width="159.5"
   height="48"
   xmlns:inkscape="http://www.inkscape.org/namespaces/inkscape"
   xmlns:sodipodi="http://sodipodi.sourceforge.net/DTD/sodipodi-0.dtd"
   xmlns="http://www.w3.org/2000/svg"
   xmlns:svg="http://www.w3.org/2000/svg"><defs
   id="defs52" /><sodipodi:namedview
   id="namedview50"
   pagecolor="#ffffff"
   bordercolor="#666666"
   borderopacity="1.0"
   inkscape:showpageshadow="2"
   inkscape:pageopacity="0.0"
   inkscape:pagecheckerboard="0"
   inkscape:deskcolor="#d1d1d1"
   showgrid="false"
   inkscape:zoom="3.2196452"
   inkscape:cx="66.156359"
   inkscape:cy="23.915679"
   inkscape:window-width="1309"
   inkscape:window-height="456"
   inkscape:window-x="1825"
   inkscape:window-y="317"
   inkscape:window-maximized="0"
   inkscape:current-layer="Ebene_1" />
<style
   type="text/css"
   id="style2">
	.Grün_x0020_bogenförmig{fill:url(#SVGID_1_);stroke:#FFFFFF;stroke-width:0.25;stroke-miterlimit:1;}
	.st0{fill-rule:evenodd;clip-rule:evenodd;fill:#2453A1;}
</style>
<linearGradient
   id="SVGID_1_"
   gradientUnits="userSpaceOnUse"
   x1="0"
   y1="595.28027"
   x2="0.70709997"
   y2="594.57318">
	<stop
   offset="0"
   style="stop-color:#1DA238"
   id="stop4" />
	<stop
   offset="0.9831"
   style="stop-color:#24391D"
   id="stop6" />
</linearGradient>
<g
   id="g47"
   style="fill:#000000"
   transform="translate(-7.3,-12.7)">
	<g
   id="g37"
   style="fill:#000000">
		<path
   d="m 16.8,52.3 h 1.9 v 8.1 h -1.4 v -6.7 0 l -3.7,6.7 H 12.4 L 8.7,53.8 v 0 6.6 H 7.3 v -8.1 h 2 L 13,59 Z"
   id="path9"
   style="fill:#000000" />
		<path
   d="m 21.4,52.3 h 1.4 v 8.1 h -1.4 z"
   id="path11"
   style="fill:#000000" />
		<path
   d="M 25.6,52.3 H 27 v 7.1 h 5.7 v 1 h -7.1 z"
   id="path13"
   style="fill:#000000" />
		<path
   d="m 34.4,52.3 h 1.4 v 8.1 h -1.4 z"
   id="path15"
   style="fill:#000000" />
		<path
   d="m 41,53.4 h -3.6 v -1 H 46 v 1 h -3.6 v 7.1 H 41 Z"
   id="path17"
   style="fill:#000000" />
		<path
   d="m 47,59.4 6.7,-6 h -6.3 v -1 h 8.1 v 1 l -6.8,6 h 6.9 v 1 H 47 Z"
   id="path19"
   style="fill:#000000" />
		<path
   d="M 57.4,52.3 H 65 v 1 h -6.2 v 2.4 h 6 v 1 h -6 v 2.6 h 6.3 v 1 h -7.7 z"
   id="path21"
   style="fill:#000000" />
		<path
   d="M 67.2,52.3 H 73 c 1.9,0 2.6,1.1 2.6,2.2 0,1 -0.6,1.7 -1.6,2 v 0 c 0.8,0.1 1.3,0.8 1.4,1.7 0.1,1.5 0.1,1.9 0.4,2.2 H 74.3 C 74.1,60.2 74.1,59.8 74,58.9 74,57.5 73.5,57 72.3,57 h -3.7 v 3.4 h -1.4 z m 5.4,3.7 c 1.4,0 1.7,-0.7 1.7,-1.3 0,-0.8 -0.5,-1.3 -1.7,-1.3 H 68.7 V 56 Z"
   id="path23"
   style="fill:#000000" />
		<path
   d="m 90.1,59.5 c -0.7,0.8 -2,1.1 -3.4,1.1 -2.8,0 -3.7,-1.3 -3.7,-2.4 0,-1 0.7,-1.9 2.5,-2.4 -0.8,-0.6 -1,-1.2 -1,-1.6 0,-1.1 0.9,-1.8 2.4,-1.8 1.5,0 2.4,0.8 2.4,1.8 0,0.6 -0.4,1.4 -1.8,1.9 l 2.5,2 c 0.3,-0.4 0.4,-0.7 0.4,-1.3 h 1.2 c 0,0.6 -0.2,1.3 -0.8,2 l 2.2,1.8 h -1.8 z m -3.9,-3 c -1.5,0.5 -1.8,1.1 -1.8,1.8 0,0.7 0.5,1.5 2.4,1.5 0.9,0 1.9,-0.2 2.4,-0.8 z m 0.5,-1.1 c 1,-0.4 1.4,-0.8 1.4,-1.2 0,-0.5 -0.5,-0.9 -1.1,-0.9 -0.8,0 -1.2,0.4 -1.2,0.8 -0.1,0.4 0.2,0.8 0.9,1.3 z"
   id="path25"
   style="fill:#000000" />
		<path
   d="m 109.1,52.3 h 1.9 v 8.1 h -1.4 v -6.7 0 l -3.7,6.7 h -1.2 L 101,53.8 v 0 6.6 h -1.4 v -8.1 h 2 l 3.7,6.7 z"
   id="path27"
   style="fill:#000000" />
		<path
   d="m 113.7,52.3 h 1.4 v 5.2 c 0,1.5 1.1,2.1 2.9,2.1 1.7,0 2.9,-0.6 2.9,-2.1 v -5.2 h 1.4 v 5.1 c 0,2.2 -1.4,3.3 -4.3,3.3 -2.9,0 -4.3,-1.1 -4.3,-3.3 z m 2,-1.8 h 1.3 v 1.2 h -1.3 z m 3.2,0 h 1.3 v 1.2 h -1.3 z"
   id="path29"
   style="fill:#000000" />
		<path
   d="m 126.3,54 v 0 6.5 h -1.4 v -8.1 h 1.6 l 6.1,6.5 v 0 -6.5 h 1.4 v 8.1 h -1.6 z"
   id="path31"
   style="fill:#000000" />
		<path
   d="m 144.4,55.3 c -0.2,-1.1 -1.2,-2.1 -3.2,-2.1 -2.2,0 -3.6,1.1 -3.6,3.3 0,1.5 1,3.1 3.6,3.1 1.6,0 2.9,-0.7 3.3,-2.3 h 1.4 c -0.2,1.8 -2,3.3 -4.7,3.3 -2.4,0 -5,-1.1 -5,-4.3 0,-2.4 1.7,-4.2 4.9,-4.2 1.9,0 4.5,0.7 4.7,3.1 h -1.4 z"
   id="path33"
   style="fill:#000000" />
		<path
   d="m 155.8,56.6 h -6.4 v 3.8 H 148 v -8.1 h 1.4 v 3.3 h 6.4 v -3.3 h 1.4 v 8.1 h -1.4 z"
   id="path35"
   style="fill:#000000" />
	</g>
	<g
   id="g45"
   style="fill:#000000">
		<path
   class="st0"
   d="m 164.7,18.3 -1,-1.4 c 0.3,0 0.7,-0.1 0.9,-0.4 0.2,-0.4 0.2,-1 0,-1.3 -0.3,-0.3 -0.7,-0.4 -1.1,-0.4 h -0.3 -2.1 v 0.1 h 0.2 c 0.1,0 0.3,0.1 0.3,0.2 0.1,0.1 0.1,0.3 0.1,0.5 V 18 c 0,0.2 0,0.4 -0.1,0.5 0,0.1 -0.2,0.2 -0.3,0.2 h -0.2 v 0.2 h 1.7 v -0.2 h -0.2 c -0.1,0 -0.3,-0.1 -0.3,-0.2 -0.1,-0.1 -0.1,-0.3 -0.1,-0.5 v -1 h 0.8 l 0.1,0.2 1.2,1.6 h 0.9 v -0.2 c -0.1,0 -0.2,0 -0.3,-0.1 0,0 -0.1,-0.1 -0.2,-0.2 z m -2.4,-1.5 v -1.3 c 0,-0.2 0.2,-0.3 0.4,-0.3 0.2,0 0.4,0 0.6,0 0.2,0 0.4,0 0.6,0.1 0.4,0.2 0.5,0.6 0.4,1 -0.1,0.4 -0.5,0.5 -0.9,0.5 z"
   id="path39"
   style="fill:#000000" />
		<path
   class="st0"
   d="m 166.4,15.6 c -0.5,-1 -1.4,-1.8 -2.4,-2.1 -0.4,-0.1 -0.6,-0.1 -1,-0.1 -0.8,0 -1.6,0.2 -2.2,0.7 -0.9,0.7 -1.4,1.7 -1.4,2.8 0,1 0.4,1.9 1.1,2.6 0.7,0.7 1.6,1.1 2.6,1.1 0.2,0 0.3,0 0.5,0 1.1,-0.1 2.1,-0.8 2.7,-1.8 0.2,-0.5 0.4,-1.1 0.5,-1.7 v -0.3 c -0.1,-0.4 -0.2,-0.8 -0.4,-1.2 z m -0.5,3 c -0.5,0.8 -1.4,1.4 -2.4,1.6 -0.1,0 -0.2,0 -0.4,0 -0.9,0 -1.7,-0.4 -2.3,-1 -0.6,-0.6 -1,-1.4 -1,-2.3 0,-1 0.5,-2 1.2,-2.6 0.6,-0.4 1.3,-0.6 2,-0.6 0.3,0 0.6,0 0.8,0.1 1,0.2 1.8,1 2.2,1.9 0.4,1 0.3,2 -0.1,2.9 z"
   id="path41"
   style="fill:#000000" />
		<path
   class="st0"
   d="m 131.2,27.4 c -0.2,1 -0.7,1.6 -1.8,1.6 -0.9,0 -1.5,-0.8 -1.8,-1.6 L 122.2,12.9 H 99.9 v 21 h -2.7 -4.7 l -2.1,0.9 -1,-1.1 c 1,-0.8 2.1,-1.5 2.8,-2.7 0.9,-1.5 1.6,-3.2 1.6,-4.9 0.1,-2.9 -2.8,-6.2 -5.3,-7.3 -2.1,-1 -5.1,-1.3 -7.7,-1.3 -1.5,0 -3,0.2 -4.2,0.4 0,0 -0.1,0 -0.1,0 -4.7,1 -8,3.4 -8.3,8.4 -0.2,2.5 0.5,4.1 2.6,5.4 -1.6,0.4 -3,1.1 -4,2.4 -1.4,1.9 -1.8,4 -2.1,6.2 V 12.8 H 42.4 L 38.3,26.5 C 37.9,27.6 37.5,29 36,29 34.9,28.9 34.2,27.6 33.8,26.6 L 28.9,12.8 H 7.3 v 35 h 16.9 l 0.1,-15.1 c 0,-0.9 0.7,-1.2 1.4,-1.2 0.7,0 1.5,0.3 1.5,1.2 l 0.1,15.1 h 17 V 32.7 c 0,-0.9 0.8,-1.2 1.4,-1.2 0.7,0 1.5,0.3 1.5,1.2 v 15.1 h 17.6 v -4.7 c 0.8,1 1.6,2.2 2.7,3 2.6,1.9 5.9,2.8 9,2.8 0,0 0,0 0.1,0 1.5,0 2.9,-0.1 4.3,-0.4 2.1,-0.4 4.1,-1.2 6.3,-2.2 l 1.6,1.5 h 8.5 20 V 32.7 c 0,-0.9 0.8,-1.2 1.5,-1.2 0.7,0 1.5,0.3 1.5,1.2 v 15.1 h 17 V 32.7 c 0,-0.9 0.8,-1.2 1.5,-1.2 0.6,0 1.5,0.3 1.5,1.2 v 15.1 h 17 V 12.7 H 135.5 Z M 78.7,40.7 c -0.4,0.6 -1,1.1 -1.8,1.2 -0.1,0 -0.2,0 -0.3,0 -0.6,0 -1.3,-0.3 -1.7,-0.7 -0.4,-0.5 -0.7,-1.1 -0.7,-1.7 0,-0.8 0.4,-1.5 1,-2 0.4,-0.3 0.9,-0.5 1.5,-0.5 0.2,0 0.4,0 0.6,0.1 0.7,0.2 1.3,0.7 1.6,1.4 0.2,0.7 0.2,1.5 -0.2,2.2 z m 4.2,-12.9 c -0.4,0.7 -1,1.1 -1.7,1.2 -0.1,0 -0.2,0 -0.3,0 -0.7,0 -1.3,-0.3 -1.7,-0.7 -0.4,-0.5 -0.7,-1.1 -0.7,-1.7 0,-0.7 0.4,-1.5 1,-2 0.4,-0.4 0.9,-0.5 1.5,-0.5 0.2,0 0.4,0 0.6,0.1 0.7,0.2 1.3,0.7 1.6,1.4 0.1,0.7 0.1,1.6 -0.3,2.2 z m 17,18.2 -2.7,-2.6 -2.8,-3 2.8,-2.8 2.7,-2.4 z"
   id="path43"
   style="fill:#000000" />
	</g>
</g>
</svg>
