<?xml version="1.0" encoding="UTF-8" standalone="no"?>
<svg
   id="Layer_1"
   data-name="Layer 1"
   viewBox="0 0 75.580862 59.620658"
   version="1.1"
   sodipodi:docname="nmyoly.svg"
   width="75.580864"
   height="59.620659"
   inkscape:version="1.2.2 (b0a84865, 2022-12-01)"
   xmlns:inkscape="http://www.inkscape.org/namespaces/inkscape"
   xmlns:sodipodi="http://sodipodi.sourceforge.net/DTD/sodipodi-0.dtd"
   xmlns="http://www.w3.org/2000/svg"
   xmlns:svg="http://www.w3.org/2000/svg">
  <sodipodi:namedview
     id="namedview97"
     pagecolor="#ffffff"
     bordercolor="#666666"
     borderopacity="1.0"
     inkscape:showpageshadow="2"
     inkscape:pageopacity="0.0"
     inkscape:pagecheckerboard="0"
     inkscape:deskcolor="#d1d1d1"
     showgrid="false"
     inkscape:zoom="3.7522856"
     inkscape:cx="19.987818"
     inkscape:cy="28.249449"
     inkscape:window-width="1309"
     inkscape:window-height="456"
     inkscape:window-x="1702"
     inkscape:window-y="263"
     inkscape:window-maximized="0"
     inkscape:current-layer="Layer_1" />
  <defs
     id="defs4">
    <style
       id="style2">.cls-1,.cls-8{fill:#fff;}.cls-2,.cls-7{fill:#0099d1;}.cls-3,.cls-4{fill:#7aba4e;}.cls-3,.cls-6,.cls-7,.cls-8{fill-rule:evenodd;}.cls-5{fill:#79ba4d;}.cls-6{fill:#009ad1;}</style>
  </defs>
  <path
     class="cls-2"
     d="M 0.02086407,41.66 H 1.3708641 l 2.18,4.5 -0.09,0.1 v -4.6 h 1.05 v 5.87 h -1.35 L 0.98086407,43.1 1.0808641,42.99 v 4.54 H 0.02086407 Z"
     id="path8"
     style="fill:#000000" />
  <path
     class="cls-2"
     d="m 5.8008641,41.66 h 1.11 v 5.87 h -1.11 z m 0.4,0 h 3.55 v 1.07 h -3.53 z m 0,2.42 h 3.09 v 1.07 h -3.09 z m 0,2.38 h 3.55 v 1.07 h -3.53 z"
     id="path10"
     style="fill:#000000" />
  <path
     class="cls-2"
     d="m 11.750864,47.51 a 3.67,3.67 0 0 1 -0.75,-0.25 2.51,2.51 0 0 1 -0.63,-0.4 l 0.51,-0.91 a 2.47,2.47 0 0 0 0.78,0.43 2.85,2.85 0 0 0 0.91,0.15 1.64,1.64 0 0 0 0.84,-0.18 0.58,0.58 0 0 0 0.3,-0.52 v 0 a 0.49,0.49 0 0 0 -0.13,-0.37 0.82,0.82 0 0 0 -0.35,-0.21 3.77,3.77 0 0 0 -0.55,-0.11 h -0.13 a 5.62,5.62 0 0 1 -1,-0.24 1.44,1.44 0 0 1 -0.65,-0.48 1.62,1.62 0 0 1 -0.27,-1 v 0 a 1.77,1.77 0 0 1 0.25,-1 1.62,1.62 0 0 1 0.74,-0.62 2.91,2.91 0 0 1 1.17,-0.21 3.58,3.58 0 0 1 0.64,0.07 3.69,3.69 0 0 1 0.64,0.21 5.76,5.76 0 0 1 0.6,0.33 l -0.47,0.94 a 2.91,2.91 0 0 0 -0.7,-0.36 2.1,2.1 0 0 0 -0.71,-0.13 1.57,1.57 0 0 0 -0.79,0.17 0.53,0.53 0 0 0 -0.28,0.47 v 0 a 0.54,0.54 0 0 0 0.15,0.4 0.88,0.88 0 0 0 0.36,0.22 c 0.14,0 0.34,0.09 0.6,0.14 h 0.16 a 5.45,5.45 0 0 1 0.92,0.27 1.45,1.45 0 0 1 0.63,0.5 1.61,1.61 0 0 1 0.25,0.94 v 0 a 1.77,1.77 0 0 1 -0.26,1 1.63,1.63 0 0 1 -0.77,0.61 3.12,3.12 0 0 1 -1.21,0.21 4.47,4.47 0 0 1 -0.8,-0.07 z"
     id="path12"
     style="fill:#000000" />
  <path
     class="cls-2"
     d="m 16.890864,47.53 h -1.14 v -5.87 h 1.14 z"
     id="path14"
     style="fill:#000000" />
  <path
     class="cls-2"
     d="m 18.100864,41.66 h 1.11 v 5.87 h -1.11 z m 0.49,4.8 h 3.44 v 1.07 h -3.44 z"
     id="path16"
     style="fill:#000000" />
  <path
     class="cls-2"
     d="m 23.900864,47.53 h -1.15 v -5.87 h 1.15 z"
     id="path18"
     style="fill:#000000" />
  <path
     class="cls-2"
     d="m 25.110864,41.66 h 1.35 l 2.18,4.5 -0.09,0.1 v -4.6 h 1.05 v 5.87 h -1.36 l -2.17,-4.43 0.1,-0.11 v 4.54 h -1.06 z m 0.88,-1.5 0.59,-0.61 0.84,0.65 0.83,-0.65 0.59,0.61 -1.42,1.14 z"
     id="path20"
     style="fill:#000000" />
  <path
     class="cls-2"
     d="m 35.990864,41.66 h 1.46 v 5.87 h -1 v -4.56 0.26 l -1.12,3.65 h -1 l -1.06,-3.58 v -0.34 4.56 h -1 v -5.87 h 1.48 l 1.12,4 z"
     id="path22"
     style="fill:#000000" />
  <path
     class="cls-2"
     d="m 39.810864,47.53 h -1.15 v -5.87 h 1.15 z"
     id="path24"
     style="fill:#000000" />
  <path
     class="cls-2"
     d="m 41.020864,41.66 h 1.1 v 5.87 h -1.1 z m 0.44,2.44 h 2 a 0.47,0.47 0 0 0 0.29,-0.08 0.52,0.52 0 0 0 0.2,-0.24 0.87,0.87 0 0 0 0.08,-0.37 0.86,0.86 0 0 0 -0.07,-0.36 0.6,0.6 0 0 0 -0.2,-0.24 0.53,0.53 0 0 0 -0.3,-0.09 h -2 v -1.06 h 2.13 a 1.61,1.61 0 0 1 0.85,0.22 1.44,1.44 0 0 1 0.56,0.61 2,2 0 0 1 0.21,0.92 2,2 0 0 1 -0.21,0.93 1.4,1.4 0 0 1 -0.57,0.61 1.55,1.55 0 0 1 -0.84,0.22 h -2.13 z m 1.23,0.89 1.18,-0.19 1.58,2.73 h -1.34 z"
     id="path26"
     style="fill:#000000" />
  <path
     class="cls-2"
     d="m 47.920864,41.66 h 0.7 l 2.24,5.87 h -1.19 l -1.4,-4 -1.41,4 h -1.19 z m -1.17,3.86 h 3.09 v 1.07 h -3.09 z"
     id="path28"
     style="fill:#000000" />
  <path
     class="cls-2"
     d="m 52.490864,47.51 a 3.76,3.76 0 0 1 -0.74,-0.21 2.93,2.93 0 0 1 -0.63,-0.4 l 0.51,-0.91 a 2.42,2.42 0 0 0 0.79,0.43 2.8,2.8 0 0 0 0.91,0.15 1.64,1.64 0 0 0 0.84,-0.18 0.58,0.58 0 0 0 0.3,-0.52 v 0 a 0.5,0.5 0 0 0 -0.14,-0.37 0.79,0.79 0 0 0 -0.34,-0.21 4.43,4.43 0 0 0 -0.55,-0.11 h -0.14 a 5.48,5.48 0 0 1 -1,-0.24 1.41,1.41 0 0 1 -0.66,-0.48 1.62,1.62 0 0 1 -0.27,-1 v 0 a 1.86,1.86 0 0 1 0.25,-1 1.62,1.62 0 0 1 0.74,-0.62 3,3 0 0 1 1.17,-0.21 3.48,3.48 0 0 1 0.64,0.07 3.53,3.53 0 0 1 0.65,0.21 5.76,5.76 0 0 1 0.6,0.33 l -0.47,0.94 a 3,3 0 0 0 -0.71,-0.36 2.06,2.06 0 0 0 -0.71,-0.13 1.5,1.5 0 0 0 -0.78,0.17 0.52,0.52 0 0 0 -0.28,0.47 v 0 a 0.57,0.57 0 0 0 0.14,0.4 1,1 0 0 0 0.36,0.22 c 0.14,0 0.34,0.09 0.6,0.14 h 0.18 a 5.9,5.9 0 0 1 0.93,0.27 1.37,1.37 0 0 1 0.62,0.5 1.54,1.54 0 0 1 0.25,0.94 v 0 a 1.77,1.77 0 0 1 -0.26,1 1.61,1.61 0 0 1 -0.76,0.61 3.16,3.16 0 0 1 -1.21,0.21 4.47,4.47 0 0 1 -0.83,-0.11 z"
     id="path30"
     style="fill:#000000" />
  <path
     class="cls-2"
     d="m 59.950864,45.3 v 2.26 h -1.11 V 45.3 l -1.73,-3.61 h 1.16 l 1.12,2.53 1.13,-2.53 h 1.15 z m -1.06,-4.65 1.12,-1 0.73,0.76 -1.19,0.91 z"
     id="path32"
     style="fill:#000000" />
  <path
     class="cls-2"
     d="m 62.930864,47.3 a 1.89,1.89 0 0 1 -0.75,-0.76 2.28,2.28 0 0 1 -0.27,-1.13 v -1.67 a 2.3,2.3 0 0 1 0.27,-1.13 1.89,1.89 0 0 1 0.75,-0.76 2.3,2.3 0 0 1 1.13,-0.27 2.26,2.26 0 0 1 1.12,0.27 1.89,1.89 0 0 1 0.75,0.76 2.3,2.3 0 0 1 0.27,1.13 v 1.67 a 2.28,2.28 0 0 1 -0.27,1.13 1.89,1.89 0 0 1 -0.75,0.76 2.26,2.26 0 0 1 -1.12,0.27 2.3,2.3 0 0 1 -1.13,-0.27 z m 1.65,-1 a 0.93,0.93 0 0 0 0.35,-0.36 1.19,1.19 0 0 0 0.12,-0.54 v -1.72 a 1.13,1.13 0 0 0 -0.12,-0.54 0.89,0.89 0 0 0 -0.35,-0.37 1.11,1.11 0 0 0 -0.52,-0.12 1.12,1.12 0 0 0 -0.53,0.12 0.89,0.89 0 0 0 -0.35,0.37 1.13,1.13 0 0 0 -0.12,0.54 v 1.72 a 1.19,1.19 0 0 0 0.12,0.54 0.93,0.93 0 0 0 0.35,0.36 1.12,1.12 0 0 0 0.53,0.12 1.11,1.11 0 0 0 0.52,-0.06 z"
     id="path34"
     style="fill:#000000" />
  <path
     class="cls-2"
     d="m 67.370864,41.66 h 1.1 v 5.87 h -1.1 z m 0.49,4.8 h 3.43 v 1.07 h -3.43 z"
     id="path36"
     style="fill:#000000" />
  <path
     class="cls-2"
     d="m 73.800864,45.3 v 2.26 h -1.05 V 45.3 l -1.73,-3.61 h 1.16 l 1.12,2.53 1.12,-2.53 h 1.16 z"
     id="path38"
     style="fill:#000000" />
  <polygon
     class="cls-3"
     points="83.36,39.51 71.74,39.51 67.78,47.73 61.55,34.69 49.93,34.69 62.11,59.91 56.73,71.25 68.34,71.25 "
     id="polygon40"
     transform="translate(-27.779136,-34.61)"
     style="fill:#000000" />
  <path
     class="cls-4"
     d="m 40.620864,36.72 h -11.79 l 0.05,-0.12 5.37,-11.3 -12.22,-25.3 h 11.79 v 0 l 6.16,12.89 3.92,-8.11 h 11.85 l -0.06,0.11 z m -11.54,-0.16 h 11.44 l 14.94,-31.59 h -11.44 l -4,8.33 -0.07,-0.15 -6.21,-13 h -11.46 l 12.14,25.15 v 0 z"
     id="path42"
     style="fill:#000000" />
  <polygon
     class="cls-5"
     points="83.36,39.51 71.74,39.51 67.78,47.73 61.55,34.69 49.93,34.69 62.11,59.91 56.73,71.25 68.34,71.25 "
     id="polygon44"
     transform="translate(-27.779136,-34.61)"
     style="fill:#000000" />
  <path
     class="cls-5"
     d="m 40.620864,36.72 h -11.79 l 0.05,-0.12 5.37,-11.3 -12.22,-25.3 h 11.79 v 0 l 6.16,12.89 3.92,-8.11 h 11.85 l -0.06,0.11 z m -11.54,-0.16 h 11.44 l 14.94,-31.59 h -11.44 l -4,8.33 -0.07,-0.15 -6.21,-13 h -11.46 l 12.14,25.15 v 0 z"
     id="path46"
     style="fill:#000000" />
  <polygon
     class="cls-6"
     points="35.77,64.17 47.67,64.17 55.88,46.88 49.93,34.69 "
     id="polygon48"
     transform="translate(-27.779136,-34.61)"
     style="fill:#000000" />
  <polygon
     class="cls-2"
     points="35.77,64.17 47.67,64.17 55.88,46.88 49.93,34.69 "
     id="polygon50"
     transform="translate(-27.779136,-34.61)"
     style="fill:#000000" />
  <polygon
     class="cls-7"
     points="77.69,51.41 83.36,63.88 94.69,63.88 83.36,39.51 "
     id="polygon52"
     transform="translate(-27.779136,-34.61)"
     style="fill:#000000" />
  <polygon
     class="cls-2"
     points="77.69,51.41 83.36,63.88 94.69,63.88 83.36,39.51 "
     id="polygon54"
     transform="translate(-27.779136,-34.61)"
     style="fill:#000000" />
  <polygon
     class="cls-8"
     points="63.64,69.49 62.68,69.49 64.87,64.87 65.83,64.87 "
     id="polygon56"
     transform="translate(-27.779136,-34.61)"
     style="fill:#ffffff" />
  <polygon
     class="cls-8"
     points="67.26,61.84 66.3,61.84 68.48,57.22 69.44,57.22 "
     id="polygon58"
     transform="translate(-27.779136,-34.61)"
     style="fill:#ffffff" />
  <polygon
     class="cls-8"
     points="70.89,54.18 69.92,54.18 72.11,49.55 73.07,49.55 "
     id="polygon60"
     transform="translate(-27.779136,-34.61)"
     style="fill:#ffffff" />
  <polygon
     class="cls-8"
     points="74.5,46.53 73.54,46.53 75.73,41.91 76.69,41.91 "
     id="polygon62"
     transform="translate(-27.779136,-34.61)"
     style="fill:#ffffff" />
  <rect
     class="cls-5"
     x="-0.11578386"
     y="51.030117"
     width="75.559998"
     height="1.05"
     transform="rotate(-0.13)"
     id="rect64"
     style="fill:#000000" />
  <path
     class="cls-5"
     d="m 10.240864,55.49 h 0.77 v 4.08 h -0.77 z m 0.36,1.69 h 2.38 v 0.74 h -2.38 z m 1.88,-1.69 h 0.77 v 4.08 h -0.77 z"
     id="path66"
     style="fill:#000000" />
  <path
     class="cls-5"
     d="m 14.750864,59.44 a 1.14,1.14 0 0 1 -0.5,-0.52 1.76,1.76 0 0 1 -0.18,-0.83 v -2.6 h 0.77 v 2.63 a 0.73,0.73 0 0 0 0.19,0.54 0.83,0.83 0 0 0 1.06,0 0.73,0.73 0 0 0 0.19,-0.54 v -2.63 h 0.77 v 2.6 a 1.89,1.89 0 0 1 -0.17,0.83 1.22,1.22 0 0 1 -0.51,0.52 1.73,1.73 0 0 1 -0.81,0.18 1.7,1.7 0 0 1 -0.81,-0.18 z"
     id="path68"
     style="fill:#000000" />
  <path
     class="cls-5"
     d="m 18.630864,59.56 a 2.37,2.37 0 0 1 -0.53,-0.18 1.79,1.79 0 0 1 -0.44,-0.27 l 0.36,-0.63 a 2,2 0 0 0 1.18,0.4 1.06,1.06 0 0 0 0.58,-0.13 0.39,0.39 0 0 0 0.21,-0.36 v 0 a 0.36,0.36 0 0 0 -0.09,-0.26 0.57,0.57 0 0 0 -0.24,-0.14 2.39,2.39 0 0 0 -0.39,-0.08 h -0.09 a 3.25,3.25 0 0 1 -0.68,-0.16 1,1 0 0 1 -0.46,-0.34 1.13,1.13 0 0 1 -0.18,-0.69 v 0 a 1.32,1.32 0 0 1 0.17,-0.68 1.11,1.11 0 0 1 0.52,-0.43 2.14,2.14 0 0 1 0.81,-0.14 1.73,1.73 0 0 1 0.45,0.05 2.59,2.59 0 0 1 0.45,0.14 3.3,3.3 0 0 1 0.41,0.23 l -0.32,0.66 a 2,2 0 0 0 -0.5,-0.26 1.46,1.46 0 0 0 -0.49,-0.09 1.07,1.07 0 0 0 -0.55,0.12 0.37,0.37 0 0 0 -0.19,0.33 v 0 a 0.37,0.37 0 0 0 0.1,0.28 0.58,0.58 0 0 0 0.25,0.15 l 0.42,0.1 h 0.11 a 3,3 0 0 1 0.65,0.19 1,1 0 0 1 0.43,0.34 1.08,1.08 0 0 1 0.17,0.66 v 0 a 1.22,1.22 0 0 1 -0.18,0.67 1.19,1.19 0 0 1 -0.53,0.42 2.1,2.1 0 0 1 -0.84,0.15 2.62,2.62 0 0 1 -0.57,-0.05 z"
     id="path70"
     style="fill:#000000" />
  <path
     class="cls-5"
     d="m 22.080864,59.44 a 1.22,1.22 0 0 1 -0.51,-0.52 1.89,1.89 0 0 1 -0.17,-0.83 v -2.6 h 0.77 v 2.63 a 0.73,0.73 0 0 0 0.19,0.54 0.83,0.83 0 0 0 1.06,0 0.73,0.73 0 0 0 0.19,-0.54 v -2.63 h 0.77 v 2.6 a 1.89,1.89 0 0 1 -0.17,0.83 1.22,1.22 0 0 1 -0.51,0.52 1.73,1.73 0 0 1 -0.81,0.18 1.7,1.7 0 0 1 -0.81,-0.18 z"
     id="path72"
     style="fill:#000000" />
  <path
     class="cls-5"
     d="m 25.940864,59.56 a 2.37,2.37 0 0 1 -0.53,-0.18 1.79,1.79 0 0 1 -0.44,-0.27 l 0.36,-0.63 a 2,2 0 0 0 1.18,0.4 1.06,1.06 0 0 0 0.58,-0.13 0.39,0.39 0 0 0 0.21,-0.36 v 0 a 0.36,0.36 0 0 0 -0.09,-0.26 0.57,0.57 0 0 0 -0.24,-0.14 2.39,2.39 0 0 0 -0.39,-0.08 h -0.09 a 3.25,3.25 0 0 1 -0.68,-0.16 1,1 0 0 1 -0.46,-0.34 1.13,1.13 0 0 1 -0.18,-0.69 v 0 a 1.23,1.23 0 0 1 0.17,-0.68 1.11,1.11 0 0 1 0.52,-0.43 2.14,2.14 0 0 1 0.81,-0.14 1.73,1.73 0 0 1 0.45,0.05 2.59,2.59 0 0 1 0.45,0.14 3.3,3.3 0 0 1 0.41,0.23 l -0.32,0.66 a 2,2 0 0 0 -0.5,-0.26 1.46,1.46 0 0 0 -0.49,-0.09 1.07,1.07 0 0 0 -0.55,0.12 0.37,0.37 0 0 0 -0.19,0.33 v 0 a 0.37,0.37 0 0 0 0.1,0.28 0.58,0.58 0 0 0 0.25,0.15 l 0.42,0.1 h 0.11 a 3,3 0 0 1 0.65,0.19 1,1 0 0 1 0.43,0.34 1.08,1.08 0 0 1 0.17,0.66 v 0 a 1.22,1.22 0 0 1 -0.18,0.67 1.19,1.19 0 0 1 -0.53,0.42 2.1,2.1 0 0 1 -0.84,0.15 2.62,2.62 0 0 1 -0.57,-0.05 z"
     id="path74"
     style="fill:#000000" />
  <path
     class="cls-5"
     d="m 30.090864,58 v 1.57 h -0.77 V 58 l -1.2,-2.51 h 0.81 l 0.82,1.81 0.78,-1.76 h 0.8 z"
     id="path76"
     style="fill:#000000" />
  <path
     class="cls-5"
     d="m 32.590864,55.49 h 0.76 v 4.08 h -0.76 z m 0.46,2.49 1.64,-2.49 h 1 l -2.5,3.49 z m 0.68,-0.47 0.66,-0.42 1.44,2.48 h -0.92 z"
     id="path78"
     style="fill:#000000" />
  <path
     class="cls-5"
     d="m 37.440864,55.49 h 0.49 l 1.56,4.08 h -0.82 l -1,-2.79 -1,2.79 h -0.83 z m -0.81,2.69 h 2.12 v 0.74 h -2.15 z m 0.08,-3.8 h 0.77 v 0.77 h -0.73 z m 1.18,0 h 0.77 v 0.77 h -0.77 z"
     id="path80"
     style="fill:#000000" />
  <path
     class="cls-5"
     d="m 40.000864,55.49 h 0.75 v 4.08 h -0.77 z m 0.31,1.7 h 1.44 a 0.36,0.36 0 0 0 0.2,-0.06 0.39,0.39 0 0 0 0.14,-0.17 0.51,0.51 0 0 0 0.05,-0.25 0.71,0.71 0 0 0 0,-0.26 0.44,0.44 0 0 0 -0.14,-0.16 0.37,0.37 0 0 0 -0.21,-0.06 h -1.42 v -0.74 h 1.38 a 1.15,1.15 0 0 1 0.59,0.15 1,1 0 0 1 0.4,0.43 1.41,1.41 0 0 1 0.14,0.64 1.44,1.44 0 0 1 -0.14,0.64 1.11,1.11 0 0 1 -0.4,0.43 1.15,1.15 0 0 1 -0.59,0.15 h -1.48 z m 0.85,0.61 0.83,-0.13 1.1,1.9 h -0.93 z"
     id="path82"
     style="fill:#000000" />
  <path
     class="cls-5"
     d="m 43.750864,55.49 h 0.77 v 4.08 h -0.77 z m 0.35,1.69 h 2.38 v 0.74 h -2.38 z m 1.88,-1.69 h 0.77 v 4.08 h -0.77 z"
     id="path84"
     style="fill:#000000" />
  <path
     class="cls-5"
     d="m 48.820864,55.49 h 0.49 l 1.56,4.08 h -0.83 l -1,-2.79 -1,2.79 h -0.83 z m -0.81,2.69 h 2.15 v 0.74 h -2.15 z"
     id="path86"
     style="fill:#000000" />
  <path
     class="cls-5"
     d="m 51.370864,55.49 h 0.95 l 1.51,3.13 -0.06,0.07 v -3.2 h 0.73 v 4.08 h -0.94 l -1.52,-3.08 0.07,-0.07 v 3.15 h -0.74 z"
     id="path88"
     style="fill:#000000" />
  <path
     class="cls-5"
     d="m 56.570864,55.49 h 0.49 l 1.56,4.08 h -0.87 l -1,-2.79 -1,2.79 h -0.83 z m -0.81,2.69 h 2.15 v 0.74 h -2.16 z"
     id="path90"
     style="fill:#000000" />
  <path
     class="cls-5"
     d="m 59.750864,59.56 a 2.28,2.28 0 0 1 -0.52,-0.18 1.62,1.62 0 0 1 -0.44,-0.27 l 0.35,-0.63 a 1.92,1.92 0 0 0 0.55,0.29 2,2 0 0 0 0.63,0.11 1.08,1.08 0 0 0 0.59,-0.13 0.39,0.39 0 0 0 0.21,-0.36 v 0 a 0.36,0.36 0 0 0 -0.1,-0.26 0.57,0.57 0 0 0 -0.24,-0.14 2.25,2.25 0 0 0 -0.38,-0.08 h -0.09 a 3.1,3.1 0 0 1 -0.68,-0.16 1,1 0 0 1 -0.46,-0.34 1.07,1.07 0 0 1 -0.19,-0.69 v 0 a 1.23,1.23 0 0 1 0.18,-0.68 1.14,1.14 0 0 1 0.51,-0.43 2.23,2.23 0 0 1 0.82,-0.14 1.7,1.7 0 0 1 0.44,0.05 2.15,2.15 0 0 1 0.45,0.14 2.82,2.82 0 0 1 0.42,0.23 l -0.33,0.66 a 1.93,1.93 0 0 0 -0.49,-0.26 1.5,1.5 0 0 0 -0.49,-0.09 1,1 0 0 0 -0.55,0.12 0.37,0.37 0 0 0 -0.19,0.33 v 0 a 0.37,0.37 0 0 0 0.1,0.28 0.53,0.53 0 0 0 0.25,0.15 l 0.42,0.1 h 0.1 a 2.82,2.82 0 0 1 0.65,0.19 1,1 0 0 1 0.44,0.34 1.15,1.15 0 0 1 0.17,0.66 v 0 a 1.22,1.22 0 0 1 -0.18,0.67 1.19,1.19 0 0 1 -0.53,0.42 2.19,2.19 0 0 1 -0.85,0.15 2.76,2.76 0 0 1 -0.57,-0.05 z"
     id="path92"
     style="fill:#000000" />
  <path
     class="cls-5"
     d="m 63.910864,58 v 1.57 h -0.77 V 58 l -1.2,-2.51 h 0.8 l 0.78,1.76 0.78,-1.76 h 0.81 z"
     id="path94"
     style="fill:#000000" />
</svg>
