<svg xmlns="http://www.w3.org/2000/svg" viewBox="0 0 171.35 82.96"><defs><style>.cls-1{fill:#231f20;}</style></defs><g id="Layer_2" data-name="Layer 2"><g id="Layer_1-2" data-name="Layer 1"><path class="cls-1" d="M147.91,1.55h0a44,44,0,0,1,21.76,18.73,36,36,0,0,0-19-15.94,33,33,0,0,0-10.91-1.84,34.36,34.36,0,0,0-27.28,13.85h0a67.41,67.41,0,0,0-8.83,6.83C113.28-8.26,147.09,1.32,147.91,1.55ZM108,63.73c-5-11.28-4.57-23.77-2.71-31.47,0,0,0,0,0-.07A47.19,47.19,0,0,1,110,20.08l.19-.31a1.43,1.43,0,0,1,.14-.23v0a22.78,22.78,0,0,0-10,18.36C96.21,12.68,117.08.3,117.38.13h0c-11,4.52-19.18,11-21.26,25.2C93.3,44.49,107.75,63.45,108,63.73ZM94.16,39.32c-3.07-14.52,1.84-25.26,2-25.58h0c-17.24,27.36,6.73,51,6.73,51a31.87,31.87,0,0,1-13.95-9.17c8.92,14.13,26.22,18.57,26.49,18.64C105.6,65,97.28,54.05,94.16,39.32Zm45.59,39.37c-15.56,0-28.77-10.83-33.5-25.87,2,13.95,16.57,25.15,16.57,25.15-13.23-.51-27-11-27.25-11.21a45.31,45.31,0,0,0,35,16.2,44.92,44.92,0,0,0,39-21.83C163.26,71.69,152.26,78.69,139.75,78.69Zm-49.9-24,.9.82.58.51.75.65.19.17.36.3.34.29,1.49,1.2.08.05.19.16,0-.06c-.13-.16-.24-.33-.36-.5s-.22-.31-.32-.47c-.45-.64-.86-1.29-1.25-1.94-.14-.25-.29-.49-.42-.74-.06-.09-.11-.18-.16-.27l-.12-.23-.26-.49-.14-.25-.12-.25c-.06-.12-.13-.24-.19-.37-.3-.62-.58-1.23-.84-1.85-.06-.12-.11-.24-.16-.37l-.15-.37c-.1-.24-.19-.49-.28-.73s-.09-.25-.14-.37l-.13-.36c-.26-.73-.48-1.46-.69-2.18,0-.12-.06-.24-.1-.36-.1-.39-.2-.78-.29-1.16,0-.21-.1-.41-.14-.61s-.06-.24-.08-.36,0-.23-.07-.34-.05-.24-.07-.35l-.18-1c-.15-.93-.26-1.83-.34-2.72a1.73,1.73,0,0,1,0-.32c-.06-.6-.09-1.2-.11-1.78,0-.14,0-.29,0-.44v-.08c0-.18,0-.35,0-.53s0-.6,0-.9a1.93,1.93,0,0,1,0-.24c0-.52,0-1,0-1.51l0-.54.06-.82c0-.18,0-.35,0-.53l0-.25c0-.34.07-.67.11-1l.09-.7c0-.15,0-.3.07-.44.06-.44.13-.85.21-1.24,0-.13,0-.25.07-.37s0-.18,0-.27c.06-.27.11-.52.17-.75l0-.15q.13-.55.24-1l.06-.21,0-.1c0-.06,0-.11,0-.16l0-.1c0-.05,0-.09,0-.13s0-.09,0-.13a1.31,1.31,0,0,1,0-.15.51.51,0,0,0,0-.09s0,0,0,0A40.68,40.68,0,0,0,88,52.82l.32.32.32.31,1,.9Zm-81.11-40,21,31.29V19.72a7.48,7.48,0,0,0-.15-1.47,5.5,5.5,0,0,0-.49-1.38,3.21,3.21,0,0,0-.91-1,2.3,2.3,0,0,0-1.4-.41v-.78h7.4v.78a2.36,2.36,0,0,0-1.37.38,3,3,0,0,0-.88,1,5.18,5.18,0,0,0-.49,1.35,6.9,6.9,0,0,0-.16,1.39V53.7H29.79L7.34,20.29V50a2.32,2.32,0,0,0,1,2,3.5,3.5,0,0,0,2.12.72v.78H2.89v-.78a3.17,3.17,0,0,0,2-.72A2.33,2.33,0,0,0,5.79,50V19.41A5.43,5.43,0,0,0,5.61,18,4.16,4.16,0,0,0,5,16.75a3.47,3.47,0,0,0-.9-1,2.14,2.14,0,0,0-1.25-.36v-.78ZM38.66,26.81V47.65a4,4,0,0,0,.49,1.94,5.16,5.16,0,0,0,1.29,1.58,6.29,6.29,0,0,0,1.81,1.06,5.5,5.5,0,0,0,2,.39,6.61,6.61,0,0,0,2.59-.49,7.87,7.87,0,0,0,2-1.27,11.6,11.6,0,0,0,1.63-1.73c.48-.64.93-1.29,1.35-1.94V33.84a8.09,8.09,0,0,0-.37-2.22,3,3,0,0,0-1.24-1.81l5-3v22.7a6.46,6.46,0,0,0,.1,1.12,3.67,3.67,0,0,0,.39,1.11,2.72,2.72,0,0,0,.72.85,1.69,1.69,0,0,0,1.07.34v.52H51.85v-4.3a15.66,15.66,0,0,1-3.73,3.65,8.64,8.64,0,0,1-5,1.37,11,11,0,0,1-2.93-.39,7.66,7.66,0,0,1-2.53-1.19,6.1,6.1,0,0,1-1.79-2,5.8,5.8,0,0,1-.67-2.87V33.84c0-.31,0-.65-.05-1A6.52,6.52,0,0,0,35,31.67a5.18,5.18,0,0,0-.41-1.06,2.3,2.3,0,0,0-.67-.8ZM65,26.86V32.7a10.43,10.43,0,0,1,4.11-4.39,11.58,11.58,0,0,1,5.82-1.45,2.69,2.69,0,0,1,1.65.49,1.77,1.77,0,0,1,.68,1.53,1.9,1.9,0,0,1-.57,1.52,2.38,2.38,0,0,1-1.61.49,5.51,5.51,0,0,1-2.14-.41,5.39,5.39,0,0,0-2.1-.42,4.92,4.92,0,0,0-2.25.55A6.47,6.47,0,0,0,66.74,32a7,7,0,0,0-1.25,2,5.9,5.9,0,0,0-.46,2.3V49.93a4,4,0,0,0,.57,2,1.81,1.81,0,0,0,1.65,1v.52H59.34v-.52A1.88,1.88,0,0,0,61.05,52a3.72,3.72,0,0,0,.57-2V34.31a9.32,9.32,0,0,0-.08-1.09A7.82,7.82,0,0,0,61.28,32a3.55,3.55,0,0,0-.52-1.11,2.28,2.28,0,0,0-.8-.75ZM0,60.72c26.88.82,54.13.83,81,0-26.87-.83-54.13-.83-81,0ZM150.66,27.33v.52a1.29,1.29,0,0,0-1.4.75,1.92,1.92,0,0,0,.06,1.68L158,49.73l8.12-19a2.59,2.59,0,0,0,.08-1.83,1.41,1.41,0,0,0-1.47-1.06v-.52h6.67v.52a2.87,2.87,0,0,0-1.32.33,5.77,5.77,0,0,0-1.19.83,6.38,6.38,0,0,0-1,1.11,8,8,0,0,0-.67,1.24L153.66,63.48a6.56,6.56,0,0,1-1.81,2.44,4.27,4.27,0,0,1-2.79.93,2.85,2.85,0,0,1-1.87-.6,2,2,0,0,1-.72-1.68,1,1,0,0,1,.67-1.09,5.85,5.85,0,0,1,1.61-.2l1.19,0a8.82,8.82,0,0,0,1.16,0,4.26,4.26,0,0,0,1-.21,1,1,0,0,0,.57-.57L156.14,54,145.9,31.1a8.84,8.84,0,0,0-.46-1,6,6,0,0,0-.75-1.06,5.31,5.31,0,0,0-1-.85,2.13,2.13,0,0,0-1.21-.36v-.52ZM113.41,52.68a2.68,2.68,0,0,0,1.41-.42,6,6,0,0,0,1.32-1,7.73,7.73,0,0,0,1.08-1.34,6.14,6.14,0,0,0,.67-1.33L130.62,14.4h1.13l12.36,33.43c.14.38.35.85.62,1.4a12.44,12.44,0,0,0,1,1.59,6,6,0,0,0,1.23,1.32,2.44,2.44,0,0,0,1.52.54v.77H138v-.77a2.45,2.45,0,0,0,2.17-1,2.31,2.31,0,0,0,.25-2.17l-.92-2.31c-.28-.79-.64-1.76-1.08-2.92s-1-2.51-1.55-4.09H122.78c-.37,1-.77,2.09-1.18,3.19s-.81,2.1-1.19,3l-1.18,3.09a2.86,2.86,0,0,0-.13,1,2.57,2.57,0,0,0,.28,1.06,2,2,0,0,0,.83.8,2.94,2.94,0,0,0,1.39.31v.77h-8.19Zm9.84-14.07h13.14c-.79-2.09-1.58-4.19-2.35-6.28s-1.47-4-2.08-5.67c-.73-2-1.43-3.9-2.12-5.72Z"/></g></g></svg>