<?xml version="1.0" encoding="UTF-8" standalone="no"?>
<!-- Created with Inkscape (http://www.inkscape.org/) -->

<svg
   version="1.0"
   width="779.52759"
   height="217.49126"
   id="svg2545"
   sodipodi:docname="osce.svg"
   inkscape:version="1.2.2 (b0a84865, 2022-12-01)"
   xmlns:inkscape="http://www.inkscape.org/namespaces/inkscape"
   xmlns:sodipodi="http://sodipodi.sourceforge.net/DTD/sodipodi-0.dtd"
   xmlns="http://www.w3.org/2000/svg"
   xmlns:svg="http://www.w3.org/2000/svg">
  <sodipodi:namedview
     id="namedview14"
     pagecolor="#ffffff"
     bordercolor="#666666"
     borderopacity="1.0"
     inkscape:showpageshadow="2"
     inkscape:pageopacity="0.0"
     inkscape:pagecheckerboard="0"
     inkscape:deskcolor="#d1d1d1"
     showgrid="false"
     inkscape:zoom="0.93283535"
     inkscape:cx="348.40017"
     inkscape:cy="108.27205"
     inkscape:window-width="1309"
     inkscape:window-height="456"
     inkscape:window-x="1774"
     inkscape:window-y="260"
     inkscape:window-maximized="0"
     inkscape:current-layer="g4159" />
  <defs
     id="defs2547" />
  <g
     transform="translate(-705.32578,-593.56471)"
     id="layer1">
    <g
       transform="translate(17.716536,17.750433)"
       id="g4159">
      <path
         d="M 875.28864,793.30554 H 687.60924 V 575.81428 h 187.6794 z"
         style="fill:#000000;fill-rule:evenodd;stroke:none"
         id="path3986" />
      <path
         d="M 1072.7084,793.30554 H 887.63594 V 575.81428 h 185.07246 z"
         style="fill:#000000;fill-rule:evenodd;stroke:none"
         id="path3988" />
      <path
         d="M 1270.2656,793.30554 H 1085.1931 V 575.81428 h 185.0725 z"
         style="fill:#000000;fill-rule:evenodd;stroke:none"
         id="path3990" />
      <path
         d="M 1467.1368,793.30554 H 1281.7895 V 575.81428 h 185.3473 z"
         style="fill:#000000;fill-rule:evenodd;stroke:none"
         id="path3992" />
      <path
         d="m 1430.2866,729.82657 c -9.0684,5.19959 -16.6684,8.93125 -22.8009,10.93429 -6.1325,2.00296 -12.279,2.93587 -18.5349,2.93587 -9.0684,0 -17.876,-2.14017 -26.4097,-6.39319 -8.3963,-4.28041 -15.0635,-10.93421 -20.0024,-19.87919 -4.8016,-9.06838 -7.2027,-20.79837 -7.4635,-35.46424 h 49.074 c 10.9341,0 21.9915,-0.26068 32.9264,-1.07012 5.7344,-0.39781 12.4024,-1.19352 19.7416,-2.52432 0.3982,-4.14321 0.5355,-7.61418 0.5355,-10.41292 0,-11.3321 -2.1404,-21.45687 -6.4072,-30.40185 -4.2668,-8.93125 -10.934,-15.99667 -20.1258,-21.19626 -9.2058,-5.1996 -19.4677,-7.87479 -30.8139,-7.87479 -9.3291,0 -17.9994,1.74228 -25.9976,5.07612 -6.1325,2.40085 -12.265,5.73462 -18.3975,10.00129 -6.1325,4.12947 -10.6741,7.86113 -13.7333,11.19489 -4.0061,4.40389 -7.614,11.3321 -10.8107,20.79845 -3.1966,9.3428 -4.8015,19.87919 -4.8015,31.60911 0,14.94028 3.0732,27.86379 9.0684,39.07241 6.0091,11.07142 14.4054,19.46765 25.2021,25.06505 10.7966,5.47401 22.9383,8.27276 36.2735,8.27276 6.8046,0 13.1978,-0.67224 19.3303,-2.14025 6.1325,-1.46794 11.6069,-3.33377 16.4085,-5.4602 3.1966,-1.34454 8.2589,-4.26675 15.3382,-8.67056 l 4.7876,-10.93429 z m -84.4139,-98.66886 c 6.9419,-8.40989 16.2711,-12.67657 27.8772,-12.67657 10.9341,0 19.5911,3.86887 26.1349,11.60652 6.5307,7.73765 9.8647,19.74199 9.8647,36.13647 0,1.3308 0,3.33376 -0.1374,5.87182 -4.4042,0.39789 -13.1978,0.65858 -26.8078,0.65858 -5.7204,0 -16.2571,-0.26069 -31.472,-0.65858 -7.9842,-0.53502 -13.4578,-0.93291 -16.2571,-1.20725 0.1234,-18.13684 3.7321,-31.47198 10.7975,-39.73099"
         style="fill:#ffffff;fill-rule:evenodd;stroke:none"
         id="path3996" />
      <path
         d="m 1236.2691,737.56422 -6.0084,10.13851 c -6.9287,3.86886 -13.8707,6.53039 -20.6613,8.39622 -6.8053,1.72862 -14.5428,2.53806 -23.0756,2.53806 -21.1968,0 -38.14,-6.40692 -50.6658,-19.20696 -12.6763,-12.80004 -18.9322,-30.53906 -18.9322,-52.94257 0,-11.86713 1.7283,-22.12918 5.0623,-30.93688 3.4574,-8.79404 7.6,-15.59885 12.539,-20.26335 3.3208,-3.33376 9.7272,-7.73765 19.0564,-13.06071 9.3431,-5.3368 15.8729,-8.67057 19.605,-10.27572 6.8046,-2.93595 15.0775,-4.39022 24.6667,-4.39022 9.0683,0 17.2039,0.91925 24.544,2.79874 4.6649,1.19359 9.1917,3.19663 13.8699,5.9953 -1.2068,7.73773 -2.1396,13.73302 -2.6751,17.73902 -0.5347,3.86886 -1.1936,11.19489 -2.0031,21.73128 h -8.7936 c -0.6721,-9.74069 -1.2076,-15.73598 -1.8657,-18.13683 -0.3981,-1.46794 -1.2076,-2.79875 -2.6759,-3.99234 -3.594,-2.8124 -8.1355,-5.21325 -13.8559,-7.20255 -5.611,-2.00304 -11.8677,-3.07316 -18.5489,-3.07316 -8.3963,0 -15.7216,1.72861 -21.8681,5.19959 -6.1325,3.47097 -10.9209,9.06846 -14.2541,16.6689 -3.4713,7.60044 -5.0763,16.92958 -5.0763,28.13821 0,13.87016 2.4004,26.27238 7.2027,37.33006 4.8016,11.20863 11.3322,19.20696 19.7417,24.40655 8.259,5.06239 17.4647,7.60045 27.7267,7.60045 5.1997,0 10.1386,-0.67224 15.0775,-1.86583 4.7875,-1.33073 11.0574,-3.73158 18.7956,-7.33976 l 3.0725,4.00599"
         style="fill:#ffffff;fill-rule:evenodd;stroke:none"
         id="path4000" />
      <path
         d="m 928.23134,708.63031 h 8.8076 c 0.1234,5.8719 0.3982,10.53639 0.9329,13.87016 0.5347,3.45731 1.3309,6.79108 2.5245,10.12484 1.2068,3.21029 3.0733,6.00904 5.611,8.27268 2.5246,2.26372 5.1997,4.00607 8.1356,5.19959 3.0592,1.3308 5.9951,2.14025 9.0683,2.53806 3.0593,0.39789 7.7243,0.65857 13.9934,0.65857 10.1385,0 18.5348,-2.79874 25.20276,-8.25901 6.5299,-5.47401 9.8639,-12.80004 9.8639,-22.26631 0,-4.26668 -1.0562,-8.01207 -3.1967,-11.20863 -2.003,-3.33384 -5.0623,-5.73469 -8.931,-7.60052 -3.86866,-1.86575 -12.26496,-4.26668 -25.06546,-7.06542 -12.8137,-2.93587 -21.0726,-5.06238 -24.9413,-6.40684 -5.5978,-2.12651 -10.1386,-4.66457 -13.4726,-7.72392 -3.3332,-3.07316 -5.9951,-6.80474 -7.8608,-11.46931 -2.0031,-4.66457 -3.0733,-9.74069 -3.0733,-15.20096 0,-7.87479 2.1404,-15.20089 6.4073,-21.8685 4.266,-6.80473 10.7967,-12.26493 19.865,-16.40821 9.0684,-4.12947 18.9331,-6.25598 29.6064,-6.25598 6.5306,0 13.8699,0.79578 22.40346,2.5244 8.3963,1.72862 15.2009,3.73158 20.524,6.26964 -0.2608,11.33209 -0.3981,22.93861 -0.5215,34.6686 h -8.8076 c -0.5348,-7.33984 -1.1936,-12.26501 -1.8657,-14.52873 -0.5355,-2.40085 -1.4683,-4.40389 -2.6619,-6.26972 -1.0702,-1.86575 -2.9359,-3.73157 -5.7344,-5.87182 -2.6751,-2.00296 -6.26986,-3.86879 -10.53666,-5.59741 -4.4034,-1.60514 -9.7405,-2.40092 -15.9964,-2.40092 -8.945,0 -16.1477,2.66153 -21.6081,7.8612 -5.3363,5.33672 -8.1355,11.46923 -8.1355,18.53465 0,4.00607 0.7962,7.33984 2.4011,10.1385 1.6049,2.93595 3.5948,5.19967 6.2699,6.92829 2.5377,1.74228 6.2699,3.3475 10.934,4.8017 l 24.9282,6.26972 c 12.67626,3.19655 21.33336,6.00903 26.13486,8.27267 4.6782,2.40085 8.5469,5.9953 11.4696,10.79708 2.9358,4.93891 4.2668,10.79708 4.2668,17.73895 0,13.59581 -5.5978,25.60014 -16.7926,35.73865 -11.2088,10.12484 -26.27226,15.20096 -45.06796,15.20096 -8.6702,0 -20.1397,-1.3308 -34.5452,-4.006 -7.9981,-1.46801 -12.265,-2.53806 -12.7997,-3.19663 -0.3981,-0.27434 -0.6721,-0.80944 -0.6721,-1.46794 0,-0.67223 0.1366,-1.60514 0.274,-2.66153 0.9328,-4.26668 1.5917,-8.54709 1.8657,-12.67656 0.3981,-4.12955 0.6588,-12.80011 0.7962,-25.99804"
         style="fill:#ffffff;fill-rule:evenodd;stroke:none"
         id="path4004" />
      <path
         d="m 715.81624,720.49751 c 2.5238,6.26971 6.2691,12.40214 11.1949,18.39752 4.9389,6.00903 11.3321,11.07141 19.3443,14.9402 7.8608,3.99234 17.6013,5.99538 29.0568,5.99538 14.6794,0 28.138,-3.45732 40.403,-10.5364 12.1416,-6.92821 21.6081,-16.53169 28.2754,-28.7967 6.668,-12.40222 10.1385,-25.87449 10.1385,-40.80104 0,-21.20999 -6.5298,-38.53739 -19.6043,-52.00974 -12.9371,-13.47226 -29.867,-20.12613 -50.5415,-20.12613 -21.9923,0 -40.0057,7.18889 -53.999,21.59415 -14.1315,14.40518 -21.0734,32.93991 -21.0734,55.74132 0,12.66282 2.2638,24.53002 6.8053,35.60144 m 32.2675,-89.20259 c 7.6,-9.20559 17.602,-13.74669 29.8671,-13.74669 8.6702,0 16.6684,2.40085 23.8711,7.33984 7.2027,4.8017 13.0605,13.19793 17.7394,25.06505 4.6642,11.86712 6.928,25.87449 6.928,42.1455 0,19.59111 -3.8687,34.1335 -11.7303,43.59977 -7.7374,9.46628 -17.4779,14.13085 -29.0708,14.13085 -9.0684,0 -17.4647,-3.05943 -25.2021,-9.06838 -7.8748,-5.99538 -13.7334,-15.46165 -17.7394,-28.3989 -4.1295,-13.06071 -6.1325,-25.87448 -6.1325,-38.53739 0,-19.19322 3.7321,-33.47493 11.4695,-42.52965"
         style="fill:#ffffff;fill-rule:evenodd;stroke:none"
         id="path4008" />
    </g>
  </g>
</svg>
