<?xml version="1.0" encoding="UTF-8" standalone="no"?>
<!-- Created with Inkscape (http://www.inkscape.org/) -->

<svg
   width="117.34736mm"
   height="7.9586415mm"
   viewBox="0 0 117.34736 7.9586417"
   version="1.1"
   id="svg5"
   inkscape:version="1.2.2 (b0a84865, 2022-12-01)"
   sodipodi:docname="pursatlyyorish.svg"
   xmlns:inkscape="http://www.inkscape.org/namespaces/inkscape"
   xmlns:sodipodi="http://sodipodi.sourceforge.net/DTD/sodipodi-0.dtd"
   xmlns="http://www.w3.org/2000/svg"
   xmlns:svg="http://www.w3.org/2000/svg">
  <sodipodi:namedview
     id="namedview7"
     pagecolor="#ffffff"
     bordercolor="#666666"
     borderopacity="1.0"
     inkscape:showpageshadow="2"
     inkscape:pageopacity="0.0"
     inkscape:pagecheckerboard="0"
     inkscape:deskcolor="#d1d1d1"
     inkscape:document-units="mm"
     showgrid="false"
     inkscape:zoom="0.84096521"
     inkscape:cx="70.15748"
     inkscape:cy="78.481249"
     inkscape:window-width="1309"
     inkscape:window-height="456"
     inkscape:window-x="1752"
     inkscape:window-y="188"
     inkscape:window-maximized="0"
     inkscape:current-layer="layer1" />
  <defs
     id="defs2" />
  <g
     inkscape:label="Layer 1"
     inkscape:groupmode="layer"
     id="layer1"
     transform="translate(-53.385099,-146.64611)">
    <g
       aria-label="IE &quot;PURSATLY YORISH&quot;"
       id="text236"
       style="font-size:10.5833px;line-height:1.25;stroke-width:0.264583">
      <path
         d="m 53.385099,154.47775 v -1.28058 h 0.952497 v -4.82598 h -0.952497 v -1.28058 h 3.513656 v 1.28058 h -0.952497 v 4.82598 h 0.952497 v 1.28058 z"
         style="font-weight:bold;font-family:'IBM Plex Sans';-inkscape-font-specification:'IBM Plex Sans, Bold'"
         id="path289" />
      <path
         d="m 58.242825,154.47775 v -7.38714 h 5.027068 v 1.42874 h -3.418406 v 1.51342 h 2.931574 v 1.41816 h -2.931574 v 1.59808 h 3.418406 v 1.42874 z"
         style="font-weight:bold;font-family:'IBM Plex Sans';-inkscape-font-specification:'IBM Plex Sans, Bold'"
         id="path291" />
      <path
         d="m 67.069261,150.09627 v -3.45016 h 1.396996 v 3.45016 z m 2.381243,0 v -3.45016 h 1.396995 v 3.45016 z"
         style="font-weight:bold;font-family:'IBM Plex Sans';-inkscape-font-specification:'IBM Plex Sans, Bold'"
         id="path293" />
      <path
         d="m 72.382058,154.47775 v -7.38714 h 3.492489 q 0.518582,0 0.931331,0.17992 0.412748,0.16933 0.698497,0.47624 0.296333,0.30692 0.455082,0.75142 0.15875,0.43391 0.15875,0.9525 0,0.52916 -0.15875,0.96308 -0.158749,0.43391 -0.455082,0.74083 -0.285749,0.30691 -0.698497,0.48683 -0.412749,0.16933 -0.931331,0.16933 H 73.99072 v 2.66699 z m 1.608662,-4.06398 h 1.693328 q 0.359832,0 0.560915,-0.17992 0.211666,-0.1905 0.211666,-0.55033 v -0.46567 q 0,-0.35983 -0.211666,-0.53975 -0.201083,-0.19049 -0.560915,-0.19049 H 73.99072 Z"
         style="font-weight:bold;font-family:'IBM Plex Sans';-inkscape-font-specification:'IBM Plex Sans, Bold'"
         id="path295" />
      <path
         d="m 80.848679,147.09061 v 4.52965 q 0,0.78317 0.306915,1.17475 0.306916,0.381 1.02658,0.381 0.719665,0 1.02658,-0.381 0.306916,-0.39158 0.306916,-1.17475 v -4.52965 h 1.566329 v 4.36032 q 0,0.81491 -0.15875,1.41816 -0.148166,0.59267 -0.497415,0.98425 -0.349249,0.381 -0.899581,0.5715 -0.550331,0.17991 -1.344079,0.17991 -0.793747,0 -1.344079,-0.17991 -0.550331,-0.1905 -0.89958,-0.5715 -0.349249,-0.39158 -0.507998,-0.98425 -0.148167,-0.60325 -0.148167,-1.41816 v -4.36032 z"
         style="font-weight:bold;font-family:'IBM Plex Sans';-inkscape-font-specification:'IBM Plex Sans, Bold'"
         id="path297" />
      <path
         d="m 88.278136,154.47775 h -1.608661 v -7.38714 h 3.503072 q 0.507998,0 0.920747,0.16933 0.412749,0.16934 0.698498,0.48683 0.296332,0.30692 0.455082,0.74084 0.158749,0.43391 0.158749,0.96308 0,0.75141 -0.338665,1.31232 -0.328083,0.56092 -1.005414,0.81492 l 1.449912,2.89982 h -1.788577 l -1.291163,-2.70932 h -1.15358 z m 1.693328,-4.06398 q 0.359833,0 0.560915,-0.17992 0.211666,-0.1905 0.211666,-0.55033 v -0.46567 q 0,-0.35983 -0.211666,-0.53975 -0.201082,-0.19049 -0.560915,-0.19049 h -1.693328 v 1.92616 z"
         style="font-weight:bold;font-family:'IBM Plex Sans';-inkscape-font-specification:'IBM Plex Sans, Bold'"
         id="path299" />
      <path
         d="m 96.194445,154.60475 q -0.973664,0 -1.650995,-0.32808 -0.677331,-0.33867 -1.153579,-0.86783 l 1.05833,-1.06891 q 0.751414,0.84666 1.852077,0.84666 0.592665,0 0.878414,-0.24342 0.285749,-0.24341 0.285749,-0.64558 0,-0.30691 -0.169333,-0.508 -0.169333,-0.21166 -0.687914,-0.28574 l -0.730248,-0.0952 q -1.174746,-0.14817 -1.725078,-0.70909 -0.539748,-0.56091 -0.539748,-1.49224 0,-0.49742 0.190499,-0.91016 0.1905,-0.41275 0.539749,-0.70909 0.359832,-0.29633 0.86783,-0.45508 0.518582,-0.16933 1.174746,-0.16933 0.836081,0 1.471079,0.26458 0.634998,0.26458 1.09008,0.77258 l -1.068913,1.0795 q -0.264583,-0.30692 -0.645582,-0.49742 -0.370415,-0.20108 -0.941913,-0.20108 -0.539749,0 -0.804331,0.1905 -0.264583,0.1905 -0.264583,0.52917 0,0.381 0.201083,0.55033 0.211666,0.16933 0.677331,0.24341 l 0.730248,0.11642 q 1.142996,0.17992 1.693328,0.70908 0.550332,0.51858 0.550332,1.48166 0,0.52917 -0.1905,0.97367 -0.190499,0.4445 -0.560915,0.76199 -0.359832,0.3175 -0.89958,0.49742 -0.539749,0.16933 -1.227663,0.16933 z"
         style="font-weight:bold;font-family:'IBM Plex Sans';-inkscape-font-specification:'IBM Plex Sans, Bold'"
         id="path301" />
      <path
         d="m 104.9574,154.47775 -0.52916,-1.75683 h -2.46591 l -0.52917,1.75683 h -1.629827 l 2.434157,-7.38714 h 1.98966 l 2.40241,7.38714 z m -1.74624,-5.92665 h -0.0529 l -0.81491,2.80458 h 1.69332 z"
         style="font-weight:bold;font-family:'IBM Plex Sans';-inkscape-font-specification:'IBM Plex Sans, Bold'"
         id="path303" />
      <path
         d="m 110.04796,148.51935 v 5.9584 h -1.60866 v -5.9584 h -2.00025 v -1.42874 h 5.60915 v 1.42874 z"
         style="font-weight:bold;font-family:'IBM Plex Sans';-inkscape-font-specification:'IBM Plex Sans, Bold'"
         id="path305" />
      <path
         d="m 113.14886,154.47775 v -7.38714 h 1.60866 v 5.9584 h 2.81516 v 1.42874 z"
         style="font-weight:bold;font-family:'IBM Plex Sans';-inkscape-font-specification:'IBM Plex Sans, Bold'"
         id="path307" />
      <path
         d="m 119.62582,154.47775 v -2.88924 l -2.52941,-4.4979 h 1.79916 l 1.5875,2.94216 h 0.0212 l 1.524,-2.94216 h 1.74624 l -2.52941,4.48732 v 2.89982 z"
         style="font-weight:bold;font-family:'IBM Plex Sans';-inkscape-font-specification:'IBM Plex Sans, Bold'"
         id="path309" />
      <path
         d="m 128.992,154.47775 v -2.88924 l -2.52941,-4.4979 h 1.79916 l 1.5875,2.94216 h 0.0212 l 1.524,-2.94216 h 1.74624 l -2.52941,4.48732 v 2.89982 z"
         style="font-weight:bold;font-family:'IBM Plex Sans';-inkscape-font-specification:'IBM Plex Sans, Bold'"
         id="path311" />
      <path
         d="m 136.48495,154.60475 q -0.73025,0 -1.3335,-0.24341 -0.60325,-0.24342 -1.02658,-0.71967 -0.42333,-0.48683 -0.65616,-1.19591 -0.23283,-0.71967 -0.23283,-1.66158 0,-0.94191 0.23283,-1.65099 0.23283,-0.71967 0.65616,-1.19592 0.42333,-0.48683 1.02658,-0.73024 0.60325,-0.24342 1.3335,-0.24342 0.73025,0 1.33349,0.24342 0.60325,0.24341 1.02658,0.73024 0.42334,0.47625 0.65617,1.19592 0.23283,0.70908 0.23283,1.65099 0,0.94191 -0.23283,1.66158 -0.23283,0.70908 -0.65617,1.19591 -0.42333,0.47625 -1.02658,0.71967 -0.60324,0.24341 -1.33349,0.24341 z m 0,-1.42874 q 0.73025,0 1.13241,-0.47625 0.41275,-0.47625 0.41275,-1.36525 v -1.10066 q 0,-0.889 -0.41275,-1.36525 -0.40216,-0.47624 -1.13241,-0.47624 -0.73025,0 -1.143,0.47624 -0.40216,0.47625 -0.40216,1.36525 v 1.10066 q 0,0.889 0.40216,1.36525 0.41275,0.47625 1.143,0.47625 z"
         style="font-weight:bold;font-family:'IBM Plex Sans';-inkscape-font-specification:'IBM Plex Sans, Bold'"
         id="path313" />
      <path
         d="m 142.68675,154.47775 h -1.60866 v -7.38714 h 3.50307 q 0.508,0 0.92075,0.16933 0.41275,0.16934 0.6985,0.48683 0.29633,0.30692 0.45508,0.74084 0.15875,0.43391 0.15875,0.96308 0,0.75141 -0.33867,1.31232 -0.32808,0.56092 -1.00541,0.81492 l 1.44991,2.89982 h -1.78858 l -1.29116,-2.70932 h -1.15358 z m 1.69333,-4.06398 q 0.35983,0 0.56091,-0.17992 0.21167,-0.1905 0.21167,-0.55033 v -0.46567 q 0,-0.35983 -0.21167,-0.53975 -0.20108,-0.19049 -0.56091,-0.19049 h -1.69333 v 1.92616 z"
         style="font-weight:bold;font-family:'IBM Plex Sans';-inkscape-font-specification:'IBM Plex Sans, Bold'"
         id="path315" />
      <path
         d="m 147.92548,154.47775 v -1.28058 h 0.9525 v -4.82598 h -0.9525 v -1.28058 h 3.51366 v 1.28058 h -0.9525 v 4.82598 h 0.9525 v 1.28058 z"
         style="font-weight:bold;font-family:'IBM Plex Sans';-inkscape-font-specification:'IBM Plex Sans, Bold'"
         id="path317" />
      <path
         d="m 155.17503,154.60475 q -0.97366,0 -1.65099,-0.32808 -0.67733,-0.33867 -1.15358,-0.86783 l 1.05833,-1.06891 q 0.75141,0.84666 1.85208,0.84666 0.59266,0 0.87841,-0.24342 0.28575,-0.24341 0.28575,-0.64558 0,-0.30691 -0.16933,-0.508 -0.16934,-0.21166 -0.68792,-0.28574 l -0.73025,-0.0952 q -1.17474,-0.14817 -1.72507,-0.70909 -0.53975,-0.56091 -0.53975,-1.49224 0,-0.49742 0.1905,-0.91016 0.1905,-0.41275 0.53974,-0.70909 0.35984,-0.29633 0.86784,-0.45508 0.51858,-0.16933 1.17474,-0.16933 0.83608,0 1.47108,0.26458 0.635,0.26458 1.09008,0.77258 l -1.06891,1.0795 q -0.26459,-0.30692 -0.64558,-0.49742 -0.37042,-0.20108 -0.94192,-0.20108 -0.53975,0 -0.80433,0.1905 -0.26458,0.1905 -0.26458,0.52917 0,0.381 0.20108,0.55033 0.21167,0.16933 0.67733,0.24341 l 0.73025,0.11642 q 1.143,0.17992 1.69333,0.70908 0.55033,0.51858 0.55033,1.48166 0,0.52917 -0.1905,0.97367 -0.1905,0.4445 -0.56091,0.76199 -0.35984,0.3175 -0.89959,0.49742 -0.53974,0.16933 -1.22766,0.16933 z"
         style="font-weight:bold;font-family:'IBM Plex Sans';-inkscape-font-specification:'IBM Plex Sans, Bold'"
         id="path319" />
      <path
         d="m 163.81099,151.45093 h -2.81516 v 3.02682 h -1.60866 v -7.38714 h 1.60866 v 2.94216 h 2.81516 v -2.94216 h 1.60866 v 7.38714 h -1.60866 z"
         style="font-weight:bold;font-family:'IBM Plex Sans';-inkscape-font-specification:'IBM Plex Sans, Bold'"
         id="path321" />
      <path
         d="m 166.95422,150.09627 v -3.45016 h 1.397 v 3.45016 z m 2.38124,0 v -3.45016 h 1.397 v 3.45016 z"
         style="font-weight:bold;font-family:'IBM Plex Sans';-inkscape-font-specification:'IBM Plex Sans, Bold'"
         id="path323" />
    </g>
  </g>
</svg>
