<?xml version="1.0" encoding="UTF-8" standalone="no"?>
<svg
   width="38.406078"
   height="23.228781"
   viewBox="0 0 38.406078 23.228781"
   fill="none"
   version="1.1"
   id="svg20"
   sodipodi:docname="tyllanal.svg"
   inkscape:version="1.2.2 (b0a84865, 2022-12-01)"
   xmlns:inkscape="http://www.inkscape.org/namespaces/inkscape"
   xmlns:sodipodi="http://sodipodi.sourceforge.net/DTD/sodipodi-0.dtd"
   xmlns="http://www.w3.org/2000/svg"
   xmlns:svg="http://www.w3.org/2000/svg">
  <defs
     id="defs24" />
  <sodipodi:namedview
     id="namedview22"
     pagecolor="#ffffff"
     bordercolor="#666666"
     borderopacity="1.0"
     inkscape:showpageshadow="2"
     inkscape:pageopacity="0.0"
     inkscape:pagecheckerboard="0"
     inkscape:deskcolor="#d1d1d1"
     showgrid="false"
     inkscape:zoom="9.44"
     inkscape:cx="11.228814"
     inkscape:cy="11.652542"
     inkscape:window-width="1309"
     inkscape:window-height="456"
     inkscape:window-x="1779"
     inkscape:window-y="217"
     inkscape:window-maximized="0"
     inkscape:current-layer="svg20" />
  <path
     d="m 15.137278,16.00388 h -0.7405 c -0.2834,0 -0.514,-0.2756 -0.514,-0.6145 v -1.4673 c 0,-0.3389 0.2306,-0.6145 0.514,-0.6145 h 0.7405 c 0.2834,0 0.514,0.2756 0.514,0.6145 v 1.4673 c 0.0013,0.3389 -0.2292,0.6145 -0.514,0.6145 z"
     fill="#EB9000"
     id="path2"
     style="fill:#000000" />
  <path
     d="m 17.406278,14.69908 c 0,-0.288 0.2305,-0.5222 0.514,-0.5222 h 3.6046 c 0.7798,0 1.405,0.0868 1.8728,0.259 0.4679,0.1722 0.8449,0.4588 1.1297,0.8583 0.3865,0.5084 0.5859,1.3557 0.5981,2.542 v 4.8703 c 0,0.2879 -0.2306,0.5221 -0.514,0.5221 h -0.7405 c -0.2834,0 -0.514,-0.2342 -0.514,-0.5221 v -4.6802 c 0,-0.9079 -0.1532,-1.5389 -0.461,-1.893 -0.3079,-0.3541 -0.8558,-0.5304 -1.6491,-0.5304 h -1.5582 c -0.2835,0 -0.514,0.2342 -0.514,0.5221 v 6.5815 c 0,0.2879 -0.2306,0.5221 -0.514,0.5221 h -0.7404 c -0.2835,0 -0.514,-0.2342 -0.514,-0.5221 z"
     fill="#EB9000"
     id="path4"
     style="fill:#000000" />
  <path
     d="m 15.653178,11.84588 c 0,0.2879 -0.2306,0.5221 -0.514,0.5221 h -3.606 c -0.7798,0 -1.405,-0.0868 -1.8728,-0.259 -0.4679,-0.1722 -0.84491,-0.4588 -1.1297,-0.8583 -0.3865,-0.5084 -0.58586,-1.3557 -0.59806,-2.54194 V 3.83845 c 0,-0.28795 0.23054,-0.52217 0.51398,-0.52217 h 0.74048 c 0.2834,0 0.514,0.23422 0.514,0.52217 v 4.68016 c 0,0.90797 0.1532,1.53897 0.461,1.89297 0.3079,0.3541 0.8558,0.5305 1.6491,0.5305 h 1.5582 c 0.2835,0 0.514,-0.2342 0.514,-0.5222 V 3.83845 c 0,-0.28795 0.2306,-0.52217 0.514,-0.52217 h 0.7405 c 0.2834,0 0.5139,0.23422 0.5139,0.52217 v 8.00743 z"
     fill="#EB9000"
     id="path6"
     style="fill:#000000" />
  <path
     d="M 3.704998,1.57888 H 0.513978 C 0.230548,1.57888 0,1.34605 0,1.05672 V 0.52216 C 0,0.23421 0.230548,0 0.513978,0 h 9.3656 c 0.2834,0 0.5139,0.23421 0.5139,0.52216 v 0.53456 c 0,0.28795 -0.2305,0.52216 -0.5139,0.52216 h -3.19919 c -0.28344,0 -0.51398,0.23422 -0.51398,0.52216 v 9.74194 c 0,0.288 -0.23055,0.5222 -0.51398,0.5222 h -0.91947 c -0.28344,0 -0.51398,-0.2342 -0.51398,-0.5222 V 2.10242 c 0,-0.28932 -0.23055,-0.52354 -0.51398,-0.52354 z"
     fill="#575756"
     id="path8"
     style="fill:#000000" />
  <path
     d="m 18.661678,12.36658 h -0.7405 c -0.2834,0 -0.514,-0.2329 -0.514,-0.5208 v -11.325 c 0,-0.28794 0.2306,-0.52078 0.514,-0.52078 h 0.7405 c 0.2834,0 0.514,0.23284 0.514,0.52078 v 11.3236 c 0,0.2879 -0.2306,0.5222 -0.514,0.5222 z"
     fill="#575756"
     id="path10"
     style="fill:#000000" />
  <path
     d="m 22.200678,12.36658 h -0.7404 c -0.2834,0 -0.514,-0.2329 -0.514,-0.5208 v -11.325 c 0,-0.28794 0.2306,-0.52078 0.514,-0.52078 h 0.7404 c 0.2835,0 0.514,0.23284 0.514,0.52078 v 11.3236 c 0,0.2879 -0.2305,0.5222 -0.514,0.5222 z"
     fill="#575756"
     id="path12"
     style="fill:#000000" />
  <path
     d="m 32.343678,5.07703 c -0.08,-0.35683 -0.2278,-0.66545 -0.4421,-0.92584 -0.2509,-0.30861 -0.5872,-0.52492 -1.0103,-0.64891 -0.4231,-0.124 -1.0307,-0.186 -1.824,-0.186 h -4.0603 c -0.2835,0 -0.514,0.23422 -0.514,0.52217 V 4.2187 c 0,0.28795 0.2305,0.52216 0.514,0.52216 h 3.6778 c 0.8815,0 1.4376,0.12124 1.6668,0.36372 0.2291,0.24249 0.3431,0.82389 0.3431,1.74284 h -3.1721 c -1.0727,0 -1.8226,0.1364 -2.2512,0.40781 -0.3512,0.22457 -0.6265,0.54558 -0.8218,0.96717 -0.1967,0.42159 -0.2943,0.89418 -0.2943,1.42048 0,0.7136 0.1804,1.2978 0.5411,1.7524 0.3607,0.4547 0.8801,0.7482 1.5596,0.8804 0.2915,0.0606 0.8598,0.0909 1.706,0.0909 h 3.9898 c 0.2834,0 0.514,-0.2342 0.514,-0.5221 V 6.64765 c -0.0014,-0.69025 -0.0421,-1.21241 -0.1221,-1.57062 z m -1.649,5.34285 c 0,0.288 -0.2306,0.5222 -0.514,0.5222 h -2.4438 c -0.6374,0 -1.089,-0.1006 -1.3534,-0.3004 -0.2645,-0.1997 -0.3974,-0.5414 -0.3974,-1.0264 0,-0.60482 0.2021,-0.99885 0.6076,-1.18071 0.2508,-0.10884 0.6319,-0.16395 1.1445,-0.16395 h 2.4438 c 0.2835,0 0.514,0.23422 0.514,0.52216 v 1.6271 z"
     fill="#575756"
     id="path14"
     style="fill:#000000" />
  <path
     d="m 34.747378,15.93758 c -0.08,-0.3568 -0.2278,-0.6654 -0.4421,-0.9258 -0.2509,-0.3086 -0.5872,-0.5249 -1.0103,-0.6489 -0.4231,-0.124 -1.0307,-0.186 -1.824,-0.186 h -4.0617 c -0.2834,0 -0.514,0.2342 -0.514,0.5222 v 0.3802 c 0,0.288 0.2306,0.5222 0.514,0.5222 h 3.6779 c 0.8815,0 1.4375,0.1212 1.6667,0.3637 0.2292,0.2425 0.3431,0.8239 0.3431,1.7428 h -3.172 c -1.0728,0 -1.8227,0.1364 -2.2513,0.4078 -0.3512,0.2246 -0.6265,0.5456 -0.8218,0.9672 -0.1966,0.4216 -0.2943,0.8942 -0.2943,1.4205 0,0.7136 0.1804,1.2978 0.5411,1.7524 0.3608,0.4533 0.8802,0.7481 1.5596,0.8804 0.2916,0.0606 0.8598,0.0909 1.706,0.0909 h 3.9898 c 0.2835,0 0.514,-0.2342 0.514,-0.5221 v -5.1968 c 0,-0.6903 -0.0407,-1.2124 -0.1207,-1.5707 z m -1.6491,5.3429 c 0,0.2879 -0.2305,0.5222 -0.5139,0.5222 h -2.4438 c -0.6374,0 -1.089,-0.1006 -1.3535,-0.3004 -0.2644,-0.1998 -0.3973,-0.5414 -0.3973,-1.0264 0,-0.6048 0.2021,-0.9989 0.6075,-1.1807 0.2509,-0.1089 0.632,-0.164 1.1446,-0.164 h 2.4438 c 0.2835,0 0.514,0.2342 0.514,0.5222 v 1.6271 z"
     fill="#575756"
     id="path16"
     style="fill:#000000" />
  <path
     d="m 37.892178,23.22878 h -0.7405 c -0.2834,0 -0.514,-0.2342 -0.514,-0.5222 v -11.3484 c 0,-0.2879 0.2306,-0.5221 0.514,-0.5221 h 0.7405 c 0.2834,0 0.5139,0.2342 0.5139,0.5221 v 11.3484 c 0,0.288 -0.2292,0.5222 -0.5139,0.5222 z"
     fill="#575756"
     id="path18"
     style="fill:#000000" />
</svg>
